<?xml version="1.0" encoding="UTF-8" standalone="no"?>
<!-- Created with Inkscape (http://www.inkscape.org/) -->

<svg
   version="1.1"
   width="745"
   height="266.25"
   id="svg2"
   xml:space="preserve"
   sodipodi:docname="hadoop.svg"
   inkscape:version="1.3.2 (091e20e, 2023-11-25)"
   xmlns:inkscape="http://www.inkscape.org/namespaces/inkscape"
   xmlns:sodipodi="http://sodipodi.sourceforge.net/DTD/sodipodi-0.dtd"
   xmlns="http://www.w3.org/2000/svg"
   xmlns:svg="http://www.w3.org/2000/svg"
   xmlns:rdf="http://www.w3.org/1999/02/22-rdf-syntax-ns#"
   xmlns:cc="http://creativecommons.org/ns#"
   xmlns:dc="http://purl.org/dc/elements/1.1/"><sodipodi:namedview
     id="namedview1"
     pagecolor="#ffffff"
     bordercolor="#000000"
     borderopacity="0.25"
     inkscape:showpageshadow="2"
     inkscape:pageopacity="0.0"
     inkscape:pagecheckerboard="0"
     inkscape:deskcolor="#d1d1d1"
     inkscape:zoom="1.8442953"
     inkscape:cx="372.5"
     inkscape:cy="133.11317"
     inkscape:window-width="1920"
     inkscape:window-height="939"
     inkscape:window-x="0"
     inkscape:window-y="32"
     inkscape:window-maximized="1"
     inkscape:current-layer="g10" /><title
     id="title3117">Hadoop logo</title><metadata
     id="metadata8"><rdf:RDF><cc:Work
         rdf:about=""><dc:format>image/svg+xml</dc:format><dc:type
           rdf:resource="http://purl.org/dc/dcmitype/StillImage" /><dc:title>Hadoop logo</dc:title><cc:license
           rdf:resource="http://www.apache.org/licenses/LICENSE-2.0.html" /></cc:Work></rdf:RDF></metadata><defs
     id="defs6"><clipPath
       id="clipPath16"><path
         d="m -9,-9 614,0 0,231 -614,0 0,-231 z"
         id="path18" /></clipPath><clipPath
       id="clipPath116"><path
         d="m 91.7368,146.3253 -9.7039,-1.577 -8.8548,-3.8814 -7.5206,-4.7308 -7.1566,-8.7335 -4.0431,-4.282 -3.9093,-1.4409 -1.034,2.5271 1.8079,2.6096 0.4062,3.6802 1.211,-0.0488 1.3232,-1.2069 -0.3569,3.7488 -1.4667,0.9839 0.0445,1.4286 -3.4744,-1.9655 -3.1462,-3.712 -0.6559,-3.3176 1.3453,-2.6567 1.2549,-4.5133 2.5521,-1.2084 2.6847,0.1318 2.5455,1.4791 -1.698,-8.6122 1.698,-9.5825 -1.8692,-4.4246 -6.1223,-6.5965 1.0885,-3.941 2.9002,-4.5669 5.4688,-3.8486 2.9007,-0.3969 3.225,-0.1094 -2.012,-8.2601 7.3993,-3.0326 9.2188,-1.2129 3.1535,2.0619 0.2427,5.5797 3.5178,5.8224 0.2426,4.6094 8.4909,-0.6066 7.8843,0.7279 -7.8843,-4.7307 1.3343,-5.701 4.9731,-7.763 4.8521,-2.0622 3.8814,1.5769 1.577,3.1538 8.1269,6.1861 1.5769,-1.3343 12.7363,-0.485 2.5473,2.0619 0.2426,3.6391 -0.849,1.5767 -0.6066,9.8251 -4.2454,8.4909 0.7276,3.7605 2.5475,-1.3343 7.1566,-6.6716 3.5175,-0.2424 3.8815,1.5769 3.8818,2.9109 1.9406,6.3077 11.4021,-0.7277 6.914,2.6686 5.5797,5.2157 4.0028,7.5206 0.9706,8.8546 -0.8493,10.3105 -2.1832,9.2185 -2.1836,2.9112 -3.0322,0.9706 -5.3373,-5.8224 -4.8518,-1.6982 -4.2455,7.0353 -4.2454,3.8815 -2.3049,1.4556 -9.2185,7.6419 -7.3993,4.0028 -7.3993,0.6066 -8.6119,-1.4556 -7.5206,-2.7899 -5.2158,-4.2454 -4.1241,-4.9734 -4.2454,-1.2129"
         id="path118" /></clipPath><clipPath
       id="clipPath128"><path
         d="m 91.7368,146.3253 -9.7039,-1.577 -8.8548,-3.8814 -7.5206,-4.7308 -7.1566,-8.7335 -4.0431,-4.282 -3.9093,-1.4409 -1.034,2.5271 1.8079,2.6096 0.4062,3.6802 1.211,-0.0488 1.3232,-1.2069 -0.3569,3.7488 -1.4667,0.9839 0.0445,1.4286 -3.4744,-1.9655 -3.1462,-3.712 -0.6559,-3.3176 1.3453,-2.6567 1.2549,-4.5133 2.5521,-1.2084 2.6847,0.1318 2.5455,1.4791 -1.698,-8.6122 1.698,-9.5825 -1.8692,-4.4246 -6.1223,-6.5965 1.0885,-3.941 2.9002,-4.5669 5.4688,-3.8486 2.9007,-0.3969 3.225,-0.1094 -2.012,-8.2601 7.3993,-3.0326 9.2188,-1.2129 3.1535,2.0619 0.2427,5.5797 3.5178,5.8224 0.2426,4.6094 8.4909,-0.6066 7.8843,0.7279 -7.8843,-4.7307 1.3343,-5.701 4.9731,-7.763 4.8521,-2.0622 3.8814,1.5769 1.577,3.1538 8.1269,6.1861 1.5769,-1.3343 12.7363,-0.485 2.5473,2.0619 0.2426,3.6391 -0.849,1.5767 -0.6066,9.8251 -4.2454,8.4909 0.7276,3.7605 2.5475,-1.3343 7.1566,-6.6716 3.5175,-0.2424 3.8815,1.5769 3.8818,2.9109 1.9406,6.3077 11.4021,-0.7277 6.914,2.6686 5.5797,5.2157 4.0028,7.5206 0.9706,8.8546 -0.8493,10.3105 -2.1832,9.2185 -2.1836,2.9112 -3.0322,0.9706 -5.3373,-5.8224 -4.8518,-1.6982 -4.2455,7.0353 -4.2454,3.8815 -2.3049,1.4556 -9.2185,7.6419 -7.3993,4.0028 -7.3993,0.6066 -8.6119,-1.4556 -7.5206,-2.7899 -5.2158,-4.2454 -4.1241,-4.9734 -4.2454,-1.2129"
         id="path130" /></clipPath></defs><g
     transform="matrix(1.25,0,0,-1.25,0,266.25)"
     id="g10"><path
       d="m 360.11314,59.805334 c 8.31022,0 16.62045,0 24.93108,0 1.02902,4.424047 2.05821,8.847548 3.08739,13.271357 7.11524,0 14.46022,-0.04339 21.57587,-0.04339 3.47451,0 6.55041,1.019439 9.28306,2.763849 3.29813,2.105529 5.76073,5.331723 6.68574,9.312157 1.56426,6.73304 3.13819,13.46491 4.71138,20.196013 0.89733,3.84299 2.06473,8.18251 -0.85215,11.65338 -2.68275,3.19373 -6.24343,3.44199 -10.15248,3.44199 -28.14809,-0.0292 -56.29725,6.3e-4 -84.44559,6.3e-4 -2.84145,0 -5.22168,-0.86811 -7.70533,-2.07798 -2.32984,1.55632 -4.43249,2.07798 -7.28922,2.07798 -12.87852,0 -25.75779,0 -38.63631,0 1.05496,4.48469 2.10968,8.9693 3.16439,13.45367 -8.32287,0 -16.64622,0 -24.96958,0 -1.02894,-4.37511 -2.05812,-8.75022 -3.08739,-13.12533 -7.31987,0 -14.63973,0 -21.95985,0 -3.03311,0 -5.94652,-0.89909 -8.4899,-2.44285 -2.4659,1.44909 -4.36739,2.07829 -7.28848,2.07829 -24.16121,0 -48.32194,0 -72.48307,0 1.10642,4.54494 2.21293,9.09043 3.31895,13.63592 -8.31023,0.0119 -16.62045,0.0241 -24.93092,0.0363 -4.79102,-20.2444 -9.58204,-40.488793 -14.37306,-60.732955 8.30254,-0.0023 16.605,-0.0047 24.90704,-0.0062 2.4977,10.36055 4.99499,20.721342 7.49228,31.082125 2.80915,0 5.6183,0 8.42819,0 1.003,0 0.80564,-0.53976 0.63744,-1.25303 -2.36213,-9.942933 -4.72452,-19.886248 -7.0864,-29.829095 55.04113,0 110.08251,-2.34e-4 165.12505,-2.34e-4 2.80163,0 4.994,0.547338 7.51615,1.762361 2.48531,-1.568806 4.68164,-2.089999 7.71822,-2.065258 l 38.24497,0.303131 C 362.16473,68.80029 361.13902,64.30288 360.11314,59.805391 Z M 252.26628,104.33653 c -2.4497,0 -4.89965,0 -7.3501,0 -1.28933,0 -1.63688,-0.55553 -1.89331,-1.64756 -0.9203,-3.899263 -1.84019,-7.799153 -2.76049,-11.697953 -0.2623,-1.12074 0.33796,-1.30392 1.37607,-1.30392 2.38461,0 4.76921,0 7.15357,0 1.15831,4.88304 2.31628,9.76608 3.47426,14.649433 z m 42.16303,-0.28276 c 2.61699,0 5.2339,0 7.85106,0 1.5109,0 1.4282,-0.74847 1.15633,-1.90464 -0.89924,-3.819353 -1.79847,-7.639403 -2.69746,-11.458983 -0.3136,-1.33381 -1.19317,-1.31102 -2.40617,-1.31102 -2.66309,0 -5.3261,0 -7.98944,0 -1.17367,0 -1.184,0.65551 -0.97532,1.55195 0.89577,3.81872 1.79236,7.63784 2.68647,11.456563 0.33111,1.41505 0.9208,1.66613 2.37453,1.66613 z m 51.68145,0 c 2.61691,0 5.23382,0 7.85098,0 1.5109,0 1.42829,-0.74847 1.15616,-1.90464 -0.89899,-3.819353 -1.79847,-7.639403 -2.69729,-11.458983 -0.31351,-1.33381 -1.19309,-1.31102 -2.40642,-1.31102 -2.66276,0 -5.32585,0 -7.9891,0 -1.17376,0 -1.184,0.65551 -0.97557,1.55195 0.89568,3.81872 1.7926,7.63784 2.68663,11.456563 0.33119,1.41505 0.9208,1.66613 2.37461,1.66613 z m 46.08852,-14.784603 c 2.4497,0 4.89965,0 7.3501,0 1.28941,0 1.63713,0.55553 1.89331,1.64755 0.9203,3.89919 1.84019,7.79916 2.76049,11.697953 0.2623,1.12075 -0.33788,1.30392 -1.37599,1.30392 -2.38461,0 -4.76905,0 -7.15365,0 -1.15823,-4.883033 -2.3162,-9.766153 -3.47426,-14.649423"
       id="path20"
       style="fill:#000000;fill-opacity:1;fill-rule:evenodd;stroke:none;stroke-width:0.802968" /><path
       d="m 288.68098,116.98797 h 31.31462 c 4.88701,0 7.99902,-3.77783 6.91663,-8.39363 l -5.57922,-23.792774 c -1.08239,-4.616196 -5.9666,-8.393552 -10.85295,-8.393552 h -31.31437 c -4.88628,0 -7.99919,3.776887 -6.91664,8.393552 l 5.57906,23.792774 c 1.0828,4.6169 5.9661,8.39363 10.85287,8.39363 z m 5.67621,-9.55223 h 15.48262 c 2.58693,0 4.23347,-1.99907 3.66089,-4.44121 l -2.95298,-12.593543 c -0.57275,-2.44198 -3.15761,-4.44098 -5.74362,-4.44098 h -15.48288 c -2.58601,0 -4.23339,1.9986 -3.66063,4.44098 l 2.95297,12.593543 c 0.57284,2.44307 3.1567,4.44121 5.74363,4.44121"
       id="path22"
       style="fill:#1f1917;fill-opacity:1;fill-rule:evenodd;stroke:none;stroke-width:0.802968" /><path
       d="m 340.3008,116.98797 h 31.31487 c 4.88726,0 7.99919,-3.77783 6.9168,-8.39363 l -5.57898,-23.792774 c -1.08263,-4.616196 -5.96684,-8.393552 -10.85336,-8.393552 h -31.31462 c -4.88635,0 -7.99927,3.776887 -6.91663,8.393552 l 5.57905,23.792774 c 1.0828,4.6169 5.9661,8.39363 10.85287,8.39363 z m 5.67621,-9.55223 h 15.48329 c 2.58676,0 4.23322,-1.99907 3.66047,-4.44121 l -2.95298,-12.593543 c -0.57283,-2.44198 -3.15744,-4.44098 -5.74346,-4.44098 h -15.48328 c -2.58602,0 -4.23347,1.9986 -3.66064,4.44098 l 2.95298,12.593543 c 0.57275,2.44307 3.1567,4.44121 5.74362,4.44121"
       id="path24"
       style="fill:#1f1917;fill-opacity:1;fill-rule:evenodd;stroke:none;stroke-width:0.802968" /><path
       d="m 383.06359,116.98797 h 37.58374 c 4.88702,0 7.99878,-3.77868 6.91664,-8.39363 l -5.57906,-23.792774 c -1.08214,-4.614635 -5.96866,-8.395971 -10.85287,-8.393552 l -37.58374,0.01701 z m 9.82492,-9.55223 h 17.60329 c 2.58667,0 4.23297,-1.99946 3.66063,-4.44121 l -2.95298,-12.593543 c -0.57258,-2.44081 -3.15835,-4.44098 -5.74362,-4.44098 h -17.61898"
       id="path26"
       style="fill:#1f1917;fill-opacity:1;fill-rule:evenodd;stroke:none;stroke-width:0.802968" /><path
       d="m 267.70488,76.727223 h -37.5835 c -4.88701,0 -7.99902,3.778916 -6.91663,8.394024 l 5.57897,23.792373 c 1.08214,4.61534 5.9685,8.39621 10.8532,8.39356 l 37.58374,-0.0166 z m -9.82492,9.552464 h -17.60329 c -2.58651,0 -4.23297,1.99993 -3.66039,4.44082 l 2.95298,12.593933 c 0.5725,2.44105 3.1581,4.44121 5.74338,4.44121 h 17.61923"
       id="path30"
       style="fill:#1f1917;fill-opacity:1;fill-rule:evenodd;stroke:none;stroke-width:0.802968" /><path
       d="m 138.99733,116.98797 h 28.7267 c 4.88685,0 7.99903,-3.77712 6.91689,-8.39363 l -4.0789,-17.393773 h -12.09825 l 2.76561,11.793963 c 0.57234,2.44307 -1.07553,4.44121 -3.66088,4.44121 h -17.79833 c -2.58486,0 -0.26767,-1.99946 -0.83976,-4.44121 l -2.7291,-11.636463 h -12.09849 l 4.04205,17.236273 c 1.08239,4.6169 5.96544,8.39363 10.85246,8.39363"
       id="path34"
       style="fill:#1f1917;fill-opacity:1;fill-rule:evenodd;stroke:none;stroke-width:0.802968" /><path
       d="m 120.69035,76.727223 8.25801,35.115087 h 12.06553 l -8.27114,-35.115087"
       id="path36"
       style="fill:#1f1917;fill-opacity:1;fill-rule:evenodd;stroke:none;stroke-width:0.802968" /><path
       d="m 218.67321,76.727223 h -40.1714 c -4.88636,0 -7.99928,3.778214 -6.91689,8.394024 l 1.61863,6.90365 h 0.007 l 0.3112,1.32756 c 1.08164,4.61542 5.96775,8.395593 10.85295,8.393643 l 28.10794,-0.0119 0.41471,1.76275 c 0.44124,2.3008 -1.09403,4.1654 -3.50813,4.25874 h -32.53751 l 2.23986,9.54778 40.37959,-0.0109 c 4.7859,-0.0891 7.81216,-3.82957 6.74291,-8.3909 l -0.75995,-3.24047 h 0.007 l -0.92244,-3.93197 h 0.009 l -4.73832,-20.198588 h -0.009 l -1.12683,-4.803429 z m -31.22565,9.552464 h 21.40048 l 1.39153,5.91465 h -21.03426 c -0.10112,0.01 -0.20538,0.0153 -0.3117,0.0153 v 0 c -1.72304,0 -3.44328,-1.33139 -3.82313,-2.95904 v 0 c -0.37589,-1.60876 0.69245,-2.92759 2.38014,-2.95896 -8.2e-4,-0.004 -0.002,-0.008 -0.003,-0.0119"
       id="path42"
       style="fill:#1f1917;fill-opacity:1;fill-rule:evenodd;stroke:none;stroke-width:0.802968" /><path
       d="m 288.68098,116.98797 h 31.31462 c 4.88701,0 7.99902,-3.77783 6.91663,-8.39363 l -5.57922,-23.792774 c -1.08239,-4.616196 -5.9666,-8.393552 -10.85295,-8.393552 h -31.31437 c -4.88628,0 -7.99919,3.776887 -6.91664,8.393552 l 5.57906,23.792774 c 1.0828,4.6169 5.9661,8.39363 10.85287,8.39363 z m 5.67621,-9.55223 h 15.48262 c 2.58693,0 4.23347,-1.99907 3.66089,-4.44121 l -2.95298,-12.593543 c -0.57275,-2.44198 -3.15761,-4.44098 -5.74362,-4.44098 h -15.48288 c -2.58601,0 -4.23339,1.9986 -3.66063,4.44098 l 2.95297,12.593543 c 0.57284,2.44307 3.1567,4.44121 5.74363,4.44121"
       id="path44"
       style="fill:#66ccff;fill-opacity:1;fill-rule:evenodd;stroke:none;stroke-width:0.802968" /><path
       d="m 340.3008,116.98797 h 31.31487 c 4.88726,0 7.99919,-3.77783 6.9168,-8.39363 l -5.57898,-23.792774 c -1.08263,-4.616196 -5.96684,-8.393552 -10.85336,-8.393552 h -31.31462 c -4.88635,0 -7.99927,3.776887 -6.91663,8.393552 l 5.57905,23.792774 c 1.0828,4.6169 5.9661,8.39363 10.85287,8.39363 z m 5.67621,-9.55223 h 15.48329 c 2.58676,0 4.23322,-1.99907 3.66047,-4.44121 l -2.95298,-12.593543 c -0.57283,-2.44198 -3.15744,-4.44098 -5.74346,-4.44098 h -15.48328 c -2.58602,0 -4.23347,1.9986 -3.66064,4.44098 l 2.95298,12.593543 c 0.57275,2.44307 3.1567,4.44121 5.74362,4.44121"
       id="path46"
       style="fill:#66ccff;fill-opacity:1;fill-rule:evenodd;stroke:none;stroke-width:0.802968" /><path
       d="m 383.07078,116.99585 -7.84817,-33.403765 -1.6729,-7.160735 -3.18058,-13.599542 h 12.04075 l 3.20123,13.599542 25.52721,-0.01951 c 4.88421,-0.0023 9.76072,3.775327 10.84287,8.389963 l 5.57633,23.784577 c 1.08214,4.61494 -2.03176,8.40947 -6.91878,8.40947 z m 9.81021,-9.56065 h 17.61709 c 2.58666,0 4.22793,-2.00688 3.65559,-4.44864 l -2.95339,-12.584943 c -0.57259,-2.44082 -3.15629,-4.44864 -5.74156,-4.44864 h -17.61708 z"
       id="path48"
       style="fill:#66ccff;fill-opacity:1;fill-rule:evenodd;stroke:none;stroke-width:0.642374" /><path
       d="m 268.36354,130.88807 -3.20122,-13.59955 -25.52722,0.0195 c -4.8847,0.002 -9.76073,-3.77463 -10.84287,-8.38997 l -5.59698,-23.804083 c -1.08239,-4.615106 2.03176,-8.389964 6.91878,-8.389964 h 37.58862 l 9.52107,40.564497 3.18057,13.59955 z M 245.3147,107.74738 h 17.61708 l -5.06,-21.462703 h -17.59643 c -2.58651,0 -4.22819,1.98823 -3.6556,4.42912 l 2.95339,12.604463 c 0.57251,2.44105 3.15629,4.42912 5.74156,4.42912 z"
       id="path52"
       style="fill:#66ccff;fill-opacity:1;fill-rule:evenodd;stroke:none;stroke-width:0.642374" /><path
       d="m 133.37498,130.88807 -4.87413,-20.76028 h 0.062 l -0.20653,-0.81949 c -0.0772,-0.23744 -0.14969,-0.47943 -0.20653,-0.72192 l -4.04801,-17.228703 h 0.0413 l -3.44907,-14.633654 h 12.04075 l 3.44907,14.633654 h 0.0206 l 2.72621,11.628883 c 0.005,0.0186 -0.004,0.04 0,0.0585 l 1.05331,4.3901 h 17.57577 c 2.58536,0 4.24859,-2.00556 3.67625,-4.44864 l -2.76751,-11.784973 -3.38711,-14.477564 h 12.0614 l 3.40776,14.477564 h 0.0207 l 4.06865,17.384793 c 1.08214,4.6165 -2.03193,8.40947 -6.91878,8.40947 h -25.54787 l 3.26319,13.89222 z"
       id="path56"
       style="fill:#66ccff;fill-opacity:1;fill-rule:evenodd;stroke:none;stroke-width:0.642374" /><path
       d="m 218.67321,76.727223 h -40.1714 c -4.88636,0 -7.99928,3.778214 -6.91689,8.394024 l 1.61863,6.90365 h 0.007 l 0.3112,1.32756 c 1.08164,4.61542 5.96775,8.395593 10.85295,8.393643 l 28.10794,-0.0119 0.41471,1.76275 c 0.44124,2.3008 -1.09403,4.1654 -3.50813,4.25874 h -32.53751 l 2.23986,9.54778 40.37959,-0.0109 c 4.7859,-0.0891 7.81216,-3.82957 6.74291,-8.3909 l -0.75995,-3.24047 h 0.007 l -0.92244,-3.93197 h 0.009 l -4.73832,-20.198588 h -0.009 l -1.12683,-4.803429 z m -31.22565,9.552464 h 21.40048 l 1.39153,5.91465 h -21.03426 c -0.10112,0.01 -0.20538,0.0153 -0.3117,0.0153 v 0 c -1.72304,0 -3.44328,-1.33139 -3.82313,-2.95904 v 0 c -0.37589,-1.60876 0.69245,-2.92759 2.38014,-2.95896 -8.2e-4,-0.004 -0.002,-0.008 -0.003,-0.0119"
       id="path64"
       style="fill:#66ccff;fill-opacity:1;fill-rule:evenodd;stroke:none;stroke-width:0.802968" /><g
       id="g112"
       transform="matrix(0.82612341,0,0,0.78046167,37.15875,18.123929)" /><g
       transform="matrix(0.82612341,0,0,0.78046167,87.747675,100.97863)"
       id="g124"><g
         clip-path="url(#clipPath128)"
         id="g126"><g
           transform="matrix(136.89723,0,0,105.04488,45.2072,62.9932)"
           id="g132" /></g></g></g></svg>
