<?xml version="1.0" encoding="UTF-8" standalone="no"?>
<!-- Created with Inkscape (http://www.inkscape.org/) -->

<svg
   version="1.1"
   width="745"
   height="266.25"
   id="svg2"
   xml:space="preserve"
   sodipodi:docname="hadoop.svg"
   xmlns:inkscape="http://www.inkscape.org/namespaces/inkscape"
   xmlns:sodipodi="http://sodipodi.sourceforge.net/DTD/sodipodi-0.dtd"
   xmlns="http://www.w3.org/2000/svg"
   xmlns:svg="http://www.w3.org/2000/svg"
   xmlns:rdf="http://www.w3.org/1999/02/22-rdf-syntax-ns#"
   xmlns:cc="http://creativecommons.org/ns#"
   xmlns:dc="http://purl.org/dc/elements/1.1/"><sodipodi:namedview
     id="namedview1"
     pagecolor="#ffffff"
     bordercolor="#000000"
     borderopacity="0.25"
     inkscape:showpageshadow="2"
     inkscape:pageopacity="0.0"
     inkscape:pagecheckerboard="0"
     inkscape:deskcolor="#d1d1d1" /><title
     id="title3117">Hadoop logo</title><metadata
     id="metadata8"><rdf:RDF><cc:Work
         rdf:about=""><dc:format>image/svg+xml</dc:format><dc:type
           rdf:resource="http://purl.org/dc/dcmitype/StillImage" /><dc:title>Hadoop logo</dc:title><cc:license
           rdf:resource="http://www.apache.org/licenses/LICENSE-2.0.html" /></cc:Work></rdf:RDF></metadata><defs
     id="defs6"><clipPath
       id="clipPath16"><path
         d="m -9,-9 614,0 0,231 -614,0 0,-231 z"
         id="path18" /></clipPath><clipPath
       id="clipPath116"><path
         d="m 91.7368,146.3253 -9.7039,-1.577 -8.8548,-3.8814 -7.5206,-4.7308 -7.1566,-8.7335 -4.0431,-4.282 -3.9093,-1.4409 -1.034,2.5271 1.8079,2.6096 0.4062,3.6802 1.211,-0.0488 1.3232,-1.2069 -0.3569,3.7488 -1.4667,0.9839 0.0445,1.4286 -3.4744,-1.9655 -3.1462,-3.712 -0.6559,-3.3176 1.3453,-2.6567 1.2549,-4.5133 2.5521,-1.2084 2.6847,0.1318 2.5455,1.4791 -1.698,-8.6122 1.698,-9.5825 -1.8692,-4.4246 -6.1223,-6.5965 1.0885,-3.941 2.9002,-4.5669 5.4688,-3.8486 2.9007,-0.3969 3.225,-0.1094 -2.012,-8.2601 7.3993,-3.0326 9.2188,-1.2129 3.1535,2.0619 0.2427,5.5797 3.5178,5.8224 0.2426,4.6094 8.4909,-0.6066 7.8843,0.7279 -7.8843,-4.7307 1.3343,-5.701 4.9731,-7.763 4.8521,-2.0622 3.8814,1.5769 1.577,3.1538 8.1269,6.1861 1.5769,-1.3343 12.7363,-0.485 2.5473,2.0619 0.2426,3.6391 -0.849,1.5767 -0.6066,9.8251 -4.2454,8.4909 0.7276,3.7605 2.5475,-1.3343 7.1566,-6.6716 3.5175,-0.2424 3.8815,1.5769 3.8818,2.9109 1.9406,6.3077 11.4021,-0.7277 6.914,2.6686 5.5797,5.2157 4.0028,7.5206 0.9706,8.8546 -0.8493,10.3105 -2.1832,9.2185 -2.1836,2.9112 -3.0322,0.9706 -5.3373,-5.8224 -4.8518,-1.6982 -4.2455,7.0353 -4.2454,3.8815 -2.3049,1.4556 -9.2185,7.6419 -7.3993,4.0028 -7.3993,0.6066 -8.6119,-1.4556 -7.5206,-2.7899 -5.2158,-4.2454 -4.1241,-4.9734 -4.2454,-1.2129"
         id="path118" /></clipPath><clipPath
       id="clipPath128"><path
         d="m 91.7368,146.3253 -9.7039,-1.577 -8.8548,-3.8814 -7.5206,-4.7308 -7.1566,-8.7335 -4.0431,-4.282 -3.9093,-1.4409 -1.034,2.5271 1.8079,2.6096 0.4062,3.6802 1.211,-0.0488 1.3232,-1.2069 -0.3569,3.7488 -1.4667,0.9839 0.0445,1.4286 -3.4744,-1.9655 -3.1462,-3.712 -0.6559,-3.3176 1.3453,-2.6567 1.2549,-4.5133 2.5521,-1.2084 2.6847,0.1318 2.5455,1.4791 -1.698,-8.6122 1.698,-9.5825 -1.8692,-4.4246 -6.1223,-6.5965 1.0885,-3.941 2.9002,-4.5669 5.4688,-3.8486 2.9007,-0.3969 3.225,-0.1094 -2.012,-8.2601 7.3993,-3.0326 9.2188,-1.2129 3.1535,2.0619 0.2427,5.5797 3.5178,5.8224 0.2426,4.6094 8.4909,-0.6066 7.8843,0.7279 -7.8843,-4.7307 1.3343,-5.701 4.9731,-7.763 4.8521,-2.0622 3.8814,1.5769 1.577,3.1538 8.1269,6.1861 1.5769,-1.3343 12.7363,-0.485 2.5473,2.0619 0.2426,3.6391 -0.849,1.5767 -0.6066,9.8251 -4.2454,8.4909 0.7276,3.7605 2.5475,-1.3343 7.1566,-6.6716 3.5175,-0.2424 3.8815,1.5769 3.8818,2.9109 1.9406,6.3077 11.4021,-0.7277 6.914,2.6686 5.5797,5.2157 4.0028,7.5206 0.9706,8.8546 -0.8493,10.3105 -2.1832,9.2185 -2.1836,2.9112 -3.0322,0.9706 -5.3373,-5.8224 -4.8518,-1.6982 -4.2455,7.0353 -4.2454,3.8815 -2.3049,1.4556 -9.2185,7.6419 -7.3993,4.0028 -7.3993,0.6066 -8.6119,-1.4556 -7.5206,-2.7899 -5.2158,-4.2454 -4.1241,-4.9734 -4.2454,-1.2129"
         id="path130" /></clipPath></defs><g
     transform="matrix(1.25,0,0,-1.25,-5.8265507,267.51982)"
     id="g10"><path
       d="m 466.7854,48.4472 c 10.0593,0 20.1186,0 30.1784,0 1.2456,5.6685 2.4914,11.3363 3.7372,17.0045 8.6128,0 17.5037,-0.0556 26.117,-0.0556 4.2058,0 7.9291,1.3062 11.2369,3.5413 3.9923,2.6978 6.9732,6.8315 8.0929,11.9316 1.8935,8.627 3.7987,17.2525 5.703,25.877 1.0862,4.924 2.4993,10.4842 -1.0315,14.9314 -3.2474,4.0921 -7.5575,4.4102 -12.2893,4.4102 -34.0725,-0.0374 -68.1463,8e-4 -102.2191,8e-4 -3.4395,0 -6.3207,-1.1123 -9.3271,-2.6625 -2.8202,1.9941 -5.3654,2.6625 -8.8234,2.6625 -15.5891,0 -31.1791,0 -46.7682,0 1.277,5.7462 2.5537,11.4923 3.8304,17.2381 -10.0746,0 -20.1498,0 -30.225,0 -1.2455,-5.6058 -2.4913,-11.2116 -3.7372,-16.8174 -8.8605,0 -17.721,0 -26.5818,0 -3.6715,0 -7.1981,-1.152 -10.2768,-3.13 -2.9849,1.8567 -5.2866,2.6629 -8.8225,2.6629 -29.2465,0 -58.4924,0 -87.7388,0 1.3393,5.8234 2.6787,11.6475 4.0175,17.4716 -10.0593,0.0153 -20.1186,0.0309 -30.1782,0.0465 -5.7994,-25.939 -11.5988,-51.878 -17.3982,-77.8167 10.05,-0.0029 20.0999,-0.0057 30.1493,-0.0085 3.0234,13.2749 6.0463,26.5501 9.0692,39.8253 3.4004,0 6.8008,0 10.2021,0 1.2141,0 0.9752,-0.6916 0.7716,-1.6055 -2.8593,-12.7398 -5.7189,-25.4801 -8.5779,-38.2198 66.6258,0 133.2519,-3e-4 199.8794,-3e-4 3.3913,0 6.0451,0.7013 9.0981,2.2581 3.0084,-2.0101 5.667,-2.6779 9.3427,-2.6462 l 46.2945,0.3884 c -1.2418,-5.7626 -2.4834,-11.5251 -3.7252,-17.2877 z m -130.5457,57.0575 c -2.9653,0 -5.9309,0 -8.8971,0 -1.5607,0 -1.9814,-0.7118 -2.2918,-2.111 -1.114,-4.9961 -2.2275,-9.993 -3.3415,-14.9885 -0.3175,-1.436 0.4091,-1.6707 1.6657,-1.6707 2.8865,0 5.773,0 8.6592,0 1.4021,6.2566 2.8038,12.5132 4.2055,18.7702 z m 51.0372,-0.3623 c 3.1678,0 6.3355,0 9.5035,0 1.8289,0 1.7288,-0.959 1.3997,-2.4404 -1.0885,-4.8937 -2.177,-9.7883 -3.2652,-14.6823 -0.3796,-1.709 -1.4443,-1.6798 -2.9126,-1.6798 -3.2236,0 -6.4471,0 -9.671,0 -1.4207,0 -1.4332,0.8399 -1.1806,1.9885 1.0843,4.8929 2.1696,9.7863 3.2519,14.6792 0.4008,1.8131 1.1146,2.1348 2.8743,2.1348 z m 62.559,0 c 3.1677,0 6.3354,0 9.5034,0 1.8289,0 1.7289,-0.959 1.3995,-2.4404 -1.0882,-4.8937 -2.177,-9.7883 -3.265,-14.6823 -0.3795,-1.709 -1.4442,-1.6798 -2.9129,-1.6798 -3.2232,0 -6.4468,0 -9.6706,0 -1.4208,0 -1.4332,0.8399 -1.1809,1.9885 1.0842,4.8929 2.1699,9.7863 3.2521,14.6792 0.4009,1.8131 1.1146,2.1348 2.8744,2.1348 z M 505.6248,86.199 c 2.9653,0 5.9309,0 8.8971,0 1.5608,0 1.9817,0.7118 2.2918,2.111 1.114,4.996 2.2275,9.993 3.3415,14.9885 0.3175,1.436 -0.409,1.6707 -1.6656,1.6707 -2.8865,0 -5.7728,0 -8.6593,0 -1.402,-6.2566 -2.8037,-12.5133 -4.2055,-18.7702"
       id="path20"
       style="fill:#000000;fill-opacity:1;fill-rule:evenodd;stroke:none" /><path
       d="m 380.3187,121.7149 h 37.9055 c 5.9156,0 9.6826,-4.8405 8.3724,-10.7547 L 419.8431,80.4747 C 418.5329,74.56 412.6207,69.7201 406.7059,69.7201 h -37.9052 c -5.9147,0 -9.6828,4.8393 -8.3724,10.7546 l 6.7533,30.4855 c 1.3107,5.9156 7.2218,10.7547 13.1371,10.7547 z m 6.8709,-12.2392 h 18.7413 c 3.1314,0 5.1245,-2.5614 4.4314,-5.6905 l -3.5745,-16.136 c -0.6933,-3.1289 -3.8222,-5.6902 -6.9525,-5.6902 h -18.7416 c -3.1303,0 -5.1244,2.5608 -4.4311,5.6902 l 3.5745,16.136 c 0.6934,3.1303 3.8211,5.6905 6.9525,5.6905"
       id="path22"
       style="fill:#1f1917;fill-opacity:1;fill-rule:evenodd;stroke:none" /><path
       d="m 442.8031,121.7149 h 37.9058 c 5.9159,0 9.6828,-4.8405 8.3726,-10.7547 L 482.3283,80.4747 C 481.0178,74.56 475.1056,69.7201 469.1906,69.7201 h -37.9055 c -5.9148,0 -9.6829,4.8393 -8.3724,10.7546 l 6.7533,30.4855 c 1.3107,5.9156 7.2218,10.7547 13.1371,10.7547 z m 6.8709,-12.2392 h 18.7421 c 3.1312,0 5.1242,-2.5614 4.4309,-5.6905 l -3.5745,-16.136 c -0.6934,-3.1289 -3.822,-5.6902 -6.9523,-5.6902 h -18.7421 c -3.1303,0 -5.1245,2.5608 -4.4311,5.6902 l 3.5745,16.136 c 0.6933,3.1303 3.8211,5.6905 6.9525,5.6905"
       id="path24"
       style="fill:#1f1917;fill-opacity:1;fill-rule:evenodd;stroke:none" /><path
       d="m 494.5663,121.7149 h 45.4941 c 5.9156,0 9.6823,-4.8416 8.3724,-10.7547 L 541.6795,80.4747 C 540.3696,74.562 534.4546,69.717 528.5424,69.7201 l -45.4941,0.0218 z m 11.8928,-12.2392 h 21.3083 c 3.1311,0 5.1239,-2.5619 4.4311,-5.6905 l -3.5745,-16.136 c -0.6931,-3.1274 -3.8231,-5.6902 -6.9525,-5.6902 h -21.3273"
       id="path26"
       style="fill:#1f1917;fill-opacity:1;fill-rule:evenodd;stroke:none" /><path
       d="m 354.9277,70.1291 h -45.4938 c -5.9156,0 -9.6826,4.8419 -8.3724,10.7552 l 6.7532,30.485 c 1.3099,5.9136 7.2247,10.758 13.1375,10.7546 l 45.4941,-0.0213 z m -11.8928,12.2395 h -21.3083 c -3.1309,0 -5.1239,2.5625 -4.4308,5.69 l 3.5745,16.1365 c 0.693,3.1277 3.8228,5.6905 6.9522,5.6905 h 21.3276"
       id="path30"
       style="fill:#1f1917;fill-opacity:1;fill-rule:evenodd;stroke:none" /><path
       d="m 199.1307,121.7149 h 34.7729 c 5.9154,0 9.6826,-4.8396 8.3727,-10.7547 l -4.9374,-22.2865 h -14.6446 l 3.3477,15.1115 c 0.6928,3.1303 -1.3019,5.6905 -4.4314,5.6905 h -21.5444 c -3.1289,0 -0.324,-2.5619 -1.0165,-5.6905 l -3.3035,-14.9097 h -14.6449 l 4.8928,22.0847 c 1.3102,5.9156 7.221,10.7547 13.1366,10.7547"
       id="path34"
       style="fill:#1f1917;fill-opacity:1;fill-rule:evenodd;stroke:none" /><path
       d="m 176.9706,70.1291 9.9961,44.9927 h 14.605 l -10.012,-44.9927"
       id="path36"
       style="fill:#1f1917;fill-opacity:1;fill-rule:evenodd;stroke:none" /><path
       d="m 295.5762,70.1291 h -48.6264 c -5.9148,0 -9.6829,4.841 -8.3727,10.7552 l 1.9593,8.8456 h 0.009 l 0.3767,1.701 c 1.3093,5.9137 7.2238,10.7572 13.1372,10.7547 l 34.0239,-0.0153 0.502,2.2586 c 0.5341,2.948 -1.3243,5.3371 -4.2465,5.4567 h -39.3863 l 2.7113,12.2335 48.8784,-0.0139 c 5.7932,-0.1142 9.4564,-4.9068 8.1621,-10.7512 l -0.9199,-4.152 h 0.008 l -1.1166,-5.038 h 0.0108 l -5.7356,-25.8803 h -0.0108 l -1.364,-6.1546 z m -37.7978,12.2395 h 25.9047 l 1.6844,7.5784 h -25.4614 c -0.1224,0.0125 -0.2486,0.0196 -0.3773,0.0196 v 0 c -2.0857,0 -4.168,-1.7059 -4.6278,-3.7914 v 0 c -0.455,-2.0613 0.8382,-3.7511 2.8811,-3.7913 -0.001,-0.0051 -0.002,-0.0105 -0.004,-0.0153"
       id="path42"
       style="fill:#1f1917;fill-opacity:1;fill-rule:evenodd;stroke:none" /><path
       d="m 380.3187,121.7149 h 37.9055 c 5.9156,0 9.6826,-4.8405 8.3724,-10.7547 L 419.8431,80.4747 C 418.5329,74.56 412.6207,69.7201 406.7059,69.7201 h -37.9052 c -5.9147,0 -9.6828,4.8393 -8.3724,10.7546 l 6.7533,30.4855 c 1.3107,5.9156 7.2218,10.7547 13.1371,10.7547 z m 6.8709,-12.2392 h 18.7413 c 3.1314,0 5.1245,-2.5614 4.4314,-5.6905 l -3.5745,-16.136 c -0.6933,-3.1289 -3.8222,-5.6902 -6.9525,-5.6902 h -18.7416 c -3.1303,0 -5.1244,2.5608 -4.4311,5.6902 l 3.5745,16.136 c 0.6934,3.1303 3.8211,5.6905 6.9525,5.6905"
       id="path44"
       style="fill:#66ccff;fill-opacity:1;fill-rule:evenodd;stroke:none" /><path
       d="m 442.8031,121.7149 h 37.9058 c 5.9159,0 9.6828,-4.8405 8.3726,-10.7547 L 482.3283,80.4747 C 481.0178,74.56 475.1056,69.7201 469.1906,69.7201 h -37.9055 c -5.9148,0 -9.6829,4.8393 -8.3724,10.7546 l 6.7533,30.4855 c 1.3107,5.9156 7.2218,10.7547 13.1371,10.7547 z m 6.8709,-12.2392 h 18.7421 c 3.1312,0 5.1242,-2.5614 4.4309,-5.6905 l -3.5745,-16.136 c -0.6934,-3.1289 -3.822,-5.6902 -6.9523,-5.6902 h -18.7421 c -3.1303,0 -5.1245,2.5608 -4.4311,5.6902 l 3.5745,16.136 c 0.6933,3.1303 3.8211,5.6905 6.9525,5.6905"
       id="path46"
       style="fill:#66ccff;fill-opacity:1;fill-rule:evenodd;stroke:none" /><path
       d="m 618.21875,114.09375 -11.875,53.5 L 603.8125,179.0625 599,200.84375 h 18.21875 l 4.84375,-21.78125 38.625,0.0312 c 7.39025,0.004 14.76887,-6.04662 16.40625,-13.4375 l 8.4375,-38.09375 C 687.16863,120.17108 682.457,114.0937 675.0625,114.0937 h -56.84375 z m 14.84375,15.3125 h 26.65625 c 3.91387,0 6.39725,3.21425 5.53125,7.125 l -4.46875,20.15625 c -0.86637,3.90925 -4.77575,7.125 -8.6875,7.125 H 625.4375 Z"
       transform="matrix(0.8,0,0,-0.8,0,213)"
       id="path48"
       style="fill:#66ccff;fill-opacity:1;fill-rule:evenodd;stroke:none" /><path
       d="m 444.65625,91.84375 -4.84375,21.78125 -38.625,-0.0312 c -7.391,-0.004 -14.76887,6.0455 -16.40625,13.4375 l -8.46875,38.125 c -1.63775,7.39163 3.07425,13.4375 10.46875,13.4375 h 56.875 L 458.0625,113.62505 462.875,91.8438 h -18.21875 z m -34.875,37.0625 h 26.65625 l -7.65625,34.375 h -26.625 c -3.91362,0 -6.39763,-3.18438 -5.53125,-7.09375 L 401.09375,136 c 0.86625,-3.90963 4.77575,-7.09375 8.6875,-7.09375 z"
       transform="matrix(0.8,0,0,-0.8,0,213)"
       id="path52"
       style="fill:#66ccff;fill-opacity:1;fill-rule:evenodd;stroke:none" /><path
       d="m 240.40625,91.84375 -7.375,33.25 h 0.0937 l -0.3125,1.3125 c -0.11692,0.38028 -0.22648,0.76786 -0.3125,1.15625 l -6.125,27.59375 h 0.0625 l -5.21875,23.4375 h 18.21875 l 5.21875,-23.4375 h 0.0312 l 4.125,-18.625 c 0.007,-0.0297 -0.006,-0.0641 0,-0.0937 l 1.59375,-7.03125 h 26.59375 c 3.91188,0 6.4285,3.21212 5.5625,7.125 l -4.1875,18.875 -5.125,23.1875 h 18.25 l 5.15625,-23.1875 h 0.0312 l 6.15625,-27.84375 c 1.63738,-7.39387 -3.0745,-13.46875 -10.46875,-13.46875 H 253.7186 l 4.9375,-22.25 h -18.25 z"
       transform="matrix(0.8,0,0,-0.8,0,213)"
       id="path56"
       style="fill:#66ccff;fill-opacity:1;fill-rule:evenodd;stroke:none" /><path
       d="m 295.5762,70.1291 h -48.6264 c -5.9148,0 -9.6829,4.841 -8.3727,10.7552 l 1.9593,8.8456 h 0.009 l 0.3767,1.701 c 1.3093,5.9137 7.2238,10.7572 13.1372,10.7547 l 34.0239,-0.0153 0.502,2.2586 c 0.5341,2.948 -1.3243,5.3371 -4.2465,5.4567 h -39.3863 l 2.7113,12.2335 48.8784,-0.0139 c 5.7932,-0.1142 9.4564,-4.9068 8.1621,-10.7512 l -0.9199,-4.152 h 0.008 l -1.1166,-5.038 h 0.0108 l -5.7356,-25.8803 h -0.0108 l -1.364,-6.1546 z m -37.7978,12.2395 h 25.9047 l 1.6844,7.5784 h -25.4614 c -0.1224,0.0125 -0.2486,0.0196 -0.3773,0.0196 v 0 c -2.0857,0 -4.168,-1.7059 -4.6278,-3.7914 v 0 c -0.455,-2.0613 0.8382,-3.7511 2.8811,-3.7913 -0.001,-0.0051 -0.002,-0.0105 -0.004,-0.0153"
       id="path64"
       style="fill:#66ccff;fill-opacity:1;fill-rule:evenodd;stroke:none" /><g
       id="g112" /><g
       transform="translate(61.236524,106.16114)"
       id="g124"><g
         clip-path="url(#clipPath128)"
         id="g126"><g
           transform="matrix(136.89723,0,0,105.04488,45.2072,62.9932)"
           id="g132" /></g></g></g></svg>
