<svg height="100" viewBox="0 0 100 100" width="100" xmlns="http://www.w3.org/2000/svg"><path d="m73.36 77.52-37-11.42-.04-10.4 45.04 4.92z" fill="#2e73b8"/><path d="m81.14 48.34-36.47.53v8.31l36.47 3.42z" fill="#19486f"/><path d="m26.73 22.43 37 11.42-.05 10.45-44.94-4.97z" fill="#2e73b8"/><path d="m18.96 51.6 36.46-.52v-8.31l-36.46-3.42z" fill="#99bce3"/><path d="m41.1 50.84-20.78.2v14.61l20.78-2.91z" fill="#5294cf"/><path d="m79.6 44.72-20.55.97v-8.56l20.55-2.9z" fill="#205b99"/><path d="m39.81 14.02h20.43v16.31h-20.43z" fill="#2e73b8"/><path d="m39.88 70.07h20.36v15.91h-20.36z" fill="#2e73b8"/><path d="m84 25.94-23.76-11.89-10.25 11.29 29.61 8.89v10.49l-29.61-2.97v16.51l21.62-2.18v-6.06l4.35 5.63 3.64 4.7.09.11-.09.13-3.63 6.16-4.36 7.39v-6.08l-21.62 6.46 10.38 11.33 23.63-11.82v-9.6-28.9z" fill="#5294cf"/><path d="m20.32 55.27 29.67 2.99v-16.51l-21.4 2.15v6.14l-4.46-5.7-3.81-4.87 3.83-6.37 4.44-7.4v6.07l21.4-6.4v-.03l-10.18-11.32-23.81 11.91v9.6 28.82 9.69l23.88 11.94 10.11-11.46-29.67-8.87z" fill="#205b99"/><path d="m79.6 34.23-20.55 2.9-30.46-5.36 21.4-6.43z" fill="#19486f"/><path d="m71.61 68.06-30.51-5.32-20.78 2.91 29.67 8.87z" fill="#99bce3"/></svg>