<?xml version="1.0" encoding="UTF-8"?>
<svg version="1.1" xmlns="http://www.w3.org/2000/svg" width="1916" height="892">
<path d="M0 0 C632.28 0 1264.56 0 1916 0 C1916 294.36 1916 588.72 1916 892 C1283.72 892 651.44 892 0 892 C0 597.64 0 303.28 0 0 Z " fill="#F9FAFB" transform="translate(0,0)"/>
<path d="M0 0 C1.26481201 -0.0157608 2.52962402 -0.03152161 3.83276367 -0.04776001 C5.20492426 -0.0388099 6.57707687 -0.02855483 7.94921875 -0.01708984 C9.36499447 -0.02046076 10.78076736 -0.02531568 12.1965332 -0.03158569 C15.1589726 -0.03894429 18.12065649 -0.02828592 21.08300781 -0.00488281 C24.87309401 0.02360643 28.66140998 0.00719672 32.45143127 -0.02274513 C35.37354783 -0.04084675 38.29524732 -0.03504742 41.21737671 -0.02210617 C42.61437186 -0.01877997 44.01140536 -0.02283166 45.40835571 -0.03450394 C47.36337522 -0.04725582 49.31852818 -0.0243601 51.2734375 0 C52.93959106 0.00596695 52.93959106 0.00596695 54.6394043 0.01205444 C58.629294 0.85722891 60.13581382 2.48619328 62.63671875 5.64697266 C63.27163696 7.65722656 63.27163696 7.65722656 63.28369141 9.62353516 C63.29945221 10.36780762 63.31521301 11.11208008 63.33145142 11.87890625 C63.32133026 12.66861816 63.31120911 13.45833008 63.30078125 14.27197266 C63.30556488 15.09648926 63.31034851 15.92100586 63.3152771 16.77050781 C63.31866997 18.50864578 63.30951028 20.24684809 63.28857422 21.98486328 C63.26179604 24.63931091 63.28833871 27.28953091 63.3203125 29.94384766 C63.31700829 31.63656528 63.31060181 33.32928029 63.30078125 35.02197266 C63.31596298 36.20654053 63.31596298 36.20654053 63.33145142 37.41503906 C63.31569061 38.15931152 63.29992981 38.90358398 63.28369141 39.67041016 C63.27772446 40.64373291 63.27772446 40.64373291 63.27163696 41.63671875 C62.22620949 44.94671147 60.30505299 46.50662244 57.63671875 48.64697266 C54.6394043 49.28189087 54.6394043 49.28189087 51.2734375 49.29394531 C49.37621948 49.31758652 49.37621948 49.31758652 47.44067383 49.34170532 C46.06851324 49.33275522 44.69636063 49.32250014 43.32421875 49.31103516 C41.90844303 49.31440608 40.49267014 49.319261 39.0769043 49.32553101 C36.1144649 49.3328896 33.15278101 49.32223123 30.19042969 49.29882812 C26.40034349 49.27033889 22.61202752 49.28674859 18.82200623 49.31669044 C15.89988967 49.33479207 12.97819018 49.32899273 10.05606079 49.31605148 C8.65906564 49.31272528 7.26203214 49.31677697 5.86508179 49.32844925 C3.91006228 49.34120113 1.95490932 49.31830541 0 49.29394531 C-1.66615356 49.28797836 -1.66615356 49.28797836 -3.3659668 49.28189087 C-7.3558565 48.4367164 -8.86237632 46.80775203 -11.36328125 43.64697266 C-11.99819946 41.63671875 -11.99819946 41.63671875 -12.01025391 39.67041016 C-12.02601471 38.9261377 -12.04177551 38.18186523 -12.05801392 37.41503906 C-12.04789276 36.62532715 -12.03777161 35.83561523 -12.02734375 35.02197266 C-12.03212738 34.19745605 -12.03691101 33.37293945 -12.0418396 32.5234375 C-12.04523247 30.78529953 -12.03607278 29.04709722 -12.01513672 27.30908203 C-11.98835854 24.6546344 -12.01490121 22.00441441 -12.046875 19.35009766 C-12.04357079 17.65738003 -12.03716431 15.96466502 -12.02734375 14.27197266 C-12.0374649 13.48226074 -12.04758606 12.69254883 -12.05801392 11.87890625 C-12.04225311 11.13463379 -12.02649231 10.39036133 -12.01025391 9.62353516 C-12.00627594 8.97465332 -12.00229797 8.32577148 -11.99819946 7.65722656 C-10.11748835 1.70259053 -5.76909521 0.0206607 0 0 Z " fill="#0E6FFD" transform="translate(933.36328125,388.35302734375)"/>
<path d="M0 0 C16 0 16 0 22 3 C26.54718349 7.91587405 27.36848648 11.85242623 27.2734375 18.36328125 C26.68119774 24.07416462 24.45085128 27.68104429 20.25 31.5 C16 33 16 33 0 33 C0 22.11 0 11.22 0 0 Z " fill="#0A0A0A" transform="translate(764,125)"/>
<path d="M0 0 C15 0 15 0 21 3 C25.90864867 8.43931339 26.29216677 11.8331753 26.21484375 19.015625 C25.84311424 24.17928578 24.22443142 26.89502531 20.4375 30.3125 C13.11344781 35.38299767 13.29867759 33 0 33 C0 22.11 0 11.22 0 0 Z " fill="#050505" transform="translate(919,125)"/>
<path d="M0 0 C0 1.65 0 3.3 0 5 C-1.65 5.33 -3.3 5.66 -5 6 C-4.505 6.37125 -4.01 6.7425 -3.5 7.125 C-2 9 -2 9 -1.4375 11.875 C-2.0782316 15.43461998 -3.24212395 16.9330976 -6.1328125 19.09765625 C-9.453915 20.70262419 -12.37431321 20.31255921 -16 20 C-15.67 20.66 -15.34 21.32 -15 22 C-12.80809197 22.3164318 -12.80809197 22.3164318 -10.25 22.375 C-6.76015897 22.66998656 -5.0205741 22.98888998 -1.875 24.6875 C0 27 0 27 0.625 29.9375 C-0.19361253 33.94870142 -1.89968414 35.41640345 -5 38 C-7.79731805 39.39865903 -10.19284559 39.24537267 -13.3125 39.3125 C-14.44300781 39.34988281 -15.57351563 39.38726562 -16.73828125 39.42578125 C-20.67536903 38.91183805 -22.30661163 37.88541231 -25 35 C-25 33.68 -25 32.36 -25 31 C-22.69 31 -20.38 31 -18 31 C-17.67 31.66 -17.34 32.32 -17 33 C-14.03 33 -11.06 33 -8 33 C-8.33 31.68 -8.66 30.36 -9 29 C-9.67546875 28.96261719 -10.3509375 28.92523438 -11.046875 28.88671875 C-11.93890625 28.82097656 -12.8309375 28.75523437 -13.75 28.6875 C-14.63171875 28.62949219 -15.5134375 28.57148438 -16.421875 28.51171875 C-19.32303774 27.9358819 -20.79225607 26.92403852 -23 25 C-22.835 24.236875 -22.67 23.47375 -22.5 22.6875 C-21.75546191 18.68560777 -21.68050495 17.47924258 -24 14 C-24.5 10.625 -24.5 10.625 -24 7 C-21.23791301 3.56605402 -19.63740115 2.27644435 -15.29296875 1.54296875 C-13.39383026 1.39296986 -11.49031628 1.288958 -9.5859375 1.23828125 C-6.98732758 1.15789756 -6.98732758 1.15789756 -4.8515625 -0.08203125 C-3 -1 -3 -1 0 0 Z " fill="#090909" transform="translate(832,130)"/>
<path d="M0 0 C0.886875 0.37125 1.77375 0.7425 2.6875 1.125 C3.450625 1.41375 4.21375 1.7025 5 2 C5.99 1.34 6.98 0.68 8 0 C11.359276 -0.42884375 13.2546725 -0.45228132 16.17578125 1.3203125 C19.12285447 5.64941792 18.41823477 10.15119223 18.25 15.25 C18.23195313 16.28125 18.21390625 17.3125 18.1953125 18.375 C18.14822712 20.91761064 18.0824805 23.45833162 18 26 C15.36 26 12.72 26 10 26 C10 19.4 10 12.8 10 6 C8.35 6.66 6.7 7.32 5 8 C4.67 13.94 4.34 19.88 4 26 C1.69 26 -0.62 26 -3 26 C-3.33 19.73 -3.66 13.46 -4 7 C-5.32 7.33 -6.64 7.66 -8 8 C-8.33 13.94 -8.66 19.88 -9 26 C-11.64 26 -14.28 26 -17 26 C-17 17.75 -17 9.5 -17 1 C-14.69 1 -12.38 1 -10 1 C-10 1.66 -10 2.32 -10 3 C-9.46375 2.505 -8.9275 2.01 -8.375 1.5 C-5.31967818 -0.42967694 -3.56582273 -0.36385946 0 0 Z " fill="#0A0A0A" transform="translate(993,132)"/>
<path d="M0 0 C3.4480321 1.23608698 5.41819999 2.36001999 7.875 5.0625 C9.98053338 10.56028161 9.69065666 15.88966019 7.875 21.4375 C5.180601 25.1198453 2.53490551 26.54462775 -1.95703125 27.3515625 C-5.80947905 27.63147267 -8.28734367 27.19978551 -11.375 24.8125 C-15.458381 20.43744893 -16.48001008 17.03788145 -16.3203125 10.9921875 C-15.64907999 6.81744871 -13.03964871 4.11390933 -10.25 1.125 C-6.86630053 -0.56684973 -3.66151204 -0.51501036 0 0 Z " fill="#0B0B0B" transform="translate(1031,132)"/>
<path d="M0 0 C3.10352458 1.60923497 5.21701424 3.00347267 7.375 5.75 C8 8 8 8 8 16 C2.72 16 -2.56 16 -8 16 C-7.34 17.32 -6.68 18.64 -6 20 C-2.37 20 1.26 20 5 20 C5.66 21.32 6.32 22.64 7 24 C2.98334349 27.21332521 -0.5847592 27.57363272 -5.55859375 27.41796875 C-9.65677189 26.71636065 -11.2477821 25.09624514 -14 22 C-16.38729583 17.98500246 -16.73574784 13.57599269 -16 9 C-12.25204255 1.90565197 -8.24588967 -1.44303069 0 0 Z " fill="#0F0F10" transform="translate(964,132)"/>
<path d="M0 0 C2.39923079 1.96300701 3.88772358 3.61551243 4.3972168 6.74047852 C4.43500244 7.50803467 4.47278809 8.27559082 4.51171875 9.06640625 C4.55490234 9.90494141 4.59808594 10.74347656 4.64257812 11.60742188 C4.69575195 12.91549805 4.69575195 12.91549805 4.75 14.25 C4.79705078 15.12591797 4.84410156 16.00183594 4.89257812 16.90429688 C5.19835283 23.41579433 5.19835283 23.41579433 4.0625 25.6875 C-0.6875 24.8125 -0.6875 24.8125 -2.9375 23.6875 C-3.7728125 24.1515625 -3.7728125 24.1515625 -4.625 24.625 C-7.90999093 26.13432016 -10.36556534 26.07020728 -13.9375 25.6875 C-16.375 24.125 -16.375 24.125 -17.9375 21.6875 C-18.4375 18.1875 -18.4375 18.1875 -17.9375 14.6875 C-16.07041495 12.32252561 -14.61688569 11.02719285 -11.9375 9.6875 C-9.2651379 9.55334528 -6.61499512 9.64431459 -3.9375 9.6875 C-4.2675 8.3675 -4.5975 7.0475 -4.9375 5.6875 C-8.2375 5.6875 -11.5375 5.6875 -14.9375 5.6875 C-15.2675 3.7075 -15.5975 1.7275 -15.9375 -0.3125 C-10.55977072 -1.82460528 -5.1683763 -2.30927452 0 0 Z " fill="#0D0D0D" transform="translate(1101.9375,133.3125)"/>
<path d="M0 0 C5.6 2.2 5.6 2.2 7 5 C7.2646988 8.41167348 7.44415224 11.81685496 7.60546875 15.234375 C7.73687954 19.24751603 7.73687954 19.24751603 9 23 C8.5625 25.125 8.5625 25.125 8 27 C7.2575 26.835 6.515 26.67 5.75 26.5 C1.80892308 25.78344056 -1.55872753 26.0932129 -5.4375 26.8125 C-9.16947782 27.23813053 -9.77593689 27.14340039 -13.125 25 C-15 22 -15 22 -15.125 18.4375 C-13.76032291 14.26765334 -12.88944224 13.02575117 -9 11 C-5.96733964 10.69013018 -3.03568012 10.76190744 0 11 C-0.33 9.68 -0.66 8.36 -1 7 C-4.3 7 -7.6 7 -11 7 C-11.66 5.35 -12.32 3.7 -13 2 C-8.65833656 -0.46551476 -4.89707312 -0.5676538 0 0 Z " fill="#0A0A0A" transform="translate(880,132)"/>
<path d="M0 0 C2.64 0 5.28 0 8 0 C8.50377768 2.26999825 9.00290019 4.54103003 9.5 6.8125 C9.7784375 8.07707031 10.056875 9.34164062 10.34375 10.64453125 C11 14 11 14 11 17 C11.66 17 12.32 17 13 17 C14.32 11.39 15.64 5.78 17 0 C19.64 0 22.28 0 25 0 C23.82818272 3.88358403 22.63738504 7.76079596 21.42944336 11.63330078 C21.02196456 12.94877843 20.61951749 14.26582649 20.22241211 15.58447266 C15.37531323 31.65227095 15.37531323 31.65227095 8.4375 35.375 C6 36 6 36 2 36 C2 34.02 2 32.04 2 30 C2.969375 29.525625 3.93875 29.05125 4.9375 28.5625 C7.80477437 27.29806053 7.80477437 27.29806053 9 26 C8.34 25.67 7.68 25.34 7 25 C3.62152047 17.5864943 0 8.21037258 0 0 Z " fill="#080808" transform="translate(1132,133)"/>
<path d="M0 0 C2.64 0 5.28 0 8 0 C8 1.98 8 3.96 8 6 C9.65 6 11.3 6 13 6 C13 7.65 13 9.3 13 11 C11.35 11 9.7 11 8 11 C8 15.95 8 20.9 8 26 C9.65 26 11.3 26 13 26 C13.66 27.32 14.32 28.64 15 30 C11.35969312 32.3297964 8.24881273 32.3862557 4 32 C1.38406847 30.16884793 1.03010545 29.09031634 0 26 C-0.07029121 23.42734182 -0.09370832 20.88358569 -0.0625 18.3125 C-0.05798828 17.61060547 -0.05347656 16.90871094 -0.04882812 16.18554688 C-0.03706927 14.45699462 -0.01913454 12.72848635 0 11 C-1.32 11 -2.64 11 -4 11 C-4 9.35 -4 7.7 -4 6 C-2.68 6 -1.36 6 0 6 C0 4.02 0 2.04 0 0 Z " fill="#0B0B0B" transform="translate(850,127)"/>
<path d="M0 0 C2.9375 1.5 2.9375 1.5 5 3 C4.34 4.32 3.68 5.64 3 7 C0.98177083 6.90234375 -1.03645833 6.8046875 -3.0546875 6.70703125 C-4.01761719 6.85205078 -4.01761719 6.85205078 -5 7 C-7.45811625 10.68717438 -7.31118164 12.64345704 -7 17 C-6.34 17.99 -5.68 18.98 -5 20 C-3.02252878 20.36297936 -3.02252878 20.36297936 -0.875 20.1875 C0.40375 20.125625 1.6825 20.06375 3 20 C3.66 21.65 4.32 23.3 5 25 C0.79372184 27.10313908 -3.36516006 27.88887341 -8 27 C-11.31260462 25.23813117 -13.48838926 22.88369127 -15.375 19.625 C-16.48001749 14.98392654 -16.46885751 11.32842962 -14.875 6.8125 C-11.03877418 1.05816127 -6.83888079 -0.87040301 0 0 Z " fill="#0A0A0A" transform="translate(1126,132)"/>
<path d="M0 0 C-0.33 1.32 -0.66 2.64 -1 4 C-4.08399675 4.91377681 -6.79865843 5 -10 5 C-11.27870382 6.05600378 -11.27870382 6.05600378 -11.1328125 8.46875 C-11.13023438 9.4690625 -11.12765625 10.469375 -11.125 11.5 C-11.12757812 12.5003125 -11.13015625 13.500625 -11.1328125 14.53125 C-11.27870382 16.94399622 -11.27870382 16.94399622 -10 18 C-7.96960598 17.96777152 -5.93871908 17.93188381 -3.91015625 17.83984375 C-2 18 -2 18 0 20 C0 20.99 0 21.98 0 23 C-4.14252247 25.00849574 -7.4150158 25.48262992 -12 25 C-16.01416449 22.87930932 -18.35289413 21.22681963 -20 17 C-20.69128923 11.67868061 -20.63165723 7.28587364 -18.25 2.4375 C-13.02412556 -3.22386398 -6.88736375 -3.33932788 0 0 Z " fill="#090909" transform="translate(1064,134)"/>
<path d="M0 0 C2.31 0 4.62 0 7 0 C7.33 9.9 7.66 19.8 8 30 C8.66 30.33 9.32 30.66 10 31 C10.6875 33.5 10.6875 33.5 11 36 C10 37 10 37 6.625 37.3125 C3 37 3 37 1.29174805 35.45605469 C-0.46713242 32.11182156 -0.37429702 29.07359221 -0.29296875 25.390625 C-0.28872391 24.66381531 -0.28447906 23.93700562 -0.28010559 23.18817139 C-0.2633613 20.87506496 -0.22571885 18.56284145 -0.1875 16.25 C-0.17244758 14.67839803 -0.15876015 13.10678236 -0.14648438 11.53515625 C-0.11347195 7.68976585 -0.06172056 3.84503244 0 0 Z " fill="#020202" transform="translate(893,122)"/>
<path d="M0 0 C-0.33 2.31 -0.66 4.62 -1 7 C-2.2065625 7.4640625 -2.2065625 7.4640625 -3.4375 7.9375 C-5.89080405 8.76335345 -5.89080405 8.76335345 -7 10 C-7.23678716 12.69235776 -7.42198025 15.36498156 -7.5625 18.0625 C-7.60568359 18.82111328 -7.64886719 19.57972656 -7.69335938 20.36132812 C-7.79973633 22.24065438 -7.90039934 24.12030244 -8 26 C-10.64 26 -13.28 26 -16 26 C-16 17.75 -16 9.5 -16 1 C-13.69 1 -11.38 1 -9 1 C-8.67 1.66 -8.34 2.32 -8 3 C-7.608125 2.505 -7.21625 2.01 -6.8125 1.5 C-4.44908285 -0.45593143 -2.98564997 -0.24207973 0 0 Z " fill="#090909" transform="translate(1084,132)"/>
<path d="M0 0 C7 0 7 0 9.4375 1.8125 C11.75341404 6.53696465 11.75096692 10.83613471 11 16 C9.4375 19.1875 9.4375 19.1875 7 21 C4.69 21 2.38 21 0 21 C0 14.07 0 7.14 0 0 Z " fill="#E7E8E9" transform="translate(926,131)"/>
<path d="M0 0 C7 0 7 0 9.4375 1.9375 C11.98658083 6.93369843 11.70679865 11.62717597 10.125 16.9375 C9 19 9 19 7 21 C4.69 21 2.38 21 0 21 C0 14.07 0 7.14 0 0 Z " fill="#EAEBEC" transform="translate(772,131)"/>
<path d="M0 0 C2.64 0 5.28 0 8 0 C8 8.25 8 16.5 8 25 C5.36 25 2.72 25 0 25 C0 16.75 0 8.5 0 0 Z " fill="#0E0E0E" transform="translate(835,133)"/>
<path d="M0 0 C2.64 0 5.28 0 8 0 C8 8.25 8 16.5 8 25 C5.36 25 2.72 25 0 25 C0 16.75 0 8.5 0 0 Z " fill="#0E0E0E" transform="translate(795,133)"/>
<path d="M0 0 C2.96875 -0.36328125 2.96875 -0.36328125 6.5 -0.3125 C8.24796875 -0.30669922 8.24796875 -0.30669922 10.03125 -0.30078125 C13 0 13 0 15 2 C15.125 5.625 15.125 5.625 15 9 C14.67 8.01 14.34 7.02 14 6 C12.68 6.33 11.36 6.66 10 7 C9.67 8.32 9.34 9.64 9 11 C4.545 11.495 4.545 11.495 0 12 C-2.31332486 8.53001271 -2.33957563 7.07490752 -2 3 C-1.34 2.01 -0.68 1.02 0 0 Z " fill="#BBBDBF" transform="translate(678,219)"/>
<path d="M0 0 C0.99 0 1.98 0 3 0 C3 0.66 3 1.32 3 2 C5.31 2 7.62 2 10 2 C10 5.96 10 9.92 10 14 C3.9453125 14.1953125 3.9453125 14.1953125 2 14 C-0.46469381 11.53530619 -0.38543894 10.4068526 -0.6875 7 C-0.77386719 6.113125 -0.86023437 5.22625 -0.94921875 4.3125 C-1 2 -1 2 0 0 Z " fill="#9C9FA1" transform="translate(1118,292)"/>
<path d="M0 0 C2.5 -0.3125 2.5 -0.3125 5 0 C7 2 7 2 7.265625 4.53125 C7.26046875 5.5109375 7.2553125 6.490625 7.25 7.5 C7.25515625 8.4796875 7.2603125 9.459375 7.265625 10.46875 C7 13 7 13 5 15 C2.375 15.125 2.375 15.125 0 15 C-2.61881031 11.07178453 -2.28987737 7.56556861 -2 3 C-1.34 2.01 -0.68 1.02 0 0 Z " fill="#EFF0F1" transform="translate(1025,138)"/>
<path d="M0 0 C-0.75 6.75 -0.75 6.75 -3 9 C-2.484375 9.4125 -1.96875 9.825 -1.4375 10.25 C0 12 0 12 -0.1875 14.125 C-1 16 -1 16 -3 17 C-4.99960012 17.039992 -7.00047242 17.04346799 -9 17 C-9.33 16.01 -9.66 15.02 -10 14 C-7.69 14.33 -5.38 14.66 -3 15 C-4.39195915 12.2160817 -6.15575779 12.02101003 -9 11 C-9.9765625 4.9453125 -9.9765625 4.9453125 -10 3 C-7.14414946 0.14414946 -3.95889689 0 0 0 Z " fill="#393D40" transform="translate(1152,293)"/>
<path d="M0 0 C0.66 0 1.32 0 2 0 C2.33 0.99 2.66 1.98 3 3 C3.804375 3.144375 4.60875 3.28875 5.4375 3.4375 C8 4 8 4 9 5 C9.35897436 11.46153846 9.35897436 11.46153846 7 15 C4.69 15 2.38 15 0 15 C0 10.05 0 5.1 0 0 Z " fill="#525558" transform="translate(1216,216)"/>
<path d="M0 0 C0.66 0 1.32 0 2 0 C2.33 0.99 2.66 1.98 3 3 C3.804375 3.12375 4.60875 3.2475 5.4375 3.375 C6.7059375 3.684375 6.7059375 3.684375 8 4 C9.38550197 6.77100394 9.1877467 8.9334706 9 12 C8.01 13.485 8.01 13.485 7 15 C4.69 15 2.38 15 0 15 C0 10.05 0 5.1 0 0 Z " fill="#45484C" transform="translate(943,291)"/>
<path d="M0 0 C9.1796875 -0.1953125 9.1796875 -0.1953125 12 0 C14 2 14 2 14.1953125 4.3828125 C14.17210937 5.28773438 14.14890625 6.19265625 14.125 7.125 C14.10695313 8.03507812 14.08890625 8.94515625 14.0703125 9.8828125 C14.04710937 10.58148438 14.02390625 11.28015625 14 12 C13.01 12 12.02 12 11 12 C11 8.7 11 5.4 11 2 C10.01 2.495 10.01 2.495 9 3 C8.53348793 5.12576782 8.53348793 5.12576782 8.375 7.5625 C8.30023437 8.38878906 8.22546875 9.21507812 8.1484375 10.06640625 C8.09945312 10.70449219 8.05046875 11.34257812 8 12 C7.01 12 6.02 12 5 12 C5 8.7 5 5.4 5 2 C4.01 2.495 4.01 2.495 3 3 C2.53348793 5.12576782 2.53348793 5.12576782 2.375 7.5625 C2.30023437 8.38878906 2.22546875 9.21507812 2.1484375 10.06640625 C2.09945312 10.70449219 2.05046875 11.34257812 2 12 C1.34 12 0.68 12 0 12 C0 8.04 0 4.08 0 0 Z " fill="#34383B" transform="translate(926,294)"/>
<path d="M0 0 C0.66 0 1.32 0 2 0 C2 4.95 2 9.9 2 15 C-0.31 15 -2.62 15 -5 15 C-7.31332486 11.53001271 -7.33957563 10.07490752 -7 6 C-6.34 5.01 -5.68 4.02 -5 3 C-3.68 3 -2.36 3 -1 3 C-0.67 2.01 -0.34 1.02 0 0 Z " fill="#4B4E52" transform="translate(1038,216)"/>
<path d="M0 0 C2.83181098 -0.43566323 4.36063578 -0.39684676 6.8125 1.125 C8.55198782 3.87155972 8.39769128 5.81846974 8 9 C6.8125 10.875 6.8125 10.875 5 12 C2.4375 12.375 2.4375 12.375 0 12 C-2.31332486 8.53001271 -2.33957563 7.07490752 -2 3 C-1.34 2.01 -0.68 1.02 0 0 Z " fill="#45484C" transform="translate(987,294)"/>
<path d="M0 0 C2.83181098 -0.43566323 4.36063578 -0.39684676 6.8125 1.125 C8.55198782 3.87155972 8.39769128 5.81846974 8 9 C6.8125 10.875 6.8125 10.875 5 12 C2.4375 12.375 2.4375 12.375 0 12 C-2.31332486 8.53001271 -2.33957563 7.07490752 -2 3 C-1.34 2.01 -0.68 1.02 0 0 Z " fill="#45484C" transform="translate(832,294)"/>
<path d="M0 0 C2.31 0 4.62 0 7 0 C8.58894072 1.58894072 8.16998411 3.24801424 8.1875 5.4375 C8.20167969 6.24058594 8.21585938 7.04367188 8.23046875 7.87109375 C8 10 8 10 6 12 C4.68 12 3.36 12 2 12 C2 13.32 2 14.64 2 16 C1.34 16 0.68 16 0 16 C0 10.72 0 5.44 0 0 Z " fill="#3F4346" transform="translate(982,189)"/>
<path d="M0 0 C2.5 0.25 2.5 0.25 4.5 2.25 C4.765625 4.125 4.765625 4.125 4.75 6.25 C4.75515625 6.95125 4.7603125 7.6525 4.765625 8.375 C4.5 10.25 4.5 10.25 2.5 12.25 C0 12.5 0 12.5 -2.5 12.25 C-4.5 10.25 -4.5 10.25 -4.765625 8.375 C-4.76046875 7.67375 -4.7553125 6.9725 -4.75 6.25 C-4.75515625 5.54875 -4.7603125 4.8475 -4.765625 4.125 C-4.31971142 0.97737476 -3.03899237 0.30389924 0 0 Z " fill="#393C40" transform="translate(1110.5,293.75)"/>
<path d="M0 0 C2.5 0.25 2.5 0.25 4.5 2.25 C4.765625 4.125 4.765625 4.125 4.75 6.25 C4.75515625 6.95125 4.7603125 7.6525 4.765625 8.375 C4.5 10.25 4.5 10.25 2.5 12.25 C0 12.5 0 12.5 -2.5 12.25 C-4.5 10.25 -4.5 10.25 -4.765625 8.375 C-4.76046875 7.67375 -4.7553125 6.9725 -4.75 6.25 C-4.75515625 5.54875 -4.7603125 4.8475 -4.765625 4.125 C-4.31971142 0.97737476 -3.03899237 0.30389924 0 0 Z " fill="#393C40" transform="translate(1064.5,293.75)"/>
<path d="M0 0 C1.98 0 3.96 0 6 0 C8 2 8 2 8.265625 3.875 C8.26046875 4.57625 8.2553125 5.2775 8.25 6 C8.25515625 6.70125 8.2603125 7.4025 8.265625 8.125 C8 10 8 10 6 12 C4.68 12 3.36 12 2 12 C2 13.32 2 14.64 2 16 C1.34 16 0.68 16 0 16 C0 10.72 0 5.44 0 0 Z " fill="#505457" transform="translate(599,189)"/>
<path d="M0 0 C2.5 0.25 2.5 0.25 4.5 2.25 C4.81537716 6.58643601 4.94897847 8.57653229 2.5 12.25 C0 12.5625 0 12.5625 -2.5 12.25 C-4.5 10.25 -4.5 10.25 -4.765625 8.375 C-4.76046875 7.67375 -4.7553125 6.9725 -4.75 6.25 C-4.75515625 5.54875 -4.7603125 4.8475 -4.765625 4.125 C-4.31971142 0.97737476 -3.03899237 0.30389924 0 0 Z " fill="#424649" transform="translate(878.5,293.75)"/>
<path d="M0 0 C0.66 0 1.32 0 2 0 C2 0.99 2 1.98 2 3 C2.804375 3.144375 3.60875 3.28875 4.4375 3.4375 C7 4 7 4 8 5 C8.27314815 10.73611111 8.27314815 10.73611111 8 13 C7.34 13.66 6.68 14.32 6 15 C4.02 15 2.04 15 0 15 C0 10.05 0 5.1 0 0 Z " fill="#525559" transform="translate(613,216)"/>
<path d="M0 0 C0.99 0 1.98 0 3 0 C3.66 1.98 4.32 3.96 5 6 C7.10232344 3.1315587 7.10232344 3.1315587 8 0 C8.99 0 9.98 0 11 0 C12.20568053 4.67201205 12.09382426 9.21496292 12 14 C11.34 14 10.68 14 10 14 C9.67 11.69 9.34 9.38 9 7 C8.34 8.65 7.68 10.3 7 12 C6.01 12 5.02 12 4 12 C3.34 9.69 2.68 7.38 2 5 C1.67 7.97 1.34 10.94 1 14 C0.34 14 -0.32 14 -1 14 C-1.18451025 4.58997722 -1.18451025 4.58997722 0 0 Z " fill="#606367" transform="translate(841,217)"/>
<path d="M0 0 C0 0.66 0 1.32 0 2 C-0.99 2.495 -0.99 2.495 -2 3 C-2 3.763125 -2 4.52625 -2 5.3125 C-2 7.20833333 -2 9.10416667 -2 11 C-1.814375 11.86625 -1.62875 12.7325 -1.4375 13.625 C-1.293125 14.40875 -1.14875 15.1925 -1 16 C-2 17 -2 17 -5.5625 17.0625 C-6.696875 17.041875 -7.83125 17.02125 -9 17 C-9.33 16.01 -9.66 15.02 -10 14 C-7.69 14.33 -5.38 14.66 -3 15 C-3 14.01 -3 13.02 -3 12 C-4.65 12 -6.3 12 -8 12 C-9.04005702 8.61981469 -9.08004482 5.5219721 -9 2 C-2.25 0 -2.25 0 0 0 Z " fill="#404447" transform="translate(739,218)"/>
<path d="M0 0 C0.66 0 1.32 0 2 0 C2 4.95 2 9.9 2 15 C0.02 15 -1.96 15 -4 15 C-6 13 -6 13 -6.265625 11.125 C-6.26046875 10.42375 -6.2553125 9.7225 -6.25 9 C-6.25515625 8.29875 -6.2603125 7.5975 -6.265625 6.875 C-6 5 -6 5 -4 3 C-2.68 3 -1.36 3 0 3 C0 2.01 0 1.02 0 0 Z " fill="#4F5356" transform="translate(1285,186)"/>
<path d="M0 0 C1.2375 0.1546875 1.2375 0.1546875 2.5 0.3125 C4.81282587 3.78173881 4.92478586 5.23455575 4.5 9.3125 C3.3125 11.25 3.3125 11.25 1.5 12.3125 C-2.92105263 11.89144737 -2.92105263 11.89144737 -4.5 10.3125 C-4.77314815 4.57638889 -4.77314815 4.57638889 -4.5 2.3125 C-2.5 0.3125 -2.5 0.3125 0 0 Z " fill="#D6E6FE" transform="translate(955.5,407.6875)"/>
<path d="M0 0 C3.0625 0.25 3.0625 0.25 6 1 C7.39935013 3.79870027 7.25265405 5.90498792 7 9 C5.8125 10.9375 5.8125 10.9375 4 12 C-0.42105263 11.57894737 -0.42105263 11.57894737 -2 10 C-2.27314815 4.26388889 -2.27314815 4.26388889 -2 2 C-1.34 1.34 -0.68 0.68 0 0 Z " fill="#4D5054" transform="translate(1057,219)"/>
<path d="M0 0 C2.5 -0.375 2.5 -0.375 5 0 C7.31332486 3.46998729 7.33957563 4.92509248 7 9 C6.01 10.485 6.01 10.485 5 12 C2.5 12.375 2.5 12.375 0 12 C-2.31332486 8.53001271 -2.33957563 7.07490752 -2 3 C-1.34 2.01 -0.68 1.02 0 0 Z " fill="#4C4F52" transform="translate(803,219)"/>
<path d="M0 0 C2.5 -0.375 2.5 -0.375 5 0 C7.31332486 3.46998729 7.33957563 4.92509248 7 9 C6.01 10.485 6.01 10.485 5 12 C2.5 12.375 2.5 12.375 0 12 C-2.31332486 8.53001271 -2.33957563 7.07490752 -2 3 C-1.34 2.01 -0.68 1.02 0 0 Z " fill="#4C4F52" transform="translate(757,219)"/>
<path d="M0 0 C2.5 -0.375 2.5 -0.375 5 0 C7.31332486 3.46998729 7.33957563 4.92509248 7 9 C6.01 10.485 6.01 10.485 5 12 C2.5 12.375 2.5 12.375 0 12 C-2.31332486 8.53001271 -2.33957563 7.07490752 -2 3 C-1.34 2.01 -0.68 1.02 0 0 Z " fill="#4C4F52" transform="translate(643,219)"/>
<path d="M0 0 C2.5 -0.375 2.5 -0.375 5 0 C7.31332486 3.46998729 7.33957563 4.92509248 7 9 C6.01 10.485 6.01 10.485 5 12 C2.5 12.375 2.5 12.375 0 12 C-2.31332486 8.53001271 -2.33957563 7.07490752 -2 3 C-1.34 2.01 -0.68 1.02 0 0 Z " fill="#4C4F52" transform="translate(1319,189)"/>
<path d="M0 0 C3.0625 0.25 3.0625 0.25 6 1 C7.39935013 3.79870027 7.25265405 5.90498792 7 9 C5.8125 10.9375 5.8125 10.9375 4 12 C-0.42105263 11.57894737 -0.42105263 11.57894737 -2 10 C-2.27314815 4.26388889 -2.27314815 4.26388889 -2 2 C-1.34 1.34 -0.68 0.68 0 0 Z " fill="#4D5054" transform="translate(917,189)"/>
<path d="M0 0 C3.0625 0.25 3.0625 0.25 6 1 C7.39935013 3.79870027 7.25265405 5.90498792 7 9 C5.8125 10.9375 5.8125 10.9375 4 12 C-0.42105263 11.57894737 -0.42105263 11.57894737 -2 10 C-2.27314815 4.26388889 -2.27314815 4.26388889 -2 2 C-1.34 1.34 -0.68 0.68 0 0 Z " fill="#4D5054" transform="translate(871,189)"/>
<path d="M0 0 C2.5 -0.375 2.5 -0.375 5 0 C7.31332486 3.46998729 7.33957563 4.92509248 7 9 C6.01 10.485 6.01 10.485 5 12 C2.5 12.375 2.5 12.375 0 12 C-2.31332486 8.53001271 -2.33957563 7.07490752 -2 3 C-1.34 2.01 -0.68 1.02 0 0 Z " fill="#4C4F52" transform="translate(612,189)"/>
<path d="M0 0 C2.5 -0.375 2.5 -0.375 5 0 C7.31332486 3.46998729 7.33957563 4.92509248 7 9 C6.01 10.485 6.01 10.485 5 12 C2.5 12.375 2.5 12.375 0 12 C-2.31332486 8.53001271 -2.33957563 7.07490752 -2 3 C-1.34 2.01 -0.68 1.02 0 0 Z " fill="#4C4F52" transform="translate(512,189)"/>
<path d="M0 0 C0.66 0 1.32 0 2 0 C2 0.66 2 1.32 2 2 C2.99 2 3.98 2 5 2 C5 2.66 5 3.32 5 4 C4.34 4 3.68 4 3 4 C3 6.64 3 9.28 3 12 C3.66 12 4.32 12 5 12 C5 12.66 5 13.32 5 14 C1.125 13.125 1.125 13.125 0 12 C-0.14115161 9.32941149 -0.04247107 6.67567762 0 4 C-1.65 4.33 -3.3 4.66 -5 5 C-5 7.97 -5 10.94 -5 14 C-5.99 14 -6.98 14 -8 14 C-8 10.04 -8 6.08 -8 2 C-5.33333333 2 -2.66666667 2 0 2 C0 1.34 0 0.68 0 0 Z " fill="#373B3E" transform="translate(1038,292)"/>
<path d="M0 0 C0.33 0 0.66 0 1 0 C1 4.95 1 9.9 1 15 C-0.98 15 -2.96 15 -5 15 C-7 13 -7 13 -7.265625 11.125 C-7.26046875 10.42375 -7.2553125 9.7225 -7.25 9 C-7.25515625 8.29875 -7.2603125 7.5975 -7.265625 6.875 C-7 5 -7 5 -5 3 C-3.68 3 -2.36 3 -1 3 C-0.67 2.01 -0.34 1.02 0 0 Z " fill="#43474A" transform="translate(1149,216)"/>
<path d="M0 0 C0.33 0 0.66 0 1 0 C1 4.95 1 9.9 1 15 C-0.98 15 -2.96 15 -5 15 C-7 13 -7 13 -7.265625 11.125 C-7.26046875 10.42375 -7.2553125 9.7225 -7.25 9 C-7.25515625 8.29875 -7.2603125 7.5975 -7.265625 6.875 C-7 5 -7 5 -5 3 C-3.68 3 -2.36 3 -1 3 C-0.67 2.01 -0.34 1.02 0 0 Z " fill="#43474A" transform="translate(835,186)"/>
<path d="M0 0 C2.375 0.75 2.375 0.75 3.375 1.75 C3.64814815 7.48611111 3.64814815 7.48611111 3.375 9.75 C2.715 10.41 2.055 11.07 1.375 11.75 C-1.92214793 11.42028521 -3.2476839 11.1273161 -5.625 8.75 C-5.96161952 5.5857765 -6.12443411 3.56486618 -4.4375 0.8125 C-2.625 -0.25 -2.625 -0.25 0 0 Z " fill="#4D5154" transform="translate(1192.625,219.25)"/>
<path d="M0 0 C2.375 0.75 2.375 0.75 3.375 1.75 C3.64814815 7.48611111 3.64814815 7.48611111 3.375 9.75 C2.715 10.41 2.055 11.07 1.375 11.75 C-1.92214793 11.42028521 -3.2476839 11.1273161 -5.625 8.75 C-5.96161952 5.5857765 -6.12443411 3.56486618 -4.4375 0.8125 C-2.625 -0.25 -2.625 -0.25 0 0 Z " fill="#4D5154" transform="translate(953.625,219.25)"/>
<path d="M0 0 C2.375 0.75 2.375 0.75 3.375 1.75 C3.64814815 7.48611111 3.64814815 7.48611111 3.375 9.75 C2.715 10.41 2.055 11.07 1.375 11.75 C-1.92214793 11.42028521 -3.2476839 11.1273161 -5.625 8.75 C-5.96161952 5.5857765 -6.12443411 3.56486618 -4.4375 0.8125 C-2.625 -0.25 -2.625 -0.25 0 0 Z " fill="#4D5154" transform="translate(907.625,219.25)"/>
<path d="M0 0 C2.375 0.75 2.375 0.75 3.375 1.75 C3.64814815 7.48611111 3.64814815 7.48611111 3.375 9.75 C2.715 10.41 2.055 11.07 1.375 11.75 C-1.92214793 11.42028521 -3.2476839 11.1273161 -5.625 8.75 C-5.96161952 5.5857765 -6.12443411 3.56486618 -4.4375 0.8125 C-2.625 -0.25 -2.625 -0.25 0 0 Z " fill="#4D5154" transform="translate(762.625,189.25)"/>
<path d="M0 0 C2.375 0.75 2.375 0.75 3.375 1.75 C3.64814815 7.48611111 3.64814815 7.48611111 3.375 9.75 C2.715 10.41 2.055 11.07 1.375 11.75 C-1.92214793 11.42028521 -3.2476839 11.1273161 -5.625 8.75 C-5.96161952 5.5857765 -6.12443411 3.56486618 -4.4375 0.8125 C-2.625 -0.25 -2.625 -0.25 0 0 Z " fill="#4D5154" transform="translate(707.625,189.25)"/>
<path d="M0 0 C3.29714793 0.32971479 4.6226839 0.6226839 7 3 C7.33661952 6.1642235 7.49943411 8.18513382 5.8125 10.9375 C4 12 4 12 1.375 11.75 C-1 11 -1 11 -2 10 C-2.27314815 4.26388889 -2.27314815 4.26388889 -2 2 C-1.34 1.34 -0.68 0.68 0 0 Z " fill="#494C50" transform="translate(1331,189)"/>
<path d="M0 0 C3.29714793 0.32971479 4.6226839 0.6226839 7 3 C7.33661952 6.1642235 7.49943411 8.18513382 5.8125 10.9375 C4 12 4 12 1.375 11.75 C-1 11 -1 11 -2 10 C-2.27314815 4.26388889 -2.27314815 4.26388889 -2 2 C-1.34 1.34 -0.68 0.68 0 0 Z " fill="#494C50" transform="translate(693,189)"/>
<path d="M0 0 C-0.75 6.75 -0.75 6.75 -3 9 C-4.32 9 -5.64 9 -7 9 C-7 9.66 -7 10.32 -7 11 C-5.02 11 -3.04 11 -1 11 C-0.957279 12.66611905 -0.95936168 14.33382885 -1 16 C-2 17 -2 17 -5.0625 17.0625 C-6.031875 17.041875 -7.00125 17.02125 -8 17 C-8 16.01 -8 15.02 -8 14 C-6.35 14.33 -4.7 14.66 -3 15 C-3 14.34 -3 13.68 -3 13 C-4.65 12.67 -6.3 12.34 -8 12 C-8.22174933 10.54364629 -8.42698698 9.08477044 -8.625 7.625 C-8.74101563 6.81289062 -8.85703125 6.00078125 -8.9765625 5.1640625 C-8.98429688 4.44992188 -8.99203125 3.73578125 -9 3 C-6.31795079 0.31795079 -3.73391546 0 0 0 Z " fill="#43464A" transform="translate(555,188)"/>
<path d="M0 0 C2.5 -0.3125 2.5 -0.3125 5 0 C7 2 7 2 7.125 4.625 C7.08375 5.40875 7.0425 6.1925 7 7 C5.02 7 3.04 7 1 7 C1.33 7.66 1.66 8.32 2 9 C4.52733235 9.65555119 4.52733235 9.65555119 7 10 C5 12 5 12 2.5 12.3125 C1.2625 12.1578125 1.2625 12.1578125 0 12 C-2.31332486 8.53001271 -2.33957563 7.07490752 -2 3 C-1.34 2.01 -0.68 1.02 0 0 Z " fill="#363A3D" transform="translate(956,294)"/>
<path d="M0 0 C2.875 -0.125 2.875 -0.125 6 0 C8 2 8 2 8.1953125 4.3828125 C8.17210937 5.28773438 8.14890625 6.19265625 8.125 7.125 C8.10695313 8.03507812 8.08890625 8.94515625 8.0703125 9.8828125 C8.04710937 10.58148438 8.02390625 11.28015625 8 12 C4.625 12.125 4.625 12.125 1 12 C0.34 11.34 -0.32 10.68 -1 10 C-0.625 7.375 -0.625 7.375 0 5 C1.65 5 3.3 5 5 5 C5 4.01 5 3.02 5 2 C3.35 2 1.7 2 0 2 C0 1.34 0 0.68 0 0 Z " fill="#6B6E70" transform="translate(1019,294)"/>
<path d="M0 0 C0.66 0 1.32 0 2 0 C2.33 1.65 2.66 3.3 3 5 C3.33 5 3.66 5 4 5 C4.33 3.35 4.66 1.7 5 0 C5.99 0 6.98 0 8 0 C8.66 2.31 9.32 4.62 10 7 C10.33 4.69 10.66 2.38 11 0 C11.66 0 12.32 0 13 0 C12.85831863 1.43791516 12.71148957 2.8753237 12.5625 4.3125 C12.48128906 5.11300781 12.40007812 5.91351563 12.31640625 6.73828125 C12 9 12 9 11 12 C10.01 12 9.02 12 8 12 C7.34 10.68 6.68 9.36 6 8 C5.67 9.32 5.34 10.64 5 12 C4.01 12 3.02 12 2 12 C0.86235649 7.73383684 0 4.43513689 0 0 Z " fill="#474A4E" transform="translate(1365,189)"/>
<path d="M0 0 C6.15234375 -0.09765625 6.15234375 -0.09765625 8 0 C9 1 9 1 9.09765625 3.50390625 C9.08605469 4.51324219 9.07445312 5.52257812 9.0625 6.5625 C9.05347656 7.57441406 9.04445313 8.58632813 9.03515625 9.62890625 C9.02355469 10.41136719 9.01195312 11.19382812 9 12 C8.01 12 7.02 12 6 12 C6 8.7 6 5.4 6 2 C5.01 2.495 5.01 2.495 4 3 C3.53348793 5.12576782 3.53348793 5.12576782 3.375 7.5625 C3.30023437 8.38878906 3.22546875 9.21507812 3.1484375 10.06640625 C3.09945313 10.70449219 3.05046875 11.34257812 3 12 C2.01 12 1.02 12 0 12 C0 8.04 0 4.08 0 0 Z " fill="#404448" transform="translate(1131,294)"/>
<path d="M0 0 C0.99 0 1.98 0 3 0 C3 3.3 3 6.6 3 10 C3.66 9.67 4.32 9.34 5 9 C5.46651207 6.87423218 5.46651207 6.87423218 5.625 4.4375 C5.69976563 3.61121094 5.77453125 2.78492188 5.8515625 1.93359375 C5.90054687 1.29550781 5.94953125 0.65742188 6 0 C6.99 0 7.98 0 9 0 C9 3.96 9 7.92 9 12 C2.84765625 12.09765625 2.84765625 12.09765625 1 12 C0 11 0 11 -0.09765625 8.49609375 C-0.08605469 7.48675781 -0.07445312 6.47742188 -0.0625 5.4375 C-0.05347656 4.42558594 -0.04445313 3.41367187 -0.03515625 2.37109375 C-0.02355469 1.58863281 -0.01195312 0.80617188 0 0 Z " fill="#44484B" transform="translate(1072,294)"/>
<path d="M0 0 C0.99 0 1.98 0 3 0 C3 3.3 3 6.6 3 10 C3.66 9.67 4.32 9.34 5 9 C5.46651207 6.87423218 5.46651207 6.87423218 5.625 4.4375 C5.69976563 3.61121094 5.77453125 2.78492188 5.8515625 1.93359375 C5.90054688 1.29550781 5.94953125 0.65742188 6 0 C6.99 0 7.98 0 9 0 C9 3.96 9 7.92 9 12 C2.84765625 12.09765625 2.84765625 12.09765625 1 12 C0 11 0 11 -0.09765625 8.49609375 C-0.08605469 7.48675781 -0.07445312 6.47742188 -0.0625 5.4375 C-0.05347656 4.42558594 -0.04445313 3.41367187 -0.03515625 2.37109375 C-0.02355469 1.58863281 -0.01195312 0.80617188 0 0 Z " fill="#44484B" transform="translate(914,294)"/>
<path d="M0 0 C0.66 0 1.32 0 2 0 C2.33 1.98 2.66 3.96 3 6 C3.66 4.02 4.32 2.04 5 0 C5.99 0 6.98 0 8 0 C8.66 1.32 9.32 2.64 10 4 C10.33 2.68 10.66 1.36 11 0 C11.66 0 12.32 0 13 0 C12 8.57142857 12 8.57142857 11 12 C10.01 12 9.02 12 8 12 C7.34 10.02 6.68 8.04 6 6 C5.67 7.98 5.34 9.96 5 12 C4.01 12 3.02 12 2 12 C0.86235649 7.73383684 0 4.43513689 0 0 Z " fill="#4E5154" transform="translate(621,189)"/>
<path d="M0 0 C2.375 0.75 2.375 0.75 3.375 1.75 C3.41563832 3.41617115 3.417721 5.08388095 3.375 6.75 C1.395 6.75 -0.585 6.75 -2.625 6.75 C-2.295 7.41 -1.965 8.07 -1.625 8.75 C0.90233235 9.40555119 0.90233235 9.40555119 3.375 9.75 C3.045 10.41 2.715 11.07 2.375 11.75 C-0.36586056 11.97223194 -2.06463721 12.09781139 -4.4375 10.625 C-6.17698782 7.87844028 -6.02269128 5.93153026 -5.625 2.75 C-3.92079816 -0.03053984 -3.27136899 -0.31155895 0 0 Z " fill="#363A3E" transform="translate(801.625,294.25)"/>
<path d="M0 0 C0.99 0 1.98 0 3 0 C3 3.3 3 6.6 3 10 C3.66 9.67 4.32 9.34 5 9 C5.46651207 6.87423218 5.46651207 6.87423218 5.625 4.4375 C5.69976563 3.61121094 5.77453125 2.78492188 5.8515625 1.93359375 C5.90054688 1.29550781 5.94953125 0.65742188 6 0 C6.99 0 7.98 0 9 0 C9 3.96 9 7.92 9 12 C6.36 12 3.72 12 1 12 C-0.26237731 9.47524538 -0.09856404 7.68799534 -0.0625 4.875 C-0.05347656 3.96492188 -0.04445313 3.05484375 -0.03515625 2.1171875 C-0.02355469 1.41851562 -0.01195312 0.71984375 0 0 Z " fill="#404347" transform="translate(842,294)"/>
<path d="M0 0 C1.65 0 3.3 0 5 0 C5 0.66 5 1.32 5 2 C3.02 2.99 3.02 2.99 1 4 C1 7.63 1 11.26 1 15 C0.34 15 -0.32 15 -1 15 C-1 11.37 -1 7.74 -1 4 C-2.65 4.33 -4.3 4.66 -6 5 C-6.33 8.3 -6.66 11.6 -7 15 C-7.66 15 -8.32 15 -9 15 C-9 11.04 -9 7.08 -9 3 C-6.36 3 -3.72 3 -1 3 C-0.67 2.01 -0.34 1.02 0 0 Z " fill="#4F5256" transform="translate(656,186)"/>
<path d="M0 0 C0.99 0 1.98 0 3 0 C3.33 2.31 3.66 4.62 4 7 C4.66 7 5.32 7 6 7 C6.33 4.69 6.66 2.38 7 0 C7.99 0 8.98 0 10 0 C9.06898164 6.19862222 8.17965109 11.18706844 4 16 C3.01 16 2.02 16 1 16 C1 14 1 14 3 12 C2.57386048 9.0747604 2.57386048 9.0747604 1.625 5.875 C1.32851563 4.77929688 1.03203125 3.68359375 0.7265625 2.5546875 C0.48679687 1.71164062 0.24703125 0.86859375 0 0 Z " fill="#414548" transform="translate(819,294)"/>
<path d="M0 0 C1.99954746 -0.04254356 4.00041636 -0.04080783 6 0 C7.73956658 1.73956658 7.37190386 4.1936622 7.5625 6.5625 C7.64628906 7.57441406 7.73007812 8.58632812 7.81640625 9.62890625 C7.87699219 10.41136719 7.93757812 11.19382813 8 12 C4.625 12.125 4.625 12.125 1 12 C0.34 11.34 -0.32 10.68 -1 10 C-0.625 7.875 -0.625 7.875 0 6 C1.65 5.67 3.3 5.34 5 5 C5 4.01 5 3.02 5 2 C3.35 2 1.7 2 0 2 C0 1.34 0 0.68 0 0 Z " fill="#717477" transform="translate(856,219)"/>
<path d="M0 0 C1.99954746 -0.04254356 4.00041636 -0.04080783 6 0 C7.73956658 1.73956658 7.37190386 4.1936622 7.5625 6.5625 C7.64628906 7.57441406 7.73007813 8.58632812 7.81640625 9.62890625 C7.87699219 10.41136719 7.93757813 11.19382813 8 12 C4.625 12.125 4.625 12.125 1 12 C0.34 11.34 -0.32 10.68 -1 10 C-0.625 7.875 -0.625 7.875 0 6 C1.65 5.67 3.3 5.34 5 5 C5 4.01 5 3.02 5 2 C3.35 2 1.7 2 0 2 C0 1.34 0 0.68 0 0 Z " fill="#717477" transform="translate(1183,189)"/>
<path d="M0 0 C1.99954746 -0.04254356 4.00041636 -0.04080783 6 0 C7.73956658 1.73956658 7.37190386 4.1936622 7.5625 6.5625 C7.64628906 7.57441406 7.73007812 8.58632812 7.81640625 9.62890625 C7.87699219 10.41136719 7.93757812 11.19382813 8 12 C4.625 12.125 4.625 12.125 1 12 C0.34 11.34 -0.32 10.68 -1 10 C-0.625 7.875 -0.625 7.875 0 6 C1.65 5.67 3.3 5.34 5 5 C5 4.01 5 3.02 5 2 C3.35 2 1.7 2 0 2 C0 1.34 0 0.68 0 0 Z " fill="#717477" transform="translate(971,189)"/>
<path d="M0 0 C0.99 0 1.98 0 3 0 C3.33 2.64 3.66 5.28 4 8 C4.66 8 5.32 8 6 8 C5.979375 7.05125 5.95875 6.1025 5.9375 5.125 C6 2 6 2 7 0 C7.99 0.33 8.98 0.66 10 1 C9.46262385 3.13149199 8.89418812 5.25517214 8.3125 7.375 C7.84263672 9.15003906 7.84263672 9.15003906 7.36328125 10.9609375 C6 14 6 14 3.35546875 15.4140625 C2.57816406 15.60742188 1.80085938 15.80078125 1 16 C1 14 1 14 3 12 C2.7834375 11.30132812 2.566875 10.60265625 2.34375 9.8828125 C1.92609375 8.51769531 1.92609375 8.51769531 1.5 7.125 C1.2215625 6.22007812 0.943125 5.31515625 0.65625 4.3828125 C0 2 0 2 0 0 Z " fill="#2E3236" transform="translate(1049,294)"/>
<path d="M0 0 C2.5 -0.375 2.5 -0.375 5 0 C7 3 7 3 7 6 C4.69 6 2.38 6 0 6 C0.33 6.99 0.66 7.98 1 9 C2.65 9.33 4.3 9.66 6 10 C5.67 10.66 5.34 11.32 5 12 C0.25 11.25 0.25 11.25 -2 9 C-2.34490322 4.94738713 -2.30163882 3.45245824 0 0 Z " fill="#6E7174" transform="translate(1272,219)"/>
<path d="M0 0 C2.5 -0.375 2.5 -0.375 5 0 C7 3 7 3 7 6 C4.69 6 2.38 6 0 6 C0.33 6.99 0.66 7.98 1 9 C2.65 9.33 4.3 9.66 6 10 C5.67 10.66 5.34 11.32 5 12 C0.25 11.25 0.25 11.25 -2 9 C-2.34490322 4.94738713 -2.30163882 3.45245824 0 0 Z " fill="#6E7174" transform="translate(1122,219)"/>
<path d="M0 0 C2.5 -0.375 2.5 -0.375 5 0 C7 3 7 3 7 6 C4.69 6 2.38 6 0 6 C0.33 6.99 0.66 7.98 1 9 C2.65 9.33 4.3 9.66 6 10 C5.67 10.66 5.34 11.32 5 12 C0.25 11.25 0.25 11.25 -2 9 C-2.34490322 4.94738713 -2.30163882 3.45245824 0 0 Z " fill="#6E7174" transform="translate(1100,219)"/>
<path d="M0 0 C2.5 -0.375 2.5 -0.375 5 0 C7 3 7 3 7 6 C4.69 6 2.38 6 0 6 C0.33 6.99 0.66 7.98 1 9 C2.65 9.33 4.3 9.66 6 10 C5.67 10.66 5.34 11.32 5 12 C0.25 11.25 0.25 11.25 -2 9 C-2.34490322 4.94738713 -2.30163882 3.45245824 0 0 Z " fill="#6E7174" transform="translate(1202,189)"/>
<path d="M0 0 C2.5 -0.375 2.5 -0.375 5 0 C7 3 7 3 7 6 C4.69 6 2.38 6 0 6 C0.33 6.99 0.66 7.98 1 9 C2.65 9.33 4.3 9.66 6 10 C5.67 10.66 5.34 11.32 5 12 C0.25 11.25 0.25 11.25 -2 9 C-2.34490322 4.94738713 -2.30163882 3.45245824 0 0 Z " fill="#6E7174" transform="translate(935,189)"/>
<path d="M0 0 C3.29714793 0.32971479 4.6226839 0.6226839 7 3 C6.625 5.625 6.625 5.625 6 8 C3.125 8.625 3.125 8.625 0 9 C-2 7 -2 7 -2.25 4.5 C-2 2 -2 2 0 0 Z " fill="#161616" transform="translate(837,119)"/>
<path d="M0 0 C3.29714793 0.32971479 4.6226839 0.6226839 7 3 C6.625 5.625 6.625 5.625 6 8 C3.125 8.625 3.125 8.625 0 9 C-2 7 -2 7 -2.25 4.5 C-2 2 -2 2 0 0 Z " fill="#161616" transform="translate(797,119)"/>
<path d="M0 0 C0.66 0 1.32 0 2 0 C2 0.99 2 1.98 2 3 C2.9590625 3.2165625 2.9590625 3.2165625 3.9375 3.4375 C6 4 6 4 7 5 C7.1875 7.4375 7.1875 7.4375 7 10 C6.34 10.66 5.68 11.32 5 12 C3.35 12 1.7 12 0 12 C0 8.04 0 4.08 0 0 Z " fill="#7E8083" transform="translate(880,347)"/>
<path d="M0 0 C2.64 0 5.28 0 8 0 C8 0.66 8 1.32 8 2 C6.02 2 4.04 2 2 2 C2 3.32 2 4.64 2 6 C3.65 6 5.3 6 7 6 C7 6.66 7 7.32 7 8 C5.35 8 3.7 8 2 8 C2 9.32 2 10.64 2 12 C3.98 12 5.96 12 8 12 C8 12.66 8 13.32 8 14 C5.36 14 2.72 14 0 14 C0 9.38 0 4.76 0 0 Z " fill="#2A2E32" transform="translate(768,292)"/>
<path d="M0 0 C2.625 0.375 2.625 0.375 5 1 C5.33 2.65 5.66 4.3 6 6 C4.02 6 2.04 6 0 6 C0 7.32 0 8.64 0 10 C1.98 10 3.96 10 6 10 C5.67 10.66 5.34 11.32 5 12 C2.625 12.1875 2.625 12.1875 0 12 C-2.44897847 8.32653229 -2.31537716 6.33643601 -2 2 C-1.34 1.34 -0.68 0.68 0 0 Z " fill="#6A6D70" transform="translate(1252,219)"/>
<path d="M0 0 C0.66 0 1.32 0 2 0 C2.33 0.99 2.66 1.98 3 3 C4.65 3.33 6.3 3.66 8 4 C8 7.63 8 11.26 8 15 C7.34 15 6.68 15 6 15 C6 11.7 6 8.4 6 5 C5.01 5.33 4.02 5.66 3 6 C2.67 8.97 2.34 11.94 2 15 C1.34 15 0.68 15 0 15 C0 10.05 0 5.1 0 0 Z " fill="#4B4E52" transform="translate(1087,216)"/>
<path d="M0 0 C2.625 0.375 2.625 0.375 5 1 C5.33 2.65 5.66 4.3 6 6 C4.02 6 2.04 6 0 6 C0 7.32 0 8.64 0 10 C1.98 10 3.96 10 6 10 C5.67 10.66 5.34 11.32 5 12 C2.625 12.1875 2.625 12.1875 0 12 C-2.44897847 8.32653229 -2.31537716 6.33643601 -2 2 C-1.34 1.34 -0.68 0.68 0 0 Z " fill="#6A6D70" transform="translate(662,219)"/>
<path d="M0 0 C2.625 0.375 2.625 0.375 5 1 C5.33 2.65 5.66 4.3 6 6 C4.02 6 2.04 6 0 6 C0 7.32 0 8.64 0 10 C1.98 10 3.96 10 6 10 C5.67 10.66 5.34 11.32 5 12 C2.625 12.1875 2.625 12.1875 0 12 C-2.44897847 8.32653229 -2.31537716 6.33643601 -2 2 C-1.34 1.34 -0.68 0.68 0 0 Z " fill="#6A6D70" transform="translate(626,219)"/>
<path d="M0 0 C1.65 0.33 3.3 0.66 5 1 C5.33 2.65 5.66 4.3 6 6 C4.02 6 2.04 6 0 6 C0.33 6.99 0.66 7.98 1 9 C2.65 9.33 4.3 9.66 6 10 C5.67 10.66 5.34 11.32 5 12 C2.625 12.1875 2.625 12.1875 0 12 C-2.31332486 8.53001271 -2.33957563 7.07490752 -2 3 C-1.34 2.01 -0.68 1.02 0 0 Z " fill="#6A6D70" transform="translate(1397,189)"/>
<path d="M0 0 C2.625 0.375 2.625 0.375 5 1 C5.33 2.65 5.66 4.3 6 6 C4.02 6 2.04 6 0 6 C0 7.32 0 8.64 0 10 C1.98 10 3.96 10 6 10 C5.67 10.66 5.34 11.32 5 12 C2.625 12.1875 2.625 12.1875 0 12 C-2.44897847 8.32653229 -2.31537716 6.33643601 -2 2 C-1.34 1.34 -0.68 0.68 0 0 Z " fill="#6A6D70" transform="translate(1100,189)"/>
<path d="M0 0 C1.65 0.33 3.3 0.66 5 1 C5.33 2.65 5.66 4.3 6 6 C4.02 6 2.04 6 0 6 C0.33 6.99 0.66 7.98 1 9 C2.65 9.33 4.3 9.66 6 10 C5.67 10.66 5.34 11.32 5 12 C2.625 12.1875 2.625 12.1875 0 12 C-2.31332486 8.53001271 -2.33957563 7.07490752 -2 3 C-1.34 2.01 -0.68 1.02 0 0 Z " fill="#6A6D70" transform="translate(995,189)"/>
<path d="M0 0 C0.66 0 1.32 0 2 0 C2.33 0.99 2.66 1.98 3 3 C4.65 3.33 6.3 3.66 8 4 C8 7.63 8 11.26 8 15 C7.34 15 6.68 15 6 15 C6 11.7 6 8.4 6 5 C5.01 5.33 4.02 5.66 3 6 C2.67 8.97 2.34 11.94 2 15 C1.34 15 0.68 15 0 15 C0 10.05 0 5.1 0 0 Z " fill="#4B4E52" transform="translate(794,186)"/>
<path d="M0 0 C2.625 0.375 2.625 0.375 5 1 C5.33 2.65 5.66 4.3 6 6 C4.02 6 2.04 6 0 6 C0 7.32 0 8.64 0 10 C1.98 10 3.96 10 6 10 C5.67 10.66 5.34 11.32 5 12 C2.625 12.1875 2.625 12.1875 0 12 C-2.44897847 8.32653229 -2.31537716 6.33643601 -2 2 C-1.34 1.34 -0.68 0.68 0 0 Z " fill="#6A6D70" transform="translate(638,189)"/>
<path d="M0 0 C4.55555556 0.55555556 4.55555556 0.55555556 6 2 C6.1875 4.4375 6.1875 4.4375 6 7 C5.34 7.66 4.68 8.32 4 9 C-0.55555556 8.44444444 -0.55555556 8.44444444 -2 7 C-2.1875 4.5625 -2.1875 4.5625 -2 2 C-1.34 1.34 -0.68 0.68 0 0 Z " fill="#7E8083" transform="translate(791,350)"/>
<path d="M0 0 C0.66 0 1.32 0 2 0 C2.33 0.99 2.66 1.98 3 3 C4.65 3.33 6.3 3.66 8 4 C8 7.63 8 11.26 8 15 C7.34 15 6.68 15 6 15 C6 11.7 6 8.4 6 5 C4.68 5 3.36 5 2 5 C2 8.3 2 11.6 2 15 C1.34 15 0.68 15 0 15 C0 10.05 0 5.1 0 0 Z " fill="#494C4F" transform="translate(1306,186)"/>
<path d="M0 0 C0.99 0 1.98 0 3 0 C3.33 2.31 3.66 4.62 4 7 C4.66 7 5.32 7 6 7 C6.33 4.69 6.66 2.38 7 0 C7.99 0.33 8.98 0.66 10 1 C9.01 4.63 8.02 8.26 7 12 C5.68 12 4.36 12 3 12 C2.01 8.04 1.02 4.08 0 0 Z " fill="#33373A" transform="translate(1095,294)"/>
<path d="M0 0 C2.625 0.375 2.625 0.375 5 1 C5.33 2.65 5.66 4.3 6 6 C3.69 6 1.38 6 -1 6 C-0.67 6.99 -0.34 7.98 0 9 C1.65 9.33 3.3 9.66 5 10 C4.67 10.66 4.34 11.32 4 12 C-0.875 11.125 -0.875 11.125 -2 10 C-2.27314815 4.26388889 -2.27314815 4.26388889 -2 2 C-1.34 1.34 -0.68 0.68 0 0 Z " fill="#B3D1FE" transform="translate(972,408)"/>
<path d="M0 0 C2.33294775 -0.04241723 4.66702567 -0.04092937 7 0 C8 1 8 1 8.09765625 3.50390625 C8.08605469 4.51324219 8.07445312 5.52257812 8.0625 6.5625 C8.05347656 7.57441406 8.04445313 8.58632813 8.03515625 9.62890625 C8.02355469 10.41136719 8.01195312 11.19382812 8 12 C7.34 12 6.68 12 6 12 C5.67 9.03 5.34 6.06 5 3 C4.34 3 3.68 3 3 3 C2.67 5.97 2.34 8.94 2 12 C1.34 12 0.68 12 0 12 C0 8.04 0 4.08 0 0 Z " fill="#292D30" transform="translate(903,294)"/>
<path d="M0 0 C2.625 0.375 2.625 0.375 5 1 C5 3.31 5 5.62 5 8 C2.625 8.625 2.625 8.625 0 9 C-2 7 -2 7 -2.25 4.5 C-2 2 -2 2 0 0 Z " fill="#7A7C7F" transform="translate(826,350)"/>
<path d="M0 0 C1.2065625 0.0309375 1.2065625 0.0309375 2.4375 0.0625 C2.7675 0.7225 3.0975 1.3825 3.4375 2.0625 C1.7875 2.0625 0.1375 2.0625 -1.5625 2.0625 C-0.18558038 4.81633923 1.80470042 5.57733101 4.4375 7.0625 C3.5625 10.9375 3.5625 10.9375 2.4375 12.0625 C0.43791636 12.10330783 -1.56295254 12.10504356 -3.5625 12.0625 C-3.5625 11.0725 -3.5625 10.0825 -3.5625 9.0625 C-1.9125 9.3925 -0.2625 9.7225 1.4375 10.0625 C-0.19662443 8.35409719 -1.43156094 7.12796953 -3.5625 6.0625 C-3.605221 4.39638095 -3.60313832 2.72867115 -3.5625 1.0625 C-2.5625 0.0625 -2.5625 0.0625 0 0 Z " fill="#3E4245" transform="translate(1005.5625,293.9375)"/>
<path d="M0 0 C2.33294775 -0.04241723 4.66702567 -0.04092937 7 0 C8 1 8 1 8.09765625 3.50390625 C8.08605469 4.51324219 8.07445312 5.52257812 8.0625 6.5625 C8.05347656 7.57441406 8.04445313 8.58632813 8.03515625 9.62890625 C8.02355469 10.41136719 8.01195312 11.19382812 8 12 C7.34 12 6.68 12 6 12 C6 8.7 6 5.4 6 2 C5.01 2.33 4.02 2.66 3 3 C2.67 5.97 2.34 8.94 2 12 C1.34 12 0.68 12 0 12 C0 8.04 0 4.08 0 0 Z " fill="#262A2E" transform="translate(778,294)"/>
<path d="M0 0 C2.33294775 -0.04241723 4.66702567 -0.04092937 7 0 C8 1 8 1 8.09765625 3.50390625 C8.08605469 4.51324219 8.07445312 5.52257812 8.0625 6.5625 C8.05347656 7.57441406 8.04445313 8.58632812 8.03515625 9.62890625 C8.02355469 10.41136719 8.01195312 11.19382813 8 12 C7.34 12 6.68 12 6 12 C6 8.7 6 5.4 6 2 C5.01 2.33 4.02 2.66 3 3 C2.67 5.97 2.34 8.94 2 12 C1.34 12 0.68 12 0 12 C0 8.04 0 4.08 0 0 Z " fill="#4B4E51" transform="translate(1293,219)"/>
<path d="M0 0 C2.33294775 -0.04241723 4.66702567 -0.04092937 7 0 C8 1 8 1 8.09765625 3.50390625 C8.08605469 4.51324219 8.07445312 5.52257812 8.0625 6.5625 C8.05347656 7.57441406 8.04445313 8.58632812 8.03515625 9.62890625 C8.02355469 10.41136719 8.01195312 11.19382813 8 12 C7.34 12 6.68 12 6 12 C6 8.7 6 5.4 6 2 C5.01 2.33 4.02 2.66 3 3 C2.67 5.97 2.34 8.94 2 12 C1.34 12 0.68 12 0 12 C0 8.04 0 4.08 0 0 Z " fill="#4B4E51" transform="translate(817,189)"/>
<path d="M0 0 C2.33294775 -0.04241723 4.66702567 -0.04092937 7 0 C8 1 8 1 8.09765625 3.50390625 C8.08605469 4.51324219 8.07445312 5.52257812 8.0625 6.5625 C8.05347656 7.57441406 8.04445313 8.58632812 8.03515625 9.62890625 C8.02355469 10.41136719 8.01195312 11.19382813 8 12 C7.34 12 6.68 12 6 12 C6 8.7 6 5.4 6 2 C5.01 2.33 4.02 2.66 3 3 C2.67 5.97 2.34 8.94 2 12 C1.34 12 0.68 12 0 12 C0 8.04 0 4.08 0 0 Z " fill="#4B4E51" transform="translate(535,189)"/>
<path d="M0 0 C0.66 0 1.32 0 2 0 C2 3.3 2 6.6 2 10 C2.99 9.67 3.98 9.34 5 9 C5.33 6.03 5.66 3.06 6 0 C6.66 0 7.32 0 8 0 C8 3.96 8 7.92 8 12 C5.66705225 12.04241723 3.33297433 12.04092937 1 12 C0 11 0 11 -0.09765625 8.49609375 C-0.08605469 7.48675781 -0.07445312 6.47742188 -0.0625 5.4375 C-0.05347656 4.42558594 -0.04445313 3.41367188 -0.03515625 2.37109375 C-0.02355469 1.58863281 -0.01195312 0.80617187 0 0 Z " fill="#505356" transform="translate(1061,189)"/>
<path d="M0 0 C0.66 0 1.32 0 2 0 C2 3.3 2 6.6 2 10 C2.99 9.67 3.98 9.34 5 9 C5.33 6.03 5.66 3.06 6 0 C6.66 0 7.32 0 8 0 C8 3.96 8 7.92 8 12 C5.66705225 12.04241723 3.33297433 12.04092937 1 12 C0 11 0 11 -0.09765625 8.49609375 C-0.08605469 7.48675781 -0.07445312 6.47742188 -0.0625 5.4375 C-0.05347656 4.42558594 -0.04445313 3.41367188 -0.03515625 2.37109375 C-0.02355469 1.58863281 -0.01195312 0.80617187 0 0 Z " fill="#4A4E51" transform="translate(881,189)"/>
<path d="M0 0 C2.33294775 -0.04241723 4.66702567 -0.04092937 7 0 C8 1 8 1 8.09765625 3.50390625 C8.08605469 4.51324219 8.07445312 5.52257812 8.0625 6.5625 C8.05347656 7.57441406 8.04445313 8.58632812 8.03515625 9.62890625 C8.02355469 10.41136719 8.01195312 11.19382813 8 12 C7.34 12 6.68 12 6 12 C6 8.7 6 5.4 6 2 C5.01 2.33 4.02 2.66 3 3 C2.67 5.97 2.34 8.94 2 12 C1.34 12 0.68 12 0 12 C0 8.04 0 4.08 0 0 Z " fill="#4C4F53" transform="translate(731,189)"/>
<path d="M0 0 C0.66 0 1.32 0 2 0 C2.66 2.64 3.32 5.28 4 8 C4.99 5.36 5.98 2.72 7 0 C8.02928101 4.11712402 7.90636589 5.25466754 6.6875 9.125 C6.42324219 9.99382812 6.15898438 10.86265625 5.88671875 11.7578125 C5 14 5 14 3 16 C2.01 15.67 1.02 15.34 0 15 C0.99 14.67 1.98 14.34 3 14 C2.7834375 13.24074219 2.566875 12.48148438 2.34375 11.69921875 C2.0653125 10.70535156 1.786875 9.71148437 1.5 8.6875 C1.2215625 7.70136719 0.943125 6.71523437 0.65625 5.69921875 C0 3 0 3 0 0 Z " fill="#525659" transform="translate(1177,219)"/>
<path d="M0 0 C0.66 0 1.32 0 2 0 C2.33 1.98 2.66 3.96 3 6 C3.99 5.01 4.98 4.02 6 3 C6.66 3.33 7.32 3.66 8 4 C7.443125 4.70125 6.88625 5.4025 6.3125 6.125 C5.879375 7.07375 5.44625 8.0225 5 9 C6.1915405 12.30128645 6.1915405 12.30128645 8 15 C5 14 5 14 3 11 C2.67 12.32 2.34 13.64 2 15 C1.34 15 0.68 15 0 15 C0 10.05 0 5.1 0 0 Z " fill="#424649" transform="translate(867,216)"/>
<path d="M0 0 C0.66 0 1.32 0 2 0 C2.66 2.64 3.32 5.28 4 8 C4.99 5.36 5.98 2.72 7 0 C8.02928101 4.11712402 7.90636589 5.25466754 6.6875 9.125 C6.42324219 9.99382812 6.15898438 10.86265625 5.88671875 11.7578125 C5 14 5 14 3 16 C2.01 15.67 1.02 15.34 0 15 C0.99 14.67 1.98 14.34 3 14 C2.7834375 13.24074219 2.566875 12.48148438 2.34375 11.69921875 C2.0653125 10.70535156 1.786875 9.71148437 1.5 8.6875 C1.2215625 7.70136719 0.943125 6.71523437 0.65625 5.69921875 C0 3 0 3 0 0 Z " fill="#525659" transform="translate(1411,189)"/>
<path d="M0 0 C0.66 0 1.32 0 2 0 C2.33 1.98 2.66 3.96 3 6 C3.99 5.01 4.98 4.02 6 3 C6.66 3.33 7.32 3.66 8 4 C7.443125 4.70125 6.88625 5.4025 6.3125 6.125 C5.879375 7.07375 5.44625 8.0225 5 9 C6.1915405 12.30128645 6.1915405 12.30128645 8 15 C5 14 5 14 3 11 C2.67 12.32 2.34 13.64 2 15 C1.34 15 0.68 15 0 15 C0 10.05 0 5.1 0 0 Z " fill="#424649" transform="translate(1158,186)"/>
<path d="M0 0 C0.99 0.495 0.99 0.495 2 1 C2.40729228 3.32156597 2.74438677 5.6568787 3 8 C3.66 8 4.32 8 5 8 C5.33 5.36 5.66 2.72 6 0 C6.66 0 7.32 0 8 0 C5.84078037 11.82976715 5.84078037 11.82976715 4 15 C1.875 15.8125 1.875 15.8125 0 16 C0 15.34 0 14.68 0 14 C0.66 13.67 1.32 13.34 2 13 C1.855625 12.39671875 1.71125 11.7934375 1.5625 11.171875 C1.376875 10.37265625 1.19125 9.5734375 1 8.75 C0.814375 7.96109375 0.62875 7.1721875 0.4375 6.359375 C0 4 0 4 0 0 Z " fill="#515458" transform="translate(745,219)"/>
<path d="M0 0 C1.64574566 -0.02688151 3.29161413 -0.04634123 4.9375 -0.0625 C5.85402344 -0.07410156 6.77054688 -0.08570313 7.71484375 -0.09765625 C10 0 10 0 11 1 C11.14115161 3.67058851 11.04247107 6.32432238 11 9 C10.67 9 10.34 9 10 9 C9.67 6.69 9.34 4.38 9 2 C8.67 2 8.34 2 8 2 C7.67 4.31 7.34 6.62 7 9 C6.34 9 5.68 9 5 9 C4.67 6.69 4.34 4.38 4 2 C3.67 2 3.34 2 3 2 C2.67 4.31 2.34 6.62 2 9 C1.34 9 0.68 9 0 9 C0 6.03 0 3.06 0 0 Z " fill="#7F8184" transform="translate(866,350)"/>
<path d="M0 0 C2.625 0.375 2.625 0.375 5 1 C5.625 3.375 5.625 3.375 6 6 C5.34 6.66 4.68 7.32 4 8 C1.375 7.625 1.375 7.625 -1 7 C-1.625 4.625 -1.625 4.625 -2 2 C-1.34 1.34 -0.68 0.68 0 0 Z " fill="#E6E7E8" transform="translate(817,137)"/>
<path d="M0 0 C0.66 0 1.32 0 2 0 C2.99 2.97 3.98 5.94 5 9 C6.32 6.03 7.64 3.06 9 0 C9.66 0.33 10.32 0.66 11 1 C9.68 5.29 8.36 9.58 7 14 C6.01 14 5.02 14 4 14 C2.68 9.38 1.36 4.76 0 0 Z " fill="#E1EDFE" transform="translate(939,406)"/>
<path d="M0 0 C0.99 0 1.98 0 3 0 C3 0.66 3 1.32 3 2 C3.66 2 4.32 2 5 2 C5 2.66 5 3.32 5 4 C4.34 4 3.68 4 3 4 C3 6.64 3 9.28 3 12 C3.99 12 4.98 12 6 12 C6 12.66 6 13.32 6 14 C1.125 13.125 1.125 13.125 0 12 C-0.26007212 10.36154566 -0.45922323 8.71316296 -0.625 7.0625 C-0.72039062 6.16660156 -0.81578125 5.27070313 -0.9140625 4.34765625 C-1 2 -1 2 0 0 Z " fill="#3A3D41" transform="translate(1118,292)"/>
<path d="M0 0 C0.99 0 1.98 0 3 0 C3 0.66 3 1.32 3 2 C3.66 2 4.32 2 5 2 C5 2.66 5 3.32 5 4 C4.34 4 3.68 4 3 4 C3 6.64 3 9.28 3 12 C3.99 12 4.98 12 6 12 C6 12.66 6 13.32 6 14 C1.125 13.125 1.125 13.125 0 12 C-0.26007212 10.36154566 -0.45922323 8.71316296 -0.625 7.0625 C-0.72039063 6.16660156 -0.81578125 5.27070313 -0.9140625 4.34765625 C-1 2 -1 2 0 0 Z " fill="#3C4044" transform="translate(978,292)"/>
<path d="M0 0 C0.99 0.33 1.98 0.66 3 1 C4.1875 4.5625 4.1875 4.5625 5 8 C6.77706209 5.33440687 7.87548273 2.9719385 9 0 C9.66 0.33 10.32 0.66 11 1 C9.68 5.29 8.36 9.58 7 14 C6.01 14 5.02 14 4 14 C2.68 9.38 1.36 4.76 0 0 Z " fill="#4C5053" transform="translate(498,187)"/>
<path d="M0 0 C0.66 0 1.32 0 2 0 C2.66 2.64 3.32 5.28 4 8 C4.99 5.36 5.98 2.72 7 0 C7.66 0.33 8.32 0.66 9 1 C8.3827904 3.1272758 7.75598201 5.25176857 7.125 7.375 C6.77695312 8.55835938 6.42890625 9.74171875 6.0703125 10.9609375 C5 14 5 14 3 16 C2.01 15.67 1.02 15.34 0 15 C0.99 14.01 1.98 13.02 3 12 C2.7834375 11.30132812 2.566875 10.60265625 2.34375 9.8828125 C1.92609375 8.51769531 1.92609375 8.51769531 1.5 7.125 C1.2215625 6.22007812 0.943125 5.31515625 0.65625 4.3828125 C0 2 0 2 0 0 Z " fill="#4A4D50" transform="translate(892,219)"/>
<path d="M0 0 C0.66 0 1.32 0 2 0 C2 1.32 2 2.64 2 4 C2.804375 3.814375 3.60875 3.62875 4.4375 3.4375 C5.7059375 3.2209375 5.7059375 3.2209375 7 3 C8 4 8 4 8.09765625 6.50390625 C8.08605469 7.51324219 8.07445312 8.52257812 8.0625 9.5625 C8.05347656 10.57441406 8.04445313 11.58632812 8.03515625 12.62890625 C8.02355469 13.41136719 8.01195312 14.19382813 8 15 C7.67 15 7.34 15 7 15 C7 11.7 7 8.4 7 5 C5.68 5.33 4.36 5.66 3 6 C2.67 8.97 2.34 11.94 2 15 C1.34 15 0.68 15 0 15 C0 10.05 0 5.1 0 0 Z " fill="#494D50" transform="translate(991,216)"/>
<path d="M0 0 C0.66 0 1.32 0 2 0 C2.66 2.64 3.32 5.28 4 8 C4.99 5.36 5.98 2.72 7 0 C7.66 0.33 8.32 0.66 9 1 C8.3827904 3.1272758 7.75598201 5.25176857 7.125 7.375 C6.77695313 8.55835938 6.42890625 9.74171875 6.0703125 10.9609375 C5 14 5 14 3 16 C2.01 15.67 1.02 15.34 0 15 C0.99 14.01 1.98 13.02 3 12 C2.7834375 11.30132812 2.566875 10.60265625 2.34375 9.8828125 C1.92609375 8.51769531 1.92609375 8.51769531 1.5 7.125 C1.2215625 6.22007812 0.943125 5.31515625 0.65625 4.3828125 C0 2 0 2 0 0 Z " fill="#4A4D50" transform="translate(1240,189)"/>
<path d="M0 0 C0.66 0 1.32 0 2 0 C2.66 2.64 3.32 5.28 4 8 C4.99 5.36 5.98 2.72 7 0 C7.66 0.33 8.32 0.66 9 1 C8.3827904 3.1272758 7.75598201 5.25176857 7.125 7.375 C6.77695312 8.55835938 6.42890625 9.74171875 6.0703125 10.9609375 C5 14 5 14 3 16 C2.01 15.67 1.02 15.34 0 15 C0.99 14.01 1.98 13.02 3 12 C2.7834375 11.30132812 2.566875 10.60265625 2.34375 9.8828125 C1.92609375 8.51769531 1.92609375 8.51769531 1.5 7.125 C1.2215625 6.22007812 0.943125 5.31515625 0.65625 4.3828125 C0 2 0 2 0 0 Z " fill="#4A4D50" transform="translate(747,189)"/>
<path d="M0 0 C0.66 0 1.32 0 2 0 C2 1.32 2 2.64 2 4 C2.804375 3.814375 3.60875 3.62875 4.4375 3.4375 C5.7059375 3.2209375 5.7059375 3.2209375 7 3 C8 4 8 4 8.09765625 6.50390625 C8.08605469 7.51324219 8.07445312 8.52257812 8.0625 9.5625 C8.05347656 10.57441406 8.04445313 11.58632812 8.03515625 12.62890625 C8.02355469 13.41136719 8.01195312 14.19382813 8 15 C7.67 15 7.34 15 7 15 C7 11.7 7 8.4 7 5 C5.68 5.33 4.36 5.66 3 6 C2.67 8.97 2.34 11.94 2 15 C1.34 15 0.68 15 0 15 C0 10.05 0 5.1 0 0 Z " fill="#494D50" transform="translate(1129,186)"/>
<path d="M0 0 C0.66 0 1.32 0 2 0 C2 1.32 2 2.64 2 4 C2.804375 3.814375 3.60875 3.62875 4.4375 3.4375 C5.7059375 3.2209375 5.7059375 3.2209375 7 3 C8 4 8 4 8.09765625 6.50390625 C8.08605469 7.51324219 8.07445312 8.52257812 8.0625 9.5625 C8.05347656 10.57441406 8.04445313 11.58632812 8.03515625 12.62890625 C8.02355469 13.41136719 8.01195312 14.19382813 8 15 C7.67 15 7.34 15 7 15 C7 11.7 7 8.4 7 5 C5.68 5.33 4.36 5.66 3 6 C2.67 8.97 2.34 11.94 2 15 C1.34 15 0.68 15 0 15 C0 10.05 0 5.1 0 0 Z " fill="#494D50" transform="translate(1026,186)"/>
<path d="M0 0 C0.66 0 1.32 0 2 0 C2 1.32 2 2.64 2 4 C2.804375 3.814375 3.60875 3.62875 4.4375 3.4375 C5.7059375 3.2209375 5.7059375 3.2209375 7 3 C8 4 8 4 8.09765625 6.50390625 C8.08605469 7.51324219 8.07445312 8.52257812 8.0625 9.5625 C8.05347656 10.57441406 8.04445313 11.58632812 8.03515625 12.62890625 C8.02355469 13.41136719 8.01195312 14.19382813 8 15 C7.67 15 7.34 15 7 15 C7 11.7 7 8.4 7 5 C5.68 5.33 4.36 5.66 3 6 C2.67 8.97 2.34 11.94 2 15 C1.34 15 0.68 15 0 15 C0 10.05 0 5.1 0 0 Z " fill="#494D50" transform="translate(959,186)"/>
<path d="M0 0 C0.66 0 1.32 0 2 0 C2 0.66 2 1.32 2 2 C2.99 2 3.98 2 5 2 C5 2.66 5 3.32 5 4 C4.34 4 3.68 4 3 4 C3 6.64 3 9.28 3 12 C3.66 12 4.32 12 5 12 C5 12.66 5 13.32 5 14 C1.125 13.125 1.125 13.125 0 12 C-0.14115161 9.32941149 -0.04247107 6.67567762 0 4 C-0.66 4 -1.32 4 -2 4 C-2 3.34 -2 2.68 -2 2 C-1.34 2 -0.68 2 0 2 C0 1.34 0 0.68 0 0 Z " fill="#373B3F" transform="translate(1012,292)"/>
<path d="M0 0 C0.99 0 1.98 0 3 0 C3.33 4.95 3.66 9.9 4 15 C2.68 14.67 1.36 14.34 0 14 C0 9.38 0 4.76 0 0 Z " fill="#414549" transform="translate(891,291)"/>
<path d="M0 0 C0.99 0 1.98 0 3 0 C3.33 4.95 3.66 9.9 4 15 C2.68 14.67 1.36 14.34 0 14 C0 9.38 0 4.76 0 0 Z " fill="#414549" transform="translate(885,291)"/>
<path d="M0 0 C1.65 0 3.3 0 5 0 C5.33 0.66 5.66 1.32 6 2 C4.35 2 2.7 2 1 2 C2.63412443 3.70840281 3.86906094 4.93453047 6 6 C6.042721 7.66611905 6.04063832 9.33382885 6 11 C5 12 5 12 2.4375 12.0625 C1.633125 12.041875 0.82875 12.02125 0 12 C-0.33 11.34 -0.66 10.68 -1 10 C0.65 10 2.3 10 4 10 C4 9.01 4 8.02 4 7 C1.525 6.01 1.525 6.01 -1 5 C-0.67 3.35 -0.34 1.7 0 0 Z " fill="#505357" transform="translate(697,219)"/>
<path d="M0 0 C1.65 0 3.3 0 5 0 C5.33 0.66 5.66 1.32 6 2 C4.35 2 2.7 2 1 2 C2.63412443 3.70840281 3.86906094 4.93453047 6 6 C6.042721 7.66611905 6.04063832 9.33382885 6 11 C5 12 5 12 2.4375 12.0625 C1.633125 12.041875 0.82875 12.02125 0 12 C-0.33 11.34 -0.66 10.68 -1 10 C0.65 10 2.3 10 4 10 C4 9.01 4 8.02 4 7 C1.525 6.01 1.525 6.01 -1 5 C-0.67 3.35 -0.34 1.7 0 0 Z " fill="#505357" transform="translate(1005,189)"/>
<path d="M0 0 C2.33294775 -0.04241723 4.66702567 -0.04092937 7 0 C8 1 8 1 8.09765625 3.50390625 C8.08605469 4.51324219 8.07445312 5.52257812 8.0625 6.5625 C8.05347656 7.57441406 8.04445313 8.58632812 8.03515625 9.62890625 C8.02355469 10.41136719 8.01195312 11.19382813 8 12 C7.67 12 7.34 12 7 12 C7 8.7 7 5.4 7 2 C5.68 2.33 4.36 2.66 3 3 C2.67 5.97 2.34 8.94 2 12 C1.34 12 0.68 12 0 12 C0 8.04 0 4.08 0 0 Z " fill="#4A4D50" transform="translate(1267,189)"/>
<path d="M0 0 C0.66 0 1.32 0 2 0 C2 0.66 2 1.32 2 2 C2.99 2 3.98 2 5 2 C5 2.66 5 3.32 5 4 C4.01 4 3.02 4 2 4 C2.25561323 6.3431213 2.59270772 8.67843403 3 11 C3.66 11.33 4.32 11.66 5 12 C5 12.66 5 13.32 5 14 C3.35 13.67 1.7 13.34 0 13 C0 10.03 0 7.06 0 4 C-0.66 4 -1.32 4 -2 4 C-2 3.34 -2 2.68 -2 2 C-1.34 2 -0.68 2 0 2 C0 1.34 0 0.68 0 0 Z " fill="#2E3236" transform="translate(790,292)"/>
<path d="M0 0 C2.625 0.375 2.625 0.375 5 1 C5 1.33 5 1.66 5 2 C3.35 2 1.7 2 0 2 C1.37691962 4.75383923 3.36720042 5.51483101 6 7 C5.125 10.875 5.125 10.875 4 12 C2.33382885 12.04063832 0.66611905 12.042721 -1 12 C-1.33 11.34 -1.66 10.68 -2 10 C-0.02 10 1.96 10 4 10 C4 9.01 4 8.02 4 7 C2.35 6.67 0.7 6.34 -1 6 C-1.625 4.125 -1.625 4.125 -2 2 C-1.34 1.34 -0.68 0.68 0 0 Z " fill="#4E5255" transform="translate(1387,189)"/>
<path d="M0 0 C2.625 0.375 2.625 0.375 5 1 C5 1.33 5 1.66 5 2 C3.35 2 1.7 2 0 2 C1.37691962 4.75383923 3.36720042 5.51483101 6 7 C5.125 10.875 5.125 10.875 4 12 C2.33382885 12.04063832 0.66611905 12.042721 -1 12 C-1.33 11.34 -1.66 10.68 -2 10 C-0.02 10 1.96 10 4 10 C4 9.01 4 8.02 4 7 C2.35 6.67 0.7 6.34 -1 6 C-1.625 4.125 -1.625 4.125 -2 2 C-1.34 1.34 -0.68 0.68 0 0 Z " fill="#4E5255" transform="translate(951,189)"/>
<path d="M0 0 C1.67542976 0.28604898 3.34385343 0.61781233 5 1 C5 2.98 5 4.96 5 7 C3.34385343 7.38218767 1.67542976 7.71395102 0 8 C-1 7 -1 7 -1.125 4 C-1 1 -1 1 0 0 Z " fill="#E2E3E4" transform="translate(1331,191)"/>
<path d="M0 0 C1.67542976 0.28604898 3.34385343 0.61781233 5 1 C5 2.98 5 4.96 5 7 C3.34385343 7.38218767 1.67542976 7.71395102 0 8 C-1 7 -1 7 -1.125 4 C-1 1 -1 1 0 0 Z " fill="#E2E3E4" transform="translate(693,191)"/>
<path d="M0 0 C3 1 3 1 4.1875 3.0625 C4.455625 3.701875 4.72375 4.34125 5 5 C5.45375 4.175 5.9075 3.35 6.375 2.5 C6.91125 1.675 7.4475 0.85 8 0 C8.66 0 9.32 0 10 0 C9.566875 1.2375 9.566875 1.2375 9.125 2.5 C7.90101549 6.30795181 6.9383118 10.11270827 6 14 C5.34 14 4.68 14 4 14 C3.87882813 13.40832031 3.75765625 12.81664062 3.6328125 12.20703125 C2.73255357 7.96196415 1.79543379 3.97560339 0 0 Z " fill="#46494D" transform="translate(858,187)"/>
<path d="M0 0 C0 0.33 0 0.66 0 1 C-1.65 1 -3.3 1 -5 1 C-3.74458443 3.51083114 -2.49936512 3.87125446 0 5 C0.042721 6.66611905 0.04063832 8.33382885 0 10 C-1 11 -1 11 -3.5625 11.0625 C-4.366875 11.041875 -5.17125 11.02125 -6 11 C-6.33 10.34 -6.66 9.68 -7 9 C-5.02 9 -3.04 9 -1 9 C-2.93254772 6.9754262 -4.63158688 5.57894208 -7 4 C-7 2.68 -7 1.36 -7 0 C-4.3333581 -1.33332095 -2.83319697 -0.67102033 0 0 Z " fill="#4D5053" transform="translate(1347,190)"/>
<path d="M0 0 C0 0.33 0 0.66 0 1 C-1.65 1 -3.3 1 -5 1 C-3.74458443 3.51083114 -2.49936512 3.87125446 0 5 C0.042721 6.66611905 0.04063832 8.33382885 0 10 C-1 11 -1 11 -3.5625 11.0625 C-4.366875 11.041875 -5.17125 11.02125 -6 11 C-6.33 10.34 -6.66 9.68 -7 9 C-5.02 9 -3.04 9 -1 9 C-2.93254772 6.9754262 -4.63158688 5.57894208 -7 4 C-7 2.68 -7 1.36 -7 0 C-4.3333581 -1.33332095 -2.83319697 -0.67102033 0 0 Z " fill="#4D5053" transform="translate(574,190)"/>
<path d="M0 0 C2.625 0.375 2.625 0.375 5 1 C5 2.32 5 3.64 5 5 C3.35 5 1.7 5 0 5 C0.33 5.66 0.66 6.32 1 7 C3.02463255 7.65213292 3.02463255 7.65213292 5 8 C2.625 8.625 2.625 8.625 0 9 C-2 7 -2 7 -2.25 4.5 C-2 2 -2 2 0 0 Z " fill="#76787B" transform="translate(764,350)"/>
<path d="M0 0 C2 1 2 1 3.125 4.0625 C3.41375 5.031875 3.7025 6.00125 4 7 C4.66 4.69 5.32 2.38 6 0 C6.66 0 7.32 0 8 0 C7.69106068 1.6256807 7.3777305 3.25052748 7.0625 4.875 C6.88847656 5.77992188 6.71445312 6.68484375 6.53515625 7.6171875 C6 10 6 10 5 12 C4.34 12 3.68 12 3 12 C2.49166409 10.75336669 1.99368855 9.50250613 1.5 8.25 C1.2215625 7.55390625 0.943125 6.8578125 0.65625 6.140625 C0 4 0 4 0 0 Z " fill="#424649" transform="translate(791,219)"/>
<path d="M0 0 C1.65 0 3.3 0 5 0 C5 0.66 5 1.32 5 2 C3.02 2.99 3.02 2.99 1 4 C1 7.63 1 11.26 1 15 C0.34 15 -0.32 15 -1 15 C-1 11.37 -1 7.74 -1 4 C-1.66 3.67 -2.32 3.34 -3 3 C-2.34 3 -1.68 3 -1 3 C-0.67 2.01 -0.34 1.02 0 0 Z " fill="#4A4D51" transform="translate(1050,216)"/>
<path d="M0 0 C1.65 0 3.3 0 5 0 C5 0.66 5 1.32 5 2 C3.02 2.99 3.02 2.99 1 4 C1 7.63 1 11.26 1 15 C0.34 15 -0.32 15 -1 15 C-1 11.37 -1 7.74 -1 4 C-1.66 3.67 -2.32 3.34 -3 3 C-2.34 3 -1.68 3 -1 3 C-0.67 2.01 -0.34 1.02 0 0 Z " fill="#4A4D51" transform="translate(1213,186)"/>
<path d="M0 0 C1.67542976 0.28604898 3.34385343 0.61781233 5 1 C5.33 2.65 5.66 4.3 6 6 C3.36 6 0.72 6 -2 6 C-1.125 1.125 -1.125 1.125 0 0 Z " fill="#EAEBEC" transform="translate(958,137)"/>
<path d="M0 0 C2.125 0.375 2.125 0.375 4 1 C4.33 2.32 4.66 3.64 5 5 C3.35 5 1.7 5 0 5 C0.33 5.66 0.66 6.32 1 7 C1.99 7 2.98 7 4 7 C4 7.66 4 8.32 4 9 C-0.875 8.125 -0.875 8.125 -2 7 C-2.1875 4.5625 -2.1875 4.5625 -2 2 C-1.34 1.34 -0.68 0.68 0 0 Z " fill="#8D8F91" transform="translate(891,350)"/>
<path d="M0 0 C1 1 1 1 1.09765625 3.28515625 C1.08605469 4.20167969 1.07445312 5.11820312 1.0625 6.0625 C1.05347656 6.98160156 1.04445313 7.90070313 1.03515625 8.84765625 C1.02355469 9.55792969 1.01195312 10.26820313 1 11 C0.01 11 -0.98 11 -2 11 C-2 7.7 -2 4.4 -2 1 C-2.99 1.33 -3.98 1.66 -5 2 C-5.33 1.34 -5.66 0.68 -6 0 C-3.49749232 -1.25125384 -2.59701335 -0.83774624 0 0 Z " fill="#414448" transform="translate(939,295)"/>
<path d="M0 0 C3.3 0 6.6 0 10 0 C8.68 0.33 7.36 0.66 6 1 C6 5.29 6 9.58 6 14 C5.34 14 4.68 14 4 14 C4 10.04 4 6.08 4 2 C2.68 2 1.36 2 0 2 C0 1.34 0 0.68 0 0 Z " fill="#515558" transform="translate(1117,187)"/>
<path d="M0 0 C0.66 0 1.32 0 2 0 C2 0.66 2 1.32 2 2 C2.66 2.33 3.32 2.66 4 3 C3.34 3 2.68 3 2 3 C2 5.97 2 8.94 2 12 C2.99 12 3.98 12 5 12 C5 12.66 5 13.32 5 14 C3.35 13.67 1.7 13.34 0 13 C0 10.03 0 7.06 0 4 C-0.66 4 -1.32 4 -2 4 C-2 3.34 -2 2.68 -2 2 C-1.34 2 -0.68 2 0 2 C0 1.34 0 0.68 0 0 Z " fill="#D4E5FE" transform="translate(963,406)"/>
<path d="M0 0 C2.625 -0.1875 2.625 -0.1875 5 0 C5 0.66 5 1.32 5 2 C3.68 2.33 2.36 2.66 1 3 C1 4.98 1 6.96 1 9 C2.65 9.33 4.3 9.66 6 10 C5.67 10.66 5.34 11.32 5 12 C2.625 12.1875 2.625 12.1875 0 12 C-2.31332486 8.53001271 -2.33957563 7.07490752 -2 3 C-1.34 2.01 -0.68 1.02 0 0 Z " fill="#515558" transform="translate(678,219)"/>
<path d="M0 0 C0.66 0 1.32 0 2 0 C2.66 2.31 3.32 4.62 4 7 C4.99 4.69 5.98 2.38 7 0 C8.12377697 3.30435084 7.89554742 5.0506862 6.5625 8.25 C6.27503906 8.95640625 5.98757813 9.6628125 5.69140625 10.390625 C5.46324219 10.92171875 5.23507812 11.4528125 5 12 C4.34 12 3.68 12 3 12 C2.49440092 10.56445975 1.9957251 9.1264798 1.5 7.6875 C1.2215625 6.88699219 0.943125 6.08648437 0.65625 5.26171875 C0 3 0 3 0 0 Z " fill="#484B4F" transform="translate(938,219)"/>
<path d="M0 0 C0 0.66 0 1.32 0 2 C-0.99 2 -1.98 2 -3 2 C-3 3.65 -3 5.3 -3 7 C-4.32 7.33 -5.64 7.66 -7 8 C-7.66 6.02 -8.32 4.04 -9 2 C-2.25 0 -2.25 0 0 0 Z " fill="#6B6E71" transform="translate(739,218)"/>
<path d="M0 0 C0.66 0 1.32 0 2 0 C2 0.99 2 1.98 2 3 C2.66 3.33 3.32 3.66 4 4 C3.34 4 2.68 4 2 4 C2 6.97 2 9.94 2 13 C2.99 13 3.98 13 5 13 C5 13.66 5 14.32 5 15 C3.35 14.67 1.7 14.34 0 14 C0 10.7 0 7.4 0 4 C-0.66 3.67 -1.32 3.34 -2 3 C-1.34 3 -0.68 3 0 3 C0 2.01 0 1.02 0 0 Z " fill="#393D40" transform="translate(706,216)"/>
<path d="M0 0 C2.625 -0.1875 2.625 -0.1875 5 0 C5 0.66 5 1.32 5 2 C3.68 2.33 2.36 2.66 1 3 C1 4.98 1 6.96 1 9 C2.65 9.33 4.3 9.66 6 10 C5.67 10.66 5.34 11.32 5 12 C2.625 12.1875 2.625 12.1875 0 12 C-2.31332486 8.53001271 -2.33957563 7.07490752 -2 3 C-1.34 2.01 -0.68 1.02 0 0 Z " fill="#515558" transform="translate(1175,189)"/>
<path d="M0 0 C0.66 0 1.32 0 2 0 C2 0.99 2 1.98 2 3 C2.66 3.33 3.32 3.66 4 4 C3.34 4 2.68 4 2 4 C2 6.97 2 9.94 2 13 C2.99 13 3.98 13 5 13 C5 13.66 5 14.32 5 15 C3.35 14.67 1.7 14.34 0 14 C0 10.7 0 7.4 0 4 C-0.66 3.67 -1.32 3.34 -2 3 C-1.34 3 -0.68 3 0 3 C0 2.01 0 1.02 0 0 Z " fill="#393D40" transform="translate(927,186)"/>
<path d="M0 0 C0.042721 1.66611905 0.04063832 3.33382885 0 5 C-1 6 -1 6 -4.0625 6.0625 C-5.5165625 6.0315625 -5.5165625 6.0315625 -7 6 C-7 4.35 -7 2.7 -7 1 C-4.53721199 -0.231394 -2.7204945 -0.07159196 0 0 Z " fill="#E4E5E6" transform="translate(880,147)"/>
<path d="M0 0 C2.475 0.495 2.475 0.495 5 1 C5 2.98 5 4.96 5 7 C3.35 7.33 1.7 7.66 0 8 C0 5.36 0 2.72 0 0 Z " fill="#1875FD" transform="translate(953,410)"/>
<path d="M0 0 C1.66611905 -0.042721 3.33382885 -0.04063832 5 0 C6 1 6 1 6.09765625 3.06640625 C6.08605469 3.89011719 6.07445312 4.71382812 6.0625 5.5625 C6.05347656 6.38878906 6.04445313 7.21507812 6.03515625 8.06640625 C6.01775391 9.02353516 6.01775391 9.02353516 6 10 C5.67 8.68 5.34 7.36 5 6 C4.01 6.33 3.02 6.66 2 7 C1.26676204 9.01508358 1.26676204 9.01508358 1 11 C1.66 11.33 2.32 11.66 3 12 C1.68 11.67 0.36 11.34 -1 11 C-1.042721 9.33388095 -1.04063832 7.66617115 -1 6 C0 5 0 5 2.5625 4.9375 C3.7690625 4.9684375 3.7690625 4.9684375 5 5 C5 4.01 5 3.02 5 2 C3.35 2 1.7 2 0 2 C0 1.34 0 0.68 0 0 Z " fill="#43464A" transform="translate(1132,219)"/>
<path d="M0 0 C1.32 0 2.64 0 4 0 C4 2.64 4 5.28 4 8 C2.35 7.67 0.7 7.34 -1 7 C-1.04254356 5.00045254 -1.04080783 2.99958364 -1 1 C-0.67 0.67 -0.34 0.34 0 0 Z " fill="#F0F1F2" transform="translate(1190,221)"/>
<path d="M0 0 C2.475 0.495 2.475 0.495 5 1 C5 2.98 5 4.96 5 7 C3.35 7.33 1.7 7.66 0 8 C0 5.36 0 2.72 0 0 Z " fill="#EBECED" transform="translate(1144,221)"/>
<path d="M0 0 C2.475 0.495 2.475 0.495 5 1 C5 2.98 5 4.96 5 7 C3.35 7.33 1.7 7.66 0 8 C0 5.36 0 2.72 0 0 Z " fill="#F2F3F4" transform="translate(1057,221)"/>
<path d="M0 0 C1.32 0 2.64 0 4 0 C4 2.64 4 5.28 4 8 C2.35 7.67 0.7 7.34 -1 7 C-1.04254356 5.00045254 -1.04080783 2.99958364 -1 1 C-0.67 0.67 -0.34 0.34 0 0 Z " fill="#F0F1F2" transform="translate(951,221)"/>
<path d="M0 0 C1.32 0 2.64 0 4 0 C4 2.64 4 5.28 4 8 C2.35 7.67 0.7 7.34 -1 7 C-1.04254356 5.00045254 -1.04080783 2.99958364 -1 1 C-0.67 0.67 -0.34 0.34 0 0 Z " fill="#F0F1F2" transform="translate(905,221)"/>
<path d="M0 0 C1.32 0 2.64 0 4 0 C4 2.64 4 5.28 4 8 C2.35 7.67 0.7 7.34 -1 7 C-1.04254356 5.00045254 -1.04080783 2.99958364 -1 1 C-0.67 0.67 -0.34 0.34 0 0 Z " fill="#F1F2F3" transform="translate(804,221)"/>
<path d="M0 0 C1.32 0 2.64 0 4 0 C4 2.64 4 5.28 4 8 C2.35 7.67 0.7 7.34 -1 7 C-1.04254356 5.00045254 -1.04080783 2.99958364 -1 1 C-0.67 0.67 -0.34 0.34 0 0 Z " fill="#F1F2F3" transform="translate(758,221)"/>
<path d="M0 0 C1.32 0 2.64 0 4 0 C4 2.64 4 5.28 4 8 C2.35 7.67 0.7 7.34 -1 7 C-1.04254356 5.00045254 -1.04080783 2.99958364 -1 1 C-0.67 0.67 -0.34 0.34 0 0 Z " fill="#F1F2F3" transform="translate(644,221)"/>
<path d="M0 0 C0.66 0 1.32 0 2 0 C2 0.99 2 1.98 2 3 C2.66 3.33 3.32 3.66 4 4 C3.34 4 2.68 4 2 4 C2 6.97 2 9.94 2 13 C2.99 13 3.98 13 5 13 C5 13.66 5 14.32 5 15 C3.35 14.67 1.7 14.34 0 14 C-0.19532961 12.2300132 -0.38098882 10.45895721 -0.5625 8.6875 C-0.66691406 7.70136719 -0.77132813 6.71523437 -0.87890625 5.69921875 C-1 3 -1 3 0 0 Z " fill="#494D50" transform="translate(1080,216)"/>
<path d="M0 0 C0.66 0 1.32 0 2 0 C2 0.99 2 1.98 2 3 C2.66 3.33 3.32 3.66 4 4 C3.34 4 2.68 4 2 4 C2 6.97 2 9.94 2 13 C2.99 13 3.98 13 5 13 C5 13.66 5 14.32 5 15 C3.35 14.67 1.7 14.34 0 14 C-0.19532961 12.2300132 -0.38098882 10.45895721 -0.5625 8.6875 C-0.66691406 7.70136719 -0.77132812 6.71523437 -0.87890625 5.69921875 C-1 3 -1 3 0 0 Z " fill="#494D50" transform="translate(813,216)"/>
<path d="M0 0 C1.66611905 -0.042721 3.33382885 -0.04063832 5 0 C6 1 6 1 6.09765625 3.06640625 C6.08605469 3.89011719 6.07445312 4.71382812 6.0625 5.5625 C6.05347656 6.38878906 6.04445313 7.21507812 6.03515625 8.06640625 C6.01775391 9.02353516 6.01775391 9.02353516 6 10 C5.67 8.68 5.34 7.36 5 6 C4.01 6.33 3.02 6.66 2 7 C1.26676204 9.01508358 1.26676204 9.01508358 1 11 C1.66 11.33 2.32 11.66 3 12 C1.68 11.67 0.36 11.34 -1 11 C-1.042721 9.33388095 -1.04063832 7.66617115 -1 6 C0 5 0 5 2.5625 4.9375 C3.7690625 4.9684375 3.7690625 4.9684375 5 5 C5 4.01 5 3.02 5 2 C3.35 2 1.7 2 0 2 C0 1.34 0 0.68 0 0 Z " fill="#43464A" transform="translate(1257,189)"/>
<path d="M0 0 C1.66611905 -0.042721 3.33382885 -0.04063832 5 0 C6 1 6 1 6.09765625 3.06640625 C6.08605469 3.89011719 6.07445312 4.71382812 6.0625 5.5625 C6.05347656 6.38878906 6.04445313 7.21507812 6.03515625 8.06640625 C6.01775391 9.02353516 6.01775391 9.02353516 6 10 C5.67 8.68 5.34 7.36 5 6 C4.01 6.33 3.02 6.66 2 7 C1.26676204 9.01508358 1.26676204 9.01508358 1 11 C1.66 11.33 2.32 11.66 3 12 C1.68 11.67 0.36 11.34 -1 11 C-1.042721 9.33388095 -1.04063832 7.66617115 -1 6 C0 5 0 5 2.5625 4.9375 C3.7690625 4.9684375 3.7690625 4.9684375 5 5 C5 4.01 5 3.02 5 2 C3.35 2 1.7 2 0 2 C0 1.34 0 0.68 0 0 Z " fill="#43464A" transform="translate(583,189)"/>
<path d="M0 0 C1.32 0 2.64 0 4 0 C4 2.64 4 5.28 4 8 C2.35 7.67 0.7 7.34 -1 7 C-1.04254356 5.00045254 -1.04080783 2.99958364 -1 1 C-0.67 0.67 -0.34 0.34 0 0 Z " fill="#F1F2F3" transform="translate(1320,191)"/>
<path d="M0 0 C2.475 0.495 2.475 0.495 5 1 C5 2.98 5 4.96 5 7 C3.35 7.33 1.7 7.66 0 8 C0 5.36 0 2.72 0 0 Z " fill="#F2F3F4" transform="translate(917,191)"/>
<path d="M0 0 C2.475 0.495 2.475 0.495 5 1 C5 2.98 5 4.96 5 7 C3.35 7.33 1.7 7.66 0 8 C0 5.36 0 2.72 0 0 Z " fill="#F2F3F4" transform="translate(871,191)"/>
<path d="M0 0 C2.475 0.495 2.475 0.495 5 1 C5 2.98 5 4.96 5 7 C3.35 7.33 1.7 7.66 0 8 C0 5.36 0 2.72 0 0 Z " fill="#EBECED" transform="translate(830,191)"/>
<path d="M0 0 C1.32 0 2.64 0 4 0 C4 2.64 4 5.28 4 8 C2.35 7.67 0.7 7.34 -1 7 C-1.04254356 5.00045254 -1.04080783 2.99958364 -1 1 C-0.67 0.67 -0.34 0.34 0 0 Z " fill="#F0F1F2" transform="translate(760,191)"/>
<path d="M0 0 C1.32 0 2.64 0 4 0 C4 2.64 4 5.28 4 8 C2.35 7.67 0.7 7.34 -1 7 C-1.04254356 5.00045254 -1.04080783 2.99958364 -1 1 C-0.67 0.67 -0.34 0.34 0 0 Z " fill="#F0F1F2" transform="translate(705,191)"/>
<path d="M0 0 C1.32 0 2.64 0 4 0 C4 2.64 4 5.28 4 8 C2.35 7.67 0.7 7.34 -1 7 C-1.04254356 5.00045254 -1.04080783 2.99958364 -1 1 C-0.67 0.67 -0.34 0.34 0 0 Z " fill="#F1F2F3" transform="translate(613,191)"/>
<path d="M0 0 C1.32 0 2.64 0 4 0 C4 2.64 4 5.28 4 8 C2.35 7.67 0.7 7.34 -1 7 C-1.04254356 5.00045254 -1.04080783 2.99958364 -1 1 C-0.67 0.67 -0.34 0.34 0 0 Z " fill="#F1F2F3" transform="translate(513,191)"/>
<path d="M0 0 C0.66 0 1.32 0 2 0 C2 0.99 2 1.98 2 3 C2.66 3.33 3.32 3.66 4 4 C3.34 4 2.68 4 2 4 C2 6.97 2 9.94 2 13 C2.99 13 3.98 13 5 13 C5 13.66 5 14.32 5 15 C3.35 14.67 1.7 14.34 0 14 C-0.19532961 12.2300132 -0.38098882 10.45895721 -0.5625 8.6875 C-0.66691406 7.70136719 -0.77132812 6.71523437 -0.87890625 5.69921875 C-1 3 -1 3 0 0 Z " fill="#494D50" transform="translate(522,186)"/>
<path d="M0 0 C1.32 0 2.64 0 4 0 C4 2.31 4 4.62 4 7 C2.0625 7.5625 2.0625 7.5625 0 8 C-1 7 -1 7 -1.125 4 C-1 1 -1 1 0 0 Z " fill="#EFF0F1" transform="translate(1219,221)"/>
<path d="M0 0 C1.32 0 2.64 0 4 0 C4 2.31 4 4.62 4 7 C2.0625 7.5625 2.0625 7.5625 0 8 C-1 7 -1 7 -1.125 4 C-1 1 -1 1 0 0 Z " fill="#F3F4F5" transform="translate(1034,221)"/>
<path d="M0 0 C0.33 0.66 0.66 1.32 1 2 C1.99 2 2.98 2 4 2 C4 2.66 4 3.32 4 4 C3.34 4 2.68 4 2 4 C2 6.64 2 9.28 2 12 C2.99 12 3.98 12 5 12 C5 12.66 5 13.32 5 14 C3.35 13.67 1.7 13.34 0 13 C0 9.7 0 6.4 0 3 C-0.66 2.67 -1.32 2.34 -2 2 C-1.34 2 -0.68 2 0 2 C0 1.34 0 0.68 0 0 Z " fill="#7C7F81" transform="translate(1073,187)"/>
<path d="M0 0 C0.78375 0.04125 1.5675 0.0825 2.375 0.125 C2.417721 1.79111905 2.41563832 3.45882885 2.375 5.125 C1.375 6.125 1.375 6.125 -1.1875 6.1875 C-2.3940625 6.1565625 -2.3940625 6.1565625 -3.625 6.125 C-4.25 4.25 -4.25 4.25 -4.625 2.125 C-2.625 0.125 -2.625 0.125 0 0 Z " fill="#E8E9EA" transform="translate(1095.625,146.875)"/>
<path d="M0 0 C1.98 0.495 1.98 0.495 4 1 C3.34 2.32 2.68 3.64 2 5 C5.11332248 4.33131686 5.11332248 4.33131686 6.1875 1.9375 C6.455625 1.298125 6.72375 0.65875 7 0 C7.33 2.31 7.66 4.62 8 7 C4.625 7.125 4.625 7.125 1 7 C0.34 6.34 -0.32 5.68 -1 5 C-0.625 2.375 -0.625 2.375 0 0 Z " fill="#363A3E" transform="translate(1019,299)"/>
<path d="M0 0 C2.375 -0.125 2.375 -0.125 5 0 C7 2 7 2 7.3125 4.9375 C7 8 7 8 5.6875 9.875 C4 11 4 11 1 11 C1 10.34 1 9.68 1 9 C1.66 8.67 2.32 8.34 3 8 C3.2502157 5.08365871 3.2502157 5.08365871 3 2 C2.01 1.34 1.02 0.68 0 0 Z " fill="#373A3E" transform="translate(988,295)"/>
<path d="M0 0 C2.375 -0.125 2.375 -0.125 5 0 C7 2 7 2 7.3125 4.9375 C7 8 7 8 5.6875 9.875 C4 11 4 11 1 11 C1 10.34 1 9.68 1 9 C1.66 8.67 2.32 8.34 3 8 C3.2502157 5.08365871 3.2502157 5.08365871 3 2 C2.01 1.34 1.02 0.68 0 0 Z " fill="#373A3E" transform="translate(833,295)"/>
<path d="M0 0 C1.98 0 3.96 0 6 0 C6 0.99 6 1.98 6 3 C5.01 3.33 4.02 3.66 3 4 C2.67 6.64 2.34 9.28 2 12 C1.34 12 0.68 12 0 12 C0 8.04 0 4.08 0 0 Z " fill="#35393D" transform="translate(1084,294)"/>
<path d="M0 0 C1.98 0 3.96 0 6 0 C6 0.99 6 1.98 6 3 C5.01 3.33 4.02 3.66 3 4 C2.67 6.64 2.34 9.28 2 12 C1.34 12 0.68 12 0 12 C0 8.04 0 4.08 0 0 Z " fill="#35393D" transform="translate(966,294)"/>
<path d="M0 0 C1.98 0 3.96 0 6 0 C6 0.99 6 1.98 6 3 C5.01 3.33 4.02 3.66 3 4 C2.67 6.64 2.34 9.28 2 12 C1.34 12 0.68 12 0 12 C0 8.04 0 4.08 0 0 Z " fill="#35393D" transform="translate(867,294)"/>
<path d="M0 0 C1.98 0.495 1.98 0.495 4 1 C4 2.98 4 4.96 4 7 C2.0625 7.5625 2.0625 7.5625 0 8 C-0.33 7.67 -0.66 7.34 -1 7 C-0.71269945 4.66055264 -0.38063221 2.3260857 0 0 Z " fill="#D7D8DA" transform="translate(1109,296)"/>
<path d="M0 0 C1.98 0.495 1.98 0.495 4 1 C4 2.98 4 4.96 4 7 C2.0625 7.5625 2.0625 7.5625 0 8 C-0.33 7.67 -0.66 7.34 -1 7 C-0.71269945 4.66055264 -0.38063221 2.3260857 0 0 Z " fill="#D7D8DA" transform="translate(1063,296)"/>
<path d="M0 0 C2 0 4 0 6 0 C6 0.99 6 1.98 6 3 C5.01 3.33 4.02 3.66 3 4 C2.67 6.64 2.34 9.28 2 12 C1.34 12 0.68 12 0 12 C0 8.04 0 4.08 0 0 Z " fill="#2A2E32" transform="translate(854,294)"/>
<path d="M0 0 C2 0 4 0 6 0 C6 0.99 6 1.98 6 3 C5.01 3.33 4.02 3.66 3 4 C2.67 6.64 2.34 9.28 2 12 C1.34 12 0.68 12 0 12 C0 8.04 0 4.08 0 0 Z " fill="#2A2E32" transform="translate(808,294)"/>
<path d="M0 0 C0.66 0 1.32 0 2 0 C2 1.32 2 2.64 2 4 C2.99 4.33 3.98 4.66 5 5 C4.01 5.495 4.01 5.495 3 6 C2.53348793 8.12576782 2.53348793 8.12576782 2.375 10.5625 C2.30023437 11.38878906 2.22546875 12.21507812 2.1484375 13.06640625 C2.09945312 13.70449219 2.05046875 14.34257812 2 15 C1.34 15 0.68 15 0 15 C0 10.05 0 5.1 0 0 Z " fill="#24282C" transform="translate(943,291)"/>
<path d="M0 0 C1.65 0.33 3.3 0.66 5 1 C5.33 2.32 5.66 3.64 6 5 C2.5647952 7.29013653 1.014669 7.17842973 -3 7 C-3.33 6.01 -3.66 5.02 -4 4 C-1.69 4.33 0.62 4.66 3 5 C2.2236068 1.9254644 2.2236068 1.9254644 0 0 Z " fill="#404447" transform="translate(1146,303)"/>
<path d="M0 0 C1.1446875 0.3403125 1.1446875 0.3403125 2.3125 0.6875 C1.9825 2.0075 1.6525 3.3275 1.3125 4.6875 C-0.3375 4.6875 -1.9875 4.6875 -3.6875 4.6875 C-4.3475 6.0075 -5.0075 7.3275 -5.6875 8.6875 C-6.04825949 3.27610759 -6.04825949 3.27610759 -4.5 0.75 C-2.6875 -0.3125 -2.6875 -0.3125 0 0 Z " fill="#787B7D" transform="translate(801.6875,294.3125)"/>
<path d="M0 0 C1.32 0 2.64 0 4 0 C4.66 1.98 5.32 3.96 6 6 C3.36 6 0.72 6 -2 6 C-1.34 4.02 -0.68 2.04 0 0 Z " fill="#9FA1A3" transform="translate(1016,225)"/>
<path d="M0 0 C1.32 0 2.64 0 4 0 C4.66 1.98 5.32 3.96 6 6 C3.36 6 0.72 6 -2 6 C-1.34 4.02 -0.68 2.04 0 0 Z " fill="#9FA1A3" transform="translate(688,225)"/>
<path d="M0 0 C1.98 0 3.96 0 6 0 C6 0.66 6 1.32 6 2 C5.01 2 4.02 2 3 2 C2.67 5.3 2.34 8.6 2 12 C1.34 12 0.68 12 0 12 C0 8.04 0 4.08 0 0 Z " fill="#55595C" transform="translate(653,219)"/>
<path d="M0 0 C1.32 0 2.64 0 4 0 C4.66 1.98 5.32 3.96 6 6 C3.36 6 0.72 6 -2 6 C-1.34 4.02 -0.68 2.04 0 0 Z " fill="#9FA1A3" transform="translate(808,195)"/>
<path d="M0 0 C1.98 0 3.96 0 6 0 C6 0.66 6 1.32 6 2 C5.01 2 4.02 2 3 2 C2.67 5.3 2.34 8.6 2 12 C1.34 12 0.68 12 0 12 C0 8.04 0 4.08 0 0 Z " fill="#55595C" transform="translate(1091,189)"/>
<path d="M0 0 C0.33 0.66 0.66 1.32 1 2 C1.99 2.33 2.98 2.66 4 3 C3.01 3 2.02 3 1 3 C1 5.97 1 8.94 1 12 C1.99 12 2.98 12 4 12 C4 12.66 4 13.32 4 14 C0.125 13.125 0.125 13.125 -1 12 C-1.23287008 10.31816052 -1.41264166 8.6287584 -1.5625 6.9375 C-1.64628906 6.01839844 -1.73007812 5.09929687 -1.81640625 4.15234375 C-1.90728516 3.08693359 -1.90728516 3.08693359 -2 2 C-1.34 2 -0.68 2 0 2 C0 1.34 0 0.68 0 0 Z " fill="#4A4E51" transform="translate(1020,187)"/>
<path d="M0 0 C0.33 0.66 0.66 1.32 1 2 C1.99 2.33 2.98 2.66 4 3 C3.01 3 2.02 3 1 3 C1 5.97 1 8.94 1 12 C1.99 12 2.98 12 4 12 C4 12.66 4 13.32 4 14 C0.125 13.125 0.125 13.125 -1 12 C-1.23287008 10.31816052 -1.41264166 8.6287584 -1.5625 6.9375 C-1.64628906 6.01839844 -1.73007812 5.09929687 -1.81640625 4.15234375 C-1.90728516 3.08693359 -1.90728516 3.08693359 -2 2 C-1.34 2 -0.68 2 0 2 C0 1.34 0 0.68 0 0 Z " fill="#4A4E51" transform="translate(685,187)"/>
<path d="M0 0 C1.32 0 2.64 0 4 0 C4 2.64 4 5.28 4 8 C2.68 8 1.36 8 0 8 C0 5.36 0 2.72 0 0 Z " fill="#F3F4F5" transform="translate(615,221)"/>
<path d="M0 0 C1.32 0 2.64 0 4 0 C4 2.64 4 5.28 4 8 C2.68 8 1.36 8 0 8 C0 5.36 0 2.72 0 0 Z " fill="#F4F6F7" transform="translate(1281,191)"/>
<path d="M0 0 C1.32 0 2.64 0 4 0 C4 2.64 4 5.28 4 8 C2.68 8 1.36 8 0 8 C0 5.36 0 2.72 0 0 Z " fill="#F4F5F6" transform="translate(984,191)"/>
<path d="M0 0 C1.32 0 2.64 0 4 0 C4 2.64 4 5.28 4 8 C2.68 8 1.36 8 0 8 C0 5.36 0 2.72 0 0 Z " fill="#F3F4F5" transform="translate(601,191)"/>
<path d="M0 0 C0.33 0 0.66 0 1 0 C1 3.3 1 6.6 1 10 C-1.97 9.505 -1.97 9.505 -5 9 C-4.67 7.35 -4.34 5.7 -4 4 C-3.01 4 -2.02 4 -1 4 C-0.67 2.68 -0.34 1.36 0 0 Z " fill="#A8AAAC" transform="translate(1138,221)"/>
<path d="M0 0 C1.98 0 3.96 0 6 0 C5.51917969 0.39832031 5.03835938 0.79664063 4.54296875 1.20703125 C2.62608175 3.43450247 2.52258357 4.78834669 2.3125 7.6875 C2.21388672 8.89986328 2.21388672 8.89986328 2.11328125 10.13671875 C2.07589844 10.75160156 2.03851562 11.36648437 2 12 C1.34 12 0.68 12 0 12 C0 8.04 0 4.08 0 0 Z " fill="#474A4E" transform="translate(1165,219)"/>
<path d="M0 0 C1.98 0 3.96 0 6 0 C5.51917969 0.39832031 5.03835938 0.79664063 4.54296875 1.20703125 C2.62608175 3.43450247 2.52258357 4.78834669 2.3125 7.6875 C2.21388672 8.89986328 2.21388672 8.89986328 2.11328125 10.13671875 C2.07589844 10.75160156 2.03851562 11.36648437 2 12 C1.34 12 0.68 12 0 12 C0 8.04 0 4.08 0 0 Z " fill="#474A4E" transform="translate(1067,219)"/>
<path d="M0 0 C1.98 0 3.96 0 6 0 C5.51917969 0.39832031 5.03835938 0.79664063 4.54296875 1.20703125 C2.62608175 3.43450247 2.52258357 4.78834669 2.3125 7.6875 C2.21388672 8.89986328 2.21388672 8.89986328 2.11328125 10.13671875 C2.07589844 10.75160156 2.03851562 11.36648437 2 12 C1.34 12 0.68 12 0 12 C0 8.04 0 4.08 0 0 Z " fill="#474A4E" transform="translate(926,219)"/>
<path d="M0 0 C0.33 0 0.66 0 1 0 C1 3.3 1 6.6 1 10 C-1.97 9.505 -1.97 9.505 -5 9 C-4.67 7.35 -4.34 5.7 -4 4 C-3.01 4 -2.02 4 -1 4 C-0.67 2.68 -0.34 1.36 0 0 Z " fill="#A8AAAC" transform="translate(1263,191)"/>
<path d="M0 0 C0.33 0 0.66 0 1 0 C1 3.3 1 6.6 1 10 C-1.97 9.505 -1.97 9.505 -5 9 C-4.67 7.35 -4.34 5.7 -4 4 C-3.01 4 -2.02 4 -1 4 C-0.67 2.68 -0.34 1.36 0 0 Z " fill="#A8AAAC" transform="translate(589,191)"/>
<path d="M0 0 C1.98 0 3.96 0 6 0 C5.51917969 0.39832031 5.03835938 0.79664063 4.54296875 1.20703125 C2.62608175 3.43450247 2.52258357 4.78834669 2.3125 7.6875 C2.21388672 8.89986328 2.21388672 8.89986328 2.11328125 10.13671875 C2.07589844 10.75160156 2.03851562 11.36648437 2 12 C1.34 12 0.68 12 0 12 C0 8.04 0 4.08 0 0 Z " fill="#474A4E" transform="translate(781,189)"/>
<path d="M0 0 C0.66 0 1.32 0 2 0 C2.33 4.95 2.66 9.9 3 15 C2.01 14.67 1.02 14.34 0 14 C0 9.38 0 4.76 0 0 Z " fill="#515558" transform="translate(1236,186)"/>
<path d="M0 0 C0.99 0 1.98 0 3 0 C3 2.64 3 5.28 3 8 C1.68 7.67 0.36 7.34 -1 7 C-1.04254356 5.00045254 -1.04080783 2.99958364 -1 1 C-0.67 0.67 -0.34 0.34 0 0 Z " fill="#E5E6E7" transform="translate(877,296)"/>
<path d="M0 0 C-0.33 2.31 -0.66 4.62 -1 7 C-3 7 -5 7 -7 7 C-6.67 5.02 -6.34 3.04 -6 1 C-3.92446352 0.4465236 -2.15634036 0 0 0 Z " fill="#909294" transform="translate(1152,293)"/>
<path d="M0 0 C1.65 0 3.3 0 5 0 C5 0.66 5 1.32 5 2 C4.01 2.495 4.01 2.495 3 3 C2.53348793 5.12576782 2.53348793 5.12576782 2.375 7.5625 C2.30023437 8.38878906 2.22546875 9.21507812 2.1484375 10.06640625 C2.09945312 10.70449219 2.05046875 11.34257812 2 12 C1.34 12 0.68 12 0 12 C0 8.04 0 4.08 0 0 Z " fill="#44484C" transform="translate(779,219)"/>
<path d="M0 0 C0.99 0 1.98 0 3 0 C4.20568053 4.67201205 4.09382426 9.21496292 4 14 C3.34 14 2.68 14 2 14 C1.93941406 13.32453125 1.87882813 12.6490625 1.81640625 11.953125 C1.73261719 11.06109375 1.64882813 10.1690625 1.5625 9.25 C1.48128906 8.36828125 1.40007813 7.4865625 1.31640625 6.578125 C1.03761535 4.30649548 0.61209423 2.20148177 0 0 Z " fill="#45484B" transform="translate(849,217)"/>
<path d="M0 0 C0.99 0 1.98 0 3 0 C2.84660156 0.55171875 2.69320312 1.1034375 2.53515625 1.671875 C1.95329729 4.20317383 1.67564555 6.66441972 1.4375 9.25 C1.35371094 10.14203125 1.26992188 11.0340625 1.18359375 11.953125 C1.12300781 12.62859375 1.06242188 13.3040625 1 14 C0.34 14 -0.32 14 -1 14 C-1.18451025 4.58997722 -1.18451025 4.58997722 0 0 Z " fill="#45494C" transform="translate(841,217)"/>
<path d="M0 0 C1.65 0 3.3 0 5 0 C5 0.66 5 1.32 5 2 C4.01 2.495 4.01 2.495 3 3 C2.53348793 5.12576782 2.53348793 5.12576782 2.375 7.5625 C2.30023437 8.38878906 2.22546875 9.21507812 2.1484375 10.06640625 C2.09945313 10.70449219 2.05046875 11.34257812 2 12 C1.34 12 0.68 12 0 12 C0 8.04 0 4.08 0 0 Z " fill="#44484C" transform="translate(1194,189)"/>
<path d="M0 0 C0.66 0 1.32 0 2 0 C2.69040574 1.65697379 3.3530635 3.3255761 4 5 C4.268125 5.680625 4.53625 6.36125 4.8125 7.0625 C5 9 5 9 3.6875 11.25 C3.130625 11.8275 2.57375 12.405 2 13 C1.34 13 0.68 13 0 13 C0 11 0 11 2 9 C1.67 8.2575 1.34 7.515 1 6.75 C0 4 0 4 0 0 Z " fill="#808385" transform="translate(781,350)"/>
<path d="M0 0 C0.99 0.33 1.98 0.66 3 1 C3 2.98 3 4.96 3 7 C1.68 7 0.36 7 -1 7 C-1.04254356 5.00045254 -1.04080783 2.99958364 -1 1 C-0.67 0.67 -0.34 0.34 0 0 Z " fill="#F0F1F3" transform="translate(989,296)"/>
<path d="M0 0 C0.99 0.33 1.98 0.66 3 1 C3 2.98 3 4.96 3 7 C1.68 7 0.36 7 -1 7 C-1.04254356 5.00045254 -1.04080783 2.99958364 -1 1 C-0.67 0.67 -0.34 0.34 0 0 Z " fill="#EEEFF0" transform="translate(946,296)"/>
<path d="M0 0 C0.99 0.33 1.98 0.66 3 1 C2.67 1.33 2.34 1.66 2 2 C1.95919217 3.99958364 1.95745644 6.00045254 2 8 C2.66 8.33 3.32 8.66 4 9 C4 9.66 4 10.32 4 11 C0.125 10.125 0.125 10.125 -1 9 C-1.1328125 7.1875 -1.1328125 7.1875 -1.125 5 C-1.12757813 4.278125 -1.13015625 3.55625 -1.1328125 2.8125 C-1 1 -1 1 0 0 Z " fill="#2B2F32" transform="translate(875,295)"/>
<path d="M0 0 C0.99 0.33 1.98 0.66 3 1 C3 2.98 3 4.96 3 7 C1.68 7 0.36 7 -1 7 C-1.04254356 5.00045254 -1.04080783 2.99958364 -1 1 C-0.67 0.67 -0.34 0.34 0 0 Z " fill="#F0F1F3" transform="translate(834,296)"/>
<path d="M0 0 C1.65 0.33 3.3 0.66 5 1 C5 2.32 5 3.64 5 5 C3.02 5 1.04 5 -1 5 C-0.67 3.35 -0.34 1.7 0 0 Z " fill="#A1A3A5" transform="translate(1230,219)"/>
<path d="M0 0 C1.65 0.33 3.3 0.66 5 1 C5 2.32 5 3.64 5 5 C3.02 5 1.04 5 -1 5 C-0.67 3.35 -0.34 1.7 0 0 Z " fill="#A1A3A5" transform="translate(1156,219)"/>
<path d="M0 0 C1.65 0.33 3.3 0.66 5 1 C5 2.32 5 3.64 5 5 C3.02 5 1.04 5 -1 5 C-0.67 3.35 -0.34 1.7 0 0 Z " fill="#A1A3A5" transform="translate(1005,219)"/>
<path d="M0 0 C1.65 0.33 3.3 0.66 5 1 C5 2.32 5 3.64 5 5 C3.02 5 1.04 5 -1 5 C-0.67 3.35 -0.34 1.7 0 0 Z " fill="#A1A3A5" transform="translate(977,219)"/>
<path d="M0 0 C1.65 0.33 3.3 0.66 5 1 C5 2.32 5 3.64 5 5 C3.02 5 1.04 5 -1 5 C-0.67 3.35 -0.34 1.7 0 0 Z " fill="#A1A3A5" transform="translate(879,219)"/>
<path d="M0 0 C1.65 0.33 3.3 0.66 5 1 C5 2.32 5 3.64 5 5 C3.02 5 1.04 5 -1 5 C-0.67 3.35 -0.34 1.7 0 0 Z " fill="#A1A3A5" transform="translate(822,219)"/>
<path d="M0 0 C1.65 0.33 3.3 0.66 5 1 C5 2.32 5 3.64 5 5 C3.02 5 1.04 5 -1 5 C-0.67 3.35 -0.34 1.7 0 0 Z " fill="#A1A3A5" transform="translate(1352,189)"/>
<path d="M0 0 C1.65 0.33 3.3 0.66 5 1 C5 2.32 5 3.64 5 5 C3.02 5 1.04 5 -1 5 C-0.67 3.35 -0.34 1.7 0 0 Z " fill="#A1A3A5" transform="translate(1040,189)"/>
<path d="M0 0 C1.32 0 2.64 0 4 0 C3.67 1.32 3.34 2.64 3 4 C2.01 4 1.02 4 0 4 C0 7.63 0 11.26 0 15 C-0.33 15 -0.66 15 -1 15 C-1 11.37 -1 7.74 -1 4 C-1.66 3.67 -2.32 3.34 -3 3 C-2.34 3 -1.68 3 -1 3 C-0.67 2.01 -0.34 1.02 0 0 Z " fill="#363A3D" transform="translate(637,216)"/>
<path d="M0 0 C1.32 0 2.64 0 4 0 C3.67 1.32 3.34 2.64 3 4 C2.01 4 1.02 4 0 4 C0 7.63 0 11.26 0 15 C-0.33 15 -0.66 15 -1 15 C-1 11.37 -1 7.74 -1 4 C-1.66 3.67 -2.32 3.34 -3 3 C-2.34 3 -1.68 3 -1 3 C-0.67 2.01 -0.34 1.02 0 0 Z " fill="#363A3D" transform="translate(1056,186)"/>
<path d="M0 0 C0.66 0 1.32 0 2 0 C2 0.66 2 1.32 2 2 C2.66 2.33 3.32 2.66 4 3 C3.34 3 2.68 3 2 3 C2 5.31 2 7.62 2 10 C2.66 10.33 3.32 10.66 4 11 C2.68 10.67 1.36 10.34 0 10 C-1.125 2.25 -1.125 2.25 0 0 Z " fill="#7B7E80" transform="translate(757,348)"/>
<path d="M0 0 C0.66 0 1.32 0 2 0 C3 4 4 8 5 12 C4.01 12 3.02 12 2 12 C0.86235649 7.73383684 0 4.43513689 0 0 Z " fill="#46494D" transform="translate(1365,189)"/>
<path d="M0 0 C0.99 0 1.98 0 3 0 C3.33 2.31 3.66 4.62 4 7 C4.66 7 5.32 7 6 7 C6 7.66 6 8.32 6 9 C4.68 8.67 3.36 8.34 2 8 C1.34 5.36 0.68 2.72 0 0 Z " fill="#474B4E" transform="translate(1095,294)"/>
<path d="M0 0 C0 1.32 0 2.64 0 4 C-0.78375 3.814375 -1.5675 3.62875 -2.375 3.4375 C-4.97089775 2.74037734 -4.97089775 2.74037734 -7 4 C-7 3.01 -7 2.02 -7 1 C-4.53721199 -0.231394 -2.7204945 -0.07159196 0 0 Z " fill="#D7D8DA" transform="translate(552,200)"/>
<path d="M0 0 C0.99 0 1.98 0 3 0 C3.625 2.875 3.625 2.875 4 6 C3.34 6.66 2.68 7.32 2 8 C1.01 8 0.02 8 -1 8 C-0.67 5.36 -0.34 2.72 0 0 Z " fill="#64676A" transform="translate(1370,189)"/>
<path d="M0 0 C0.99 0.33 1.98 0.66 3 1 C3 2.65 3 4.3 3 6 C1.68 6 0.36 6 -1 6 C-1.042721 4.33388095 -1.04063832 2.66617115 -1 1 C-0.67 0.67 -0.34 0.34 0 0 Z " fill="#F1F1F2" transform="translate(792,351)"/>
<path d="M0 0 C1.65 0 3.3 0 5 0 C5 0.66 5 1.32 5 2 C4.01 2.495 4.01 2.495 3 3 C2.34227572 6.02934491 2.34227572 6.02934491 2 9 C1.34 9 0.68 9 0 9 C0 6.03 0 3.06 0 0 Z " fill="#898B8E" transform="translate(808,350)"/>
<path d="M0 0 C1.65 0 3.3 0 5 0 C5 0.66 5 1.32 5 2 C4.01 2.495 4.01 2.495 3 3 C2.34227572 6.02934491 2.34227572 6.02934491 2 9 C1.34 9 0.68 9 0 9 C0 6.03 0 3.06 0 0 Z " fill="#898B8E" transform="translate(771,350)"/>
<path d="M0 0 C0.99 0 1.98 0 3 0 C3.66 3.3 4.32 6.6 5 10 C4.01 9.67 3.02 9.34 2 9 C1.26953125 6.93359375 1.26953125 6.93359375 0.8125 4.4375 C0.65394531 3.61121094 0.49539063 2.78492188 0.33203125 1.93359375 C0.16767578 0.97646484 0.16767578 0.97646484 0 0 Z " fill="#3B3F43" transform="translate(1049,294)"/>
<path d="M0 0 C1.2065625 0.0309375 1.2065625 0.0309375 2.4375 0.0625 C2.4375 1.72916667 2.4375 3.39583333 2.4375 5.0625 C0.7875 5.0625 -0.8625 5.0625 -2.5625 5.0625 C-3.125 3.125 -3.125 3.125 -3.5625 1.0625 C-2.5625 0.0625 -2.5625 0.0625 0 0 Z " fill="#8E9193" transform="translate(958.5625,293.9375)"/>
<path d="M0 0 C0.66 0 1.32 0 2 0 C2.33 1.98 2.66 3.96 3 6 C1.68 6 0.36 6 -1 6 C-1.042721 4.33388095 -1.04063832 2.66617115 -1 1 C-0.67 0.67 -0.34 0.34 0 0 Z " fill="#ECEDED" transform="translate(827,351)"/>
<path d="M0 0 C0.99 0 1.98 0 3 0 C3.33 2.31 3.66 4.62 4 7 C3.01 7.495 3.01 7.495 2 8 C1.34 7.67 0.68 7.34 0 7 C0 4.69 0 2.38 0 0 Z " fill="#F4F5F5" transform="translate(759,351)"/>
<path d="M0 0 C1.2065625 0.0309375 1.2065625 0.0309375 2.4375 0.0625 C2.7675 0.7225 3.0975 1.3825 3.4375 2.0625 C1.7875 2.0625 0.1375 2.0625 -1.5625 2.0625 C-1.2325 3.7125 -0.9025 5.3625 -0.5625 7.0625 C-1.5525 6.7325 -2.5425 6.4025 -3.5625 6.0625 C-3.605221 4.39638095 -3.60313832 2.72867115 -3.5625 1.0625 C-2.5625 0.0625 -2.5625 0.0625 0 0 Z " fill="#35393D" transform="translate(1005.5625,293.9375)"/>
<path d="M0 0 C1.32 0 2.64 0 4 0 C4 0.66 4 1.32 4 2 C3.34 2 2.68 2 2 2 C2 4.31 2 6.62 2 9 C1.34 9 0.68 9 0 9 C0 6.03 0 3.06 0 0 Z " fill="#828486" transform="translate(898,350)"/>
<path d="M0 0 C2.475 0.495 2.475 0.495 5 1 C5 3.31 5 5.62 5 8 C4.01 8.495 4.01 8.495 3 9 C2.8046875 6.94921875 2.609375 4.8984375 2.4140625 2.84765625 C2.27742187 2.23792969 2.14078125 1.62820313 2 1 C1.34 0.67 0.68 0.34 0 0 Z " fill="#383C3F" transform="translate(946,294)"/>
<path d="M0 0 C0.66 0.66 1.32 1.32 2 2 C4.57061311 2.64767793 4.57061311 2.64767793 7 3 C5 5 5 5 2.375 5.125 C1.59125 5.08375 0.8075 5.0425 0 5 C-0.5625 3.0625 -0.5625 3.0625 -1 1 C-0.67 0.67 -0.34 0.34 0 0 Z " fill="#424549" transform="translate(956,301)"/>
<path d="M0 0 C0.66 0.99 1.32 1.98 2 3 C1 4 1 4 -2.5625 4.0625 C-3.696875 4.041875 -4.83125 4.02125 -6 4 C-6.33 3.01 -6.66 2.02 -7 1 C-4.69 1.33 -2.38 1.66 0 2 C0 1.34 0 0.68 0 0 Z " fill="#686B6E" transform="translate(736,231)"/>
<path d="M0 0 C0.99 0.33 1.98 0.66 3 1 C2.67 2.65 2.34 4.3 2 6 C1.01 5.67 0.02 5.34 -1 5 C-0.67 3.35 -0.34 1.7 0 0 Z " fill="#E7E8EA" transform="translate(549,190)"/>
<path d="M0 0 C0.99 0.33 1.98 0.66 3 1 C2.67 3.64 2.34 6.28 2 9 C1.34 9 0.68 9 0 9 C0 6.03 0 3.06 0 0 Z " fill="#85878A" transform="translate(847,350)"/>
<path d="M0 0 C1.65 0.33 3.3 0.66 5 1 C4.67 1.99 4.34 2.98 4 4 C2.35 4 0.7 4 -1 4 C-0.67 2.68 -0.34 1.36 0 0 Z " fill="#AFB0B1" transform="translate(764,350)"/>
<path d="M0 0 C0.99 0 1.98 0 3 0 C3.33 2.64 3.66 5.28 4 8 C3.34 8 2.68 8 2 8 C1.34 5.36 0.68 2.72 0 0 Z " fill="#32363A" transform="translate(819,294)"/>
<path d="M0 0 C0.33 0 0.66 0 1 0 C1 2.97 1 5.94 1 9 C1.99 9 2.98 9 4 9 C4 9.66 4 10.32 4 11 C2.35 10.67 0.7 10.34 -1 10 C-0.67 6.7 -0.34 3.4 0 0 Z " fill="#585B5F" transform="translate(707,220)"/>
<path d="M0 0 C0.66 0 1.32 0 2 0 C1.67 2.64 1.34 5.28 1 8 C-0.32 8.33 -1.64 8.66 -3 9 C-2.01 6.03 -1.02 3.06 0 0 Z " fill="#5C5F62" transform="translate(797,219)"/>
<path d="M0 0 C1.32 0 2.64 0 4 0 C3.67 1.65 3.34 3.3 3 5 C2.01 5 1.02 5 0 5 C0 3.35 0 1.7 0 0 Z " fill="#DEE0E1" transform="translate(732,221)"/>
<path d="M0 0 C0.33 0 0.66 0 1 0 C1 2.97 1 5.94 1 9 C1.99 9 2.98 9 4 9 C4 9.66 4 10.32 4 11 C2.35 10.67 0.7 10.34 -1 10 C-0.67 6.7 -0.34 3.4 0 0 Z " fill="#585B5F" transform="translate(928,190)"/>
<path d="M0 0 C1.98 0 3.96 0 6 0 C7.15941038 3.47823115 6.70820884 5.45895578 6 9 C5.67 9 5.34 9 5 9 C5 6.69 5 4.38 5 2 C3.35 1.67 1.7 1.34 0 1 C0 0.67 0 0.34 0 0 Z " fill="#7A7C7F" transform="translate(983,189)"/>
<path d="M0 0 C0 0.66 0 1.32 0 2 C-2.64 2 -5.28 2 -8 2 C-8 1.34 -8 0.68 -8 0 C-4.71023192 -1.09658936 -3.28696233 -0.79953138 0 0 Z " fill="#DBDCDD" transform="translate(1149,306)"/>
<path d="M0 0 C1.32 0.33 2.64 0.66 4 1 C4 3.31 4 5.62 4 8 C3.34 8 2.68 8 2 8 C1.34 5.36 0.68 2.72 0 0 Z " fill="#25292D" transform="translate(1111,295)"/>
<path d="M0 0 C1.32 0.33 2.64 0.66 4 1 C4 3.31 4 5.62 4 8 C3.34 8 2.68 8 2 8 C1.34 5.36 0.68 2.72 0 0 Z " fill="#25292D" transform="translate(1065,295)"/>
<path d="M0 0 C0.66 0.33 1.32 0.66 2 1 C1.34 3.64 0.68 6.28 0 9 C-1.125 7.3125 -1.125 7.3125 -2 5 C-1.125 2.25 -1.125 2.25 0 0 Z " fill="#C2DAFE" transform="translate(948,406)"/>
<path d="M0 0 C0.66 0.33 1.32 0.66 2 1 C2 2.65 2 4.3 2 6 C1.01 6 0.02 6 -1 6 C-1.042721 4.33388095 -1.04063832 2.66617115 -1 1 C-0.67 0.67 -0.34 0.34 0 0 Z " fill="#FAFAFA" transform="translate(883,351)"/>
<path d="M0 0 C0.99 0.33 1.98 0.66 3 1 C2.34 3.31 1.68 5.62 1 8 C0.34 7.34 -0.32 6.68 -1 6 C-0.625 2.875 -0.625 2.875 0 0 Z " fill="#393D41" transform="translate(1056,294)"/>
<path d="M0 0 C0.78375 0.04125 1.5675 0.0825 2.375 0.125 C2.375 1.115 2.375 2.105 2.375 3.125 C0.065 2.795 -2.245 2.465 -4.625 2.125 C-2.625 0.125 -2.625 0.125 0 0 Z " fill="#ECEEEF" transform="translate(733.625,229.875)"/>
<path d="M0 0 C0.33 0.66 0.66 1.32 1 2 C1.99 2.33 2.98 2.66 4 3 C3.01 3 2.02 3 1 3 C1 5.97 1 8.94 1 12 C0.67 12 0.34 12 0 12 C0 9.03 0 6.06 0 3 C-0.66 2.67 -1.32 2.34 -2 2 C-1.34 2 -0.68 2 0 2 C0 1.34 0 0.68 0 0 Z " fill="#212529" transform="translate(1073,187)"/>
</svg>
