<svg version="1.1" id="Layer_1" xmlns="http://www.w3.org/2000/svg" xmlns:xlink="http://www.w3.org/1999/xlink" x="0px" y="0px"
	 width="100%" viewBox="0 0 1024 464" enable-background="new 0 0 1024 464" xml:space="preserve">
<path fill="#000000" opacity="1.000000" stroke="none" 
	d="
M568.531372,1.000000 
	C567.330688,1.963666 565.481262,1.932500 563.649414,1.934991 
	C517.153992,1.998225 470.658539,2.065604 424.163116,2.084166 
	C421.351807,2.085288 418.483612,2.326978 415.369507,1.181658 
	C466.020905,1.000000 517.041809,1.000000 568.531372,1.000000 
z"/>
<path fill="#000000" opacity="1.000000" stroke="none" 
	d="
M691.531372,1.000000 
	C690.550293,1.313283 689.101257,1.895390 687.650696,1.899349 
	C667.322693,1.954826 646.994385,1.939176 626.666260,1.903500 
	C625.689392,1.901786 624.713135,1.554296 623.368286,1.183914 
	C645.687561,1.000000 668.375122,1.000000 691.531372,1.000000 
z"/>
<path fill="#000000" opacity="1.000000" stroke="none" 
	d="
M404.531342,1.000000 
	C400.492401,2.803253 395.771576,1.939720 391.162659,1.915080 
	C383.690552,1.875132 376.187256,2.573493 368.371338,1.175200 
	C380.020905,1.000000 392.041779,1.000000 404.531342,1.000000 
z"/>
<path fill="#000000" opacity="1.000000" stroke="none" 
	d="
M659.301941,109.429153 
	C649.979126,109.197647 641.066528,109.080513 632.154663,108.919052 
	C618.977417,108.680313 605.928528,110.366539 592.857666,111.619469 
	C588.780762,112.010269 585.264832,109.767578 581.124329,110.039528 
	C578.414124,110.217545 575.972412,109.655266 573.997681,112.032318 
	C572.653564,113.650269 570.329590,111.748741 568.716980,113.516113 
	C568.742371,115.741653 570.396912,115.879448 572.101318,115.758797 
	C577.874939,115.350067 583.545471,115.615555 589.274963,116.791603 
	C594.483765,117.860756 599.725952,115.743324 605.149963,116.305145 
	C612.318787,117.047714 619.664612,115.703110 626.854431,117.533897 
	C624.062622,126.397949 625.444336,125.113289 617.506531,124.734009 
	C612.392456,124.489655 607.232117,124.944420 602.106995,125.296402 
	C598.882935,125.517815 596.015747,125.459747 595.112732,121.425186 
	C590.032959,127.277596 580.674744,126.732315 575.117798,120.171211 
	C572.844910,127.345383 567.014893,124.620987 562.359436,124.727982 
	C559.851685,124.785622 560.159424,121.798538 559.541626,120.010521 
	C558.057861,115.716637 562.494629,115.644661 564.596741,113.747223 
	C562.675598,111.291489 560.556458,112.196098 558.492432,112.373863 
	C556.972717,115.012985 558.330322,117.684906 558.098816,120.265762 
	C557.801453,123.582039 556.885925,125.335411 552.889099,125.080482 
	C546.453857,124.670021 539.936279,125.445374 533.515869,124.934975 
	C525.391113,124.289093 517.324219,124.892052 509.255798,125.237473 
	C504.741119,125.430756 501.658417,124.318764 500.472778,119.607315 
	C495.241699,124.431419 495.234009,124.353752 486.404694,125.226753 
	C483.643402,125.499771 480.935760,126.315346 478.397766,126.842255 
	C476.681702,125.919098 478.093719,124.072052 476.891174,123.169601 
	C468.056427,127.502251 458.973083,124.320976 449.930420,124.290703 
	C448.487488,121.116203 448.416046,118.295494 451.108063,116.017708 
	C452.212952,115.082863 453.162994,114.259483 452.706268,112.725906 
	C452.212646,111.068504 450.878448,110.377159 449.278351,110.295540 
	C439.412506,109.792313 429.429779,107.242920 419.848785,111.952675 
	C418.577057,112.577805 417.257904,112.131859 415.935028,111.894997 
	C413.371399,111.435974 413.360168,111.498619 410.612915,113.710602 
	C412.821106,116.080315 415.653076,115.760506 418.385010,115.745590 
	C424.334412,115.713112 430.318512,115.251534 436.221985,115.750931 
	C440.911255,116.147621 445.384491,117.858017 446.200317,123.763306 
	C445.659637,125.324669 444.141083,125.079056 442.884979,125.088310 
	C437.916870,125.124878 432.757263,125.877525 428.034912,124.783623 
	C423.629608,123.763168 419.637421,124.890335 415.628448,124.734367 
	C408.361725,124.451668 401.697693,126.928474 394.653473,127.250328 
	C391.366486,127.400513 389.057892,125.450630 386.062439,125.165154 
	C377.534241,124.352379 368.865021,124.309433 360.438171,124.259857 
	C351.536438,124.207489 342.478638,124.254242 333.497986,124.546951 
	C326.807373,124.765030 325.926025,123.355629 328.118683,117.211929 
	C339.022522,117.211929 349.592682,117.292679 360.160461,117.170052 
	C364.092743,117.124428 368.027008,116.674332 371.944489,116.258751 
	C373.274933,116.117607 374.615143,115.437531 374.988861,113.995949 
	C375.425781,112.310585 374.070404,111.392090 372.823792,111.147499 
	C368.929230,110.383354 365.551575,106.397621 360.896088,109.804832 
	C358.860626,111.294548 356.012390,108.624268 353.697693,108.959045 
	C343.359009,110.454369 332.797943,107.370781 322.582947,110.601067 
	C321.695404,110.881729 321.043060,110.556503 320.271576,110.142715 
	C316.664886,108.208298 312.344971,107.973442 308.837524,108.660522 
	C301.338898,110.129440 299.003998,108.746696 301.732605,99.105507 
	C311.650665,104.623268 322.110077,100.097244 332.334015,100.779839 
	C345.874084,101.683823 359.433197,98.526657 372.984863,100.548798 
	C376.616882,101.090759 379.691528,99.192245 383.258636,99.137070 
	C396.033081,98.939491 408.687958,102.268700 421.399689,100.786613 
	C430.097321,99.772530 438.725189,101.133728 447.468933,100.278839 
	C452.794586,99.758141 458.664276,99.783646 464.180420,100.088722 
	C475.153992,100.695610 486.110016,99.813766 496.966919,100.262428 
	C509.458893,100.778656 521.934265,99.623154 534.415100,100.789841 
	C542.763062,101.570183 551.422729,101.182381 559.575745,100.552063 
	C571.112000,99.660194 582.305664,101.247185 593.648071,101.315247 
	C596.848816,101.334457 599.120239,98.646461 602.581055,98.819580 
	C610.436218,99.212540 618.142944,99.839928 625.974060,101.115730 
	C632.455872,102.171722 639.799927,101.100891 646.746826,100.448090 
	C653.065735,99.854286 659.519226,98.846703 665.758362,100.854980 
	C671.712402,102.771500 677.515137,100.576202 683.393311,100.581123 
	C695.939636,100.591629 708.474365,100.518486 721.014038,101.126587 
	C726.745056,101.404503 732.593689,101.988998 738.035645,99.255981 
	C738.473328,99.036171 739.174683,98.675560 739.427368,98.850777 
	C745.780334,103.255440 753.519897,97.795738 760.024658,101.823494 
	C760.746155,104.388565 759.418701,106.595222 758.440857,108.836868 
	C757.880005,110.122520 756.699158,111.379639 755.335083,110.655434 
	C749.311584,107.457466 742.968201,109.435257 736.777039,109.286613 
	C733.672485,109.212067 730.742554,109.255936 728.865112,105.372444 
	C725.992432,110.946236 721.294983,109.054939 717.343994,108.949341 
	C711.549622,108.794487 705.788452,109.035889 700.017273,109.274193 
	C696.756592,109.408852 693.560364,109.537735 691.936035,105.867500 
	C685.993774,112.123322 679.068604,108.806145 672.717285,108.508629 
	C670.672363,108.412834 669.153992,107.672012 667.546753,109.511482 
	C665.041443,112.378639 662.333557,110.096390 659.301941,109.429153 
M504.625824,116.883186 
	C510.962891,114.766144 517.294250,112.790329 523.691589,116.740173 
	C524.061401,116.968506 524.703186,116.929985 525.164856,116.809837 
	C532.623901,114.868660 540.797913,117.902298 547.944641,113.184311 
	C547.673462,111.717049 547.317261,109.973595 545.108948,109.307854 
	C543.394470,110.289024 542.299255,113.052818 539.710693,111.685013 
	C532.941406,108.108047 525.226685,113.915375 518.576538,109.474754 
	C509.059814,111.703857 499.377533,108.630074 489.849335,110.364876 
	C485.068359,111.235352 480.081451,111.553131 475.546814,114.586014 
	C477.541229,116.202507 479.234741,116.204910 480.478638,115.611656 
	C486.181732,112.891678 491.543060,115.400826 496.952179,116.509331 
	C499.276611,116.985687 501.508026,117.193153 504.625824,116.883186 
z"/>
<path fill="#000000" opacity="1.000000" stroke="none" 
	d="
M508.868927,84.292557 
	C507.169769,83.090050 505.804535,83.159042 504.381927,84.070244 
	C503.407196,84.694572 502.400970,85.340652 501.318146,85.713966 
	C493.809570,88.302635 490.788544,86.187561 490.737640,78.411835 
	C490.721283,75.915070 490.898895,73.379173 490.526642,70.931313 
	C489.942719,67.091309 491.568329,65.721916 495.177979,65.792847 
	C499.185486,65.871605 502.846161,66.849648 505.383575,70.104645 
	C506.851501,71.987671 508.209076,71.839310 510.445190,71.671715 
	C520.928406,70.886047 531.340881,70.220474 541.981201,71.682510 
	C547.541321,72.446495 554.221558,72.773315 559.366272,71.650497 
	C566.596313,70.072578 573.620422,70.615753 580.494385,70.730553 
	C592.139771,70.925034 603.801636,70.257446 615.452637,71.000923 
	C619.419739,71.254074 620.664673,72.246269 619.111877,76.082260 
	C617.802307,79.317314 616.868103,82.702873 615.603943,85.958176 
	C614.352661,89.180046 612.354431,91.767319 608.781738,92.708061 
	C607.420715,93.066422 605.750305,93.299538 605.314575,91.763176 
	C603.278870,84.585594 597.383789,86.420570 592.674316,86.594879 
	C587.632935,86.781471 582.679504,87.853760 578.749512,83.703728 
	C572.806396,87.879669 566.749329,87.910301 560.467896,85.269615 
	C559.567932,84.891266 558.476013,84.206482 557.691345,84.430061 
	C543.836487,88.377861 529.657959,85.548203 515.669861,86.522667 
	C513.292786,86.688263 511.013458,86.236053 508.868927,84.292557 
M605.522400,78.312210 
	C604.765442,76.009987 603.180786,75.898788 601.362915,76.881882 
	C600.543457,77.325043 600.470581,78.300819 601.066467,78.971939 
	C602.484802,80.569496 603.999878,80.868187 605.522400,78.312210 
z"/>
<path fill="#000000" opacity="1.000000" stroke="none" 
	d="
M411.013214,164.220535 
	C408.949127,156.803757 410.101746,156.005844 417.298126,156.330704 
	C429.533691,156.882980 441.802826,156.724945 454.058289,156.789902 
	C461.296661,156.828262 468.565552,158.109100 475.749908,155.781784 
	C478.450867,154.906815 480.574219,156.371185 481.173279,159.582626 
	C482.535461,158.233337 483.255829,156.973267 484.796204,157.007401 
	C493.022644,157.189713 501.234314,155.573166 509.481415,156.902725 
	C511.417938,157.214905 513.455139,157.001495 515.439331,156.899673 
	C520.815674,156.623810 526.202942,155.621887 531.514526,157.492920 
	C532.427307,157.814438 533.641907,158.085358 534.456543,157.748917 
	C540.047546,155.440079 545.768921,156.516693 551.505066,156.676651 
	C560.747070,156.934357 569.999939,156.815002 579.248230,156.834091 
	C586.682007,156.849426 594.202820,157.871674 601.382202,154.863205 
	C602.090820,154.566254 603.257568,154.398041 603.779175,154.772552 
	C607.734924,157.612549 612.129333,157.472900 616.571838,156.322083 
	C617.984863,159.419785 616.909607,162.099701 616.930725,164.603989 
	C616.953125,167.266846 614.125244,167.844345 611.951355,166.885025 
	C606.212891,164.352676 600.240540,164.967834 594.307983,165.187073 
	C588.039490,165.418747 588.044067,165.542542 583.992432,161.199249 
	C581.350586,165.909363 577.316101,166.504150 572.635803,164.896744 
	C572.485596,164.845169 572.278870,164.818939 572.144470,164.880814 
	C565.689575,167.851349 559.144348,164.839401 552.637634,165.130859 
	C545.666565,165.443115 538.656250,165.396729 531.684265,165.063583 
	C516.928040,164.358475 502.182770,165.832184 487.449219,165.184601 
	C474.687744,164.623734 461.945862,165.549561 449.195099,165.157974 
	C447.234039,165.097763 445.141022,164.884766 443.324158,165.951813 
	C440.521729,167.597733 438.212524,167.568634 437.229553,164.739914 
	C428.230621,165.394669 419.768585,165.540802 411.013214,164.220535 
z"/>
<path fill="#000000" opacity="1.000000" stroke="none" 
	d="
M470.662048,70.302872 
	C473.479340,70.977135 475.275818,70.274826 476.343903,67.899582 
	C477.387360,65.579170 479.349701,64.729706 481.669952,65.226349 
	C484.252106,65.779060 484.090759,68.103973 484.106903,70.077576 
	C484.142181,74.404984 483.924255,78.741730 484.735657,83.027878 
	C485.234131,85.660881 483.981018,87.221146 481.530945,86.585938 
	C475.589233,85.045494 469.779602,87.483826 463.791534,86.673317 
	C460.181488,86.184677 456.509125,86.910965 453.926971,83.685493 
	C450.548981,86.513664 446.949402,88.101486 443.834015,90.590881 
	C440.401855,93.333412 435.843964,93.024086 432.284607,89.944061 
	C427.908600,86.157379 423.588531,84.714790 417.422455,85.854134 
	C408.029327,87.589767 407.599030,85.567299 408.592499,78.456635 
	C408.797424,76.990036 408.600891,75.464096 408.556366,73.966484 
	C408.346619,66.911102 409.257294,65.962860 416.119354,66.794968 
	C419.805115,67.241905 423.126709,68.703156 426.316650,64.561226 
	C427.966125,62.419487 431.293793,64.262947 431.285553,67.506912 
	C431.276001,71.258804 433.314117,71.190887 435.827057,70.655098 
	C440.236908,69.714859 445.324341,70.064919 447.249359,64.361122 
	C447.672943,63.106163 449.857605,62.382309 450.629303,63.515659 
	C453.218079,67.317490 458.073578,66.767700 461.164978,69.543991 
	C463.875061,71.977829 467.195831,70.489342 470.662048,70.302872 
M415.692108,75.596764 
	C415.181213,77.193390 413.899536,78.824142 415.827972,80.373062 
	C419.317657,77.328499 419.344849,76.647995 415.692108,75.596764 
z"/>
<path fill="#000000" opacity="1.000000" stroke="none" 
	d="
M509.019897,235.057541 
	C505.197357,235.024277 501.859619,235.147720 498.547028,234.914474 
	C494.880127,234.656265 492.759338,232.673218 492.792938,228.778351 
	C492.834534,223.953506 492.848297,219.128372 492.858643,214.303329 
	C492.867859,210.012268 495.013000,207.812683 499.293488,207.801376 
	C508.943726,207.775864 518.594116,207.802460 528.244446,207.789688 
	C531.923706,207.784821 533.903809,209.783432 534.041565,213.257401 
	C534.252319,218.573074 534.243103,223.906418 534.083862,229.224960 
	C533.961243,233.318710 531.416260,235.054916 527.485779,235.050476 
	C521.495789,235.043732 515.505798,235.053940 509.019897,235.057541 
z"/>
<path fill="#000000" opacity="1.000000" stroke="none" 
	d="
M476.757111,193.356873 
	C463.093262,193.062225 449.816528,193.323151 436.532715,192.935501 
	C430.962433,192.772949 424.488556,191.491989 419.464020,195.151733 
	C417.083282,194.844299 418.032928,192.375534 416.150391,191.614426 
	C412.960358,194.236191 408.913116,193.267288 405.005951,193.305786 
	C402.842316,193.327118 400.678101,193.287842 398.514282,193.298401 
	C395.767670,193.311813 395.205017,191.534744 395.279083,189.308914 
	C395.358490,186.920837 396.439240,185.563828 399.044678,185.853683 
	C411.270935,187.213898 423.677643,187.811066 435.769531,186.473083 
	C447.738098,185.148743 459.539429,188.302856 471.444244,186.071442 
	C475.403046,185.329422 479.791046,186.877060 484.187561,187.402390 
	C483.401550,191.868805 481.600891,194.258163 476.757111,193.356873 
z"/>
<path fill="#000000" opacity="1.000000" stroke="none" 
	d="
M650.055481,116.761887 
	C660.647766,115.957474 670.977112,115.350967 681.269348,116.988678 
	C684.028198,117.427673 686.257141,118.584953 685.686218,121.795578 
	C685.193665,124.565651 683.169617,124.876022 680.422363,124.939293 
	C672.308777,125.126152 664.224976,124.997536 656.119324,124.637337 
	C649.988342,124.364883 649.223083,123.742340 650.055481,116.761887 
z"/>
<path fill="#000000" opacity="1.000000" stroke="none" 
	d="
M273.021729,108.757599 
	C266.580963,109.299240 267.335510,104.854759 266.704468,100.866547 
	C277.305756,99.482475 287.534393,100.140839 297.988129,101.170044 
	C298.717926,103.506638 297.479187,105.894791 298.102386,108.386742 
	C298.627441,110.486023 296.003082,111.848648 294.360443,111.087151 
	C287.565277,107.937096 280.375793,109.521477 273.021729,108.757599 
z"/>
<path fill="#000000" opacity="1.000000" stroke="none" 
	d="
M631.685181,117.246704 
	C635.867065,117.162529 639.668884,117.034515 643.471741,116.976204 
	C646.532227,116.929268 647.483215,118.678787 647.237915,121.482323 
	C647.001160,124.188622 645.573120,125.288254 642.925171,124.981293 
	C638.668518,124.487823 634.472717,124.444328 630.119385,126.898972 
	C631.289490,123.641479 627.130493,120.145233 631.685181,117.246704 
z"/>
<path fill="#000000" opacity="1.000000" stroke="none" 
	d="
M691.648804,124.526291 
	C686.735962,123.469299 686.209717,121.405243 689.046326,115.007683 
	C693.918091,116.057640 697.731689,118.329292 699.259705,123.721039 
	C697.147034,126.148109 694.336548,123.855179 691.648804,124.526291 
z"/>
</svg>